<ttFont>
    <TTGlyph name=".notdef" xMin="102" yMin="-220" xMax="643" yMax="1030">
      <contour>
        <pt x="102" y="1030" on="1"/>
        <pt x="643" y="1030" on="1"/>
        <pt x="643" y="-220" on="1"/>
        <pt x="102" y="-220" on="1"/>
      </contour>
      <contour>
        <pt x="592" y="-171" on="1"/>
        <pt x="592" y="982" on="1"/>
        <pt x="153" y="982" on="1"/>
        <pt x="153" y="-171" on="1"/>
      </contour>
    </TTGlyph>
    <TTGlyph name="A" xMin="10" yMin="0" xMax="643" yMax="740">
      <contour>
        <pt x="10" y="6" on="1"/>
        <pt x="287" y="740" on="1"/>
        <pt x="366" y="740" on="1"/>
        <pt x="643" y="6" on="1"/>
        <pt x="643" y="0" on="1"/>
        <pt x="591" y="0" on="1"/>
        <pt x="500" y="240" on="1"/>
        <pt x="152" y="240" on="1"/>
        <pt x="62" y="0" on="1"/>
        <pt x="10" y="0" on="1"/>
      </contour>
      <contour>
        <pt x="484" y="287" on="1"/>
        <pt x="374" y="577" on="1"/>
        <pt x="329" y="699" on="1"/>
        <pt x="324" y="699" on="1"/>
        <pt x="279" y="577" on="1"/>
        <pt x="169" y="287" on="1"/>
      </contour>
    </TTGlyph>
    <TTGlyph name="A.sc" xMin="17" yMin="0" xMax="570" yMax="577">
      <contour>
        <pt x="17" y="5" on="1"/>
        <pt x="255" y="577" on="1"/>
        <pt x="332" y="577" on="1"/>
        <pt x="570" y="5" on="1"/>
        <pt x="570" y="0" on="1"/>
        <pt x="519" y="0" on="1"/>
        <pt x="443" y="181" on="1"/>
        <pt x="144" y="181" on="1"/>
        <pt x="68" y="0" on="1"/>
        <pt x="17" y="0" on="1"/>
      </contour>
      <contour>
        <pt x="427" y="223" on="1"/>
        <pt x="335" y="444" on="1"/>
        <pt x="295" y="539" on="1"/>
        <pt x="290" y="539" on="1"/>
        <pt x="252" y="444" on="1"/>
        <pt x="158" y="223" on="1"/>
      </contour>
    </TTGlyph>
    <TTGlyph name="AE" xMin="10" yMin="0" xMax="791" yMax="740">
      <contour>
        <pt x="10" y="6" on="1"/>
        <pt x="311" y="740" on="1"/>
        <pt x="782" y="740" on="1"/>
        <pt x="782" y="693" on="1"/>
        <pt x="443" y="693" on="1"/>
        <pt x="456" y="399" on="1"/>
        <pt x="751" y="399" on="1"/>
        <pt x="751" y="352" on="1"/>
        <pt x="458" y="352" on="1"/>
        <pt x="473" y="47" on="1"/>
        <pt x="791" y="47" on="1"/>
        <pt x="791" y="0" on="1"/>
        <pt x="422" y="0" on="1"/>
        <pt x="412" y="240" on="1"/>
        <pt x="159" y="240" on="1"/>
        <pt x="60" y="0" on="1"/>
        <pt x="10" y="0" on="1"/>
      </contour>
      <contour>
        <pt x="179" y="287" on="1"/>
        <pt x="410" y="287" on="1"/>
        <pt x="394" y="694" on="1"/>
        <pt x="348" y="694" on="1"/>
      </contour>
    </TTGlyph>
    <TTGlyph name="AE.sc" xMin="20" yMin="0" xMax="702" yMax="577">
      <contour>
        <pt x="20" y="5" on="1"/>
        <pt x="280" y="577" on="1"/>
        <pt x="693" y="577" on="1"/>
        <pt x="693" y="534" on="1"/>
        <pt x="403" y="534" on="1"/>
        <pt x="414" y="313" on="1"/>
        <pt x="667" y="313" on="1"/>
        <pt x="667" y="272" on="1"/>
        <pt x="417" y="272" on="1"/>
        <pt x="429" y="43" on="1"/>
        <pt x="702" y="43" on="1"/>
        <pt x="702" y="0" on="1"/>
        <pt x="378" y="0" on="1"/>
        <pt x="370" y="181" on="1"/>
        <pt x="153" y="181" on="1"/>
        <pt x="70" y="0" on="1"/>
        <pt x="20" y="0" on="1"/>
      </contour>
      <contour>
        <pt x="172" y="223" on="1"/>
        <pt x="368" y="223" on="1"/>
        <pt x="354" y="535" on="1"/>
        <pt x="316" y="535" on="1"/>
      </contour>
    </TTGlyph>
    <TTGlyph name="AEacute" xMin="10" yMin="0" xMax="791" yMax="932">
      <contour>
        <pt x="481" y="805" on="1"/>
        <pt x="558" y="932" on="1"/>
        <pt x="613" y="932" on="1"/>
        <pt x="524" y="799" on="1"/>
      </contour>
      <contour>
        <pt x="10" y="6" on="1"/>
        <pt x="311" y="740" on="1"/>
        <pt x="782" y="740" on="1"/>
        <pt x="782" y="693" on="1"/>
        <pt x="443" y="693" on="1"/>
        <pt x="456" y="399" on="1"/>
        <pt x="751" y="399" on="1"/>
        <pt x="751" y="352" on="1"/>
        <pt x="458" y="352" on="1"/>
        <pt x="473" y="47" on="1"/>
        <pt x="791" y="47" on="1"/>
        <pt x="791" y="0" on="1"/>
        <pt x="422" y="0" on="1"/>
        <pt x="412" y="240" on="1"/>
        <pt x="159" y="240" on="1"/>
        <pt x="60" y="0" on="1"/>
        <pt x="10" y="0" on="1"/>
      </contour>
      <contour>
        <pt x="179" y="287" on="1"/>
        <pt x="410" y="287" on="1"/>
        <pt x="394" y="694" on="1"/>
        <pt x="348" y="694" on="1"/>
      </contour>
    </TTGlyph>
    <TTGlyph name="AEacute.sc" xMin="20" yMin="0" xMax="702" yMax="732">
      <contour>
        <pt x="20" y="5" on="1"/>
        <pt x="280" y="577" on="1"/>
        <pt x="693" y="577" on="1"/>
        <pt x="693" y="534" on="1"/>
        <pt x="403" y="534" on="1"/>
        <pt x="414" y="313" on="1"/>
        <pt x="667" y="313" on="1"/>
        <pt x="667" y="272" on="1"/>
        <pt x="417" y="272" on="1"/>
        <pt x="429" y="43" on="1"/>
        <pt x="702" y="43" on="1"/>
        <pt x="702" y="0" on="1"/>
        <pt x="378" y="0" on="1"/>
        <pt x="370" y="181" on="1"/>
        <pt x="153" y="181" on="1"/>
        <pt x="70" y="0" on="1"/>
        <pt x="20" y="0" on="1"/>
      </contour>
      <contour>
        <pt x="368" y="223" on="1"/>
        <pt x="354" y="535" on="1"/>
        <pt x="316" y="535" on="1"/>
        <pt x="172" y="223" on="1"/>
      </contour>
      <contour>
        <pt x="426" y="629" on="1"/>
        <pt x="492" y="732" on="1"/>
        <pt x="546" y="732" on="1"/>
        <pt x="468" y="625" on="1"/>
      </contour>
    </TTGlyph>
    <TTGlyph name="Aacute" xMin="10" yMin="0" xMax="643" yMax="932">
      <contour>
        <pt x="10" y="6" on="1"/>
        <pt x="287" y="740" on="1"/>
        <pt x="366" y="740" on="1"/>
        <pt x="643" y="6" on="1"/>
        <pt x="643" y="0" on="1"/>
        <pt x="591" y="0" on="1"/>
        <pt x="500" y="240" on="1"/>
        <pt x="152" y="240" on="1"/>
        <pt x="62" y="0" on="1"/>
        <pt x="10" y="0" on="1"/>
      </contour>
      <contour>
        <pt x="484" y="287" on="1"/>
        <pt x="374" y="577" on="1"/>
        <pt x="329" y="699" on="1"/>
        <pt x="324" y="699" on="1"/>
        <pt x="279" y="577" on="1"/>
        <pt x="169" y="287" on="1"/>
      </contour>
      <contour>
        <pt x="300" y="805" on="1"/>
        <pt x="377" y="932" on="1"/>
        <pt x="432" y="932" on="1"/>
        <pt x="343" y="799" on="1"/>
      </contour>
    </TTGlyph>
    <TTGlyph name="Aacute.sc" xMin="17" yMin="0" xMax="570" yMax="732">
      <contour>
        <pt x="17" y="5" on="1"/>
        <pt x="255" y="577" on="1"/>
        <pt x="332" y="577" on="1"/>
        <pt x="570" y="5" on="1"/>
        <pt x="570" y="0" on="1"/>
        <pt x="519" y="0" on="1"/>
        <pt x="443" y="181" on="1"/>
        <pt x="144" y="181" on="1"/>
        <pt x="68" y="0" on="1"/>
        <pt x="17" y="0" on="1"/>
      </contour>
      <contour>
        <pt x="427" y="224" on="1"/>
        <pt x="335" y="444" on="1"/>
        <pt x="295" y="539" on="1"/>
        <pt x="290" y="539" on="1"/>
        <pt x="252" y="444" on="1"/>
        <pt x="158" y="224" on="1"/>
      </contour>
      <contour>
        <pt x="269" y="629" on="1"/>
        <pt x="334" y="732" on="1"/>
        <pt x="387" y="732" on="1"/>
        <pt x="310" y="625" on="1"/>
      </contour>
    </TTGlyph>
    <TTGlyph name="Abreve" xMin="10" yMin="0" xMax="643" yMax="952">
      <contour>
        <pt x="10" y="6" on="1"/>
        <pt x="287" y="740" on="1"/>
        <pt x="366" y="740" on="1"/>
        <pt x="643" y="6" on="1"/>
        <pt x="643" y="0" on="1"/>
        <pt x="591" y="0" on="1"/>
        <pt x="500" y="240" on="1"/>
        <pt x="152" y="240" on="1"/>
        <pt x="62" y="0" on="1"/>
        <pt x="10" y="0" on="1"/>
      </contour>
      <contour>
        <pt x="484" y="287" on="1"/>
        <pt x="374" y="577" on="1"/>
        <pt x="329" y="699" on="1"/>
        <pt x="324" y="699" on="1"/>
        <pt x="279" y="577" on="1"/>
        <pt x="169" y="287" on="1"/>
      </contour>
      <contour>
        <pt x="327" y="815" on="1"/>
        <pt x="248" y="815" on="0"/>
        <pt x="163" y="889" on="0"/>
        <pt x="163" y="952" on="1"/>
        <pt x="207" y="952" on="1"/>
        <pt x="207" y="907" on="0"/>
        <pt x="270" y="855" on="0"/>
        <pt x="327" y="855" on="1"/>
        <pt x="385" y="855" on="0"/>
        <pt x="448" y="907" on="0"/>
        <pt x="448" y="952" on="1"/>
        <pt x="493" y="952" on="1"/>
        <pt x="493" y="889" on="0"/>
        <pt x="406" y="815" on="0"/>
      </contour>
    </TTGlyph>
    <TTGlyph name="Abreve.sc" xMin="17" yMin="0" xMax="570" yMax="746">
      <contour>
        <pt x="294" y="635" on="1"/>
        <pt x="223" y="635" on="0"/>
        <pt x="149" y="695" on="0"/>
        <pt x="149" y="746" on="1"/>
        <pt x="190" y="746" on="1"/>
        <pt x="190" y="710" on="0"/>
        <pt x="243" y="670" on="0"/>
        <pt x="294" y="670" on="1"/>
        <pt x="344" y="670" on="0"/>
        <pt x="398" y="710" on="0"/>
        <pt x="398" y="746" on="1"/>
        <pt x="439" y="746" on="1"/>
        <pt x="439" y="695" on="0"/>
        <pt x="364" y="635" on="0"/>
      </contour>
      <contour>
        <pt x="17" y="5" on="1"/>
        <pt x="255" y="577" on="1"/>
        <pt x="332" y="577" on="1"/>
        <pt x="570" y="5" on="1"/>
        <pt x="570" y="0" on="1"/>
        <pt x="519" y="0" on="1"/>
        <pt x="443" y="181" on="1"/>
        <pt x="144" y="181" on="1"/>
        <pt x="68" y="0" on="1"/>
        <pt x="17" y="0" on="1"/>
      </contour>
      <contour>
        <pt x="427" y="224" on="1"/>
        <pt x="335" y="444" on="1"/>
        <pt x="295" y="539" on="1"/>
        <pt x="290" y="539" on="1"/>
        <pt x="252" y="444" on="1"/>
        <pt x="158" y="224" on="1"/>
      </contour>
    </TTGlyph>
    <TTGlyph name="Acircumflex" xMin="10" yMin="0" xMax="643" yMax="940">
      <contour>
        <pt x="10" y="6" on="1"/>
        <pt x="287" y="740" on="1"/>
        <pt x="366" y="740" on="1"/>
        <pt x="643" y="6" on="1"/>
        <pt x="643" y="0" on="1"/>
        <pt x="591" y="0" on="1"/>
        <pt x="500" y="240" on="1"/>
        <pt x="152" y="240" on="1"/>
        <pt x="62" y="0" on="1"/>
        <pt x="10" y="0" on="1"/>
      </contour>
      <contour>
        <pt x="484" y="287" on="1"/>
        <pt x="374" y="577" on="1"/>
        <pt x="329" y="699" on="1"/>
        <pt x="324" y="699" on="1"/>
        <pt x="279" y="577" on="1"/>
        <pt x="169" y="287" on="1"/>
      </contour>
      <contour>
        <pt x="177" y="867" on="1"/>
        <pt x="328" y="940" on="1"/>
        <pt x="478" y="867" on="1"/>
        <pt x="478" y="817" on="1"/>
        <pt x="328" y="889" on="1"/>
        <pt x="177" y="817" on="1"/>
      </contour>
    </TTGlyph>
    <TTGlyph name="Acircumflex.sc" xMin="17" yMin="0" xMax="570" yMax="738">
      <contour>
        <pt x="17" y="5" on="1"/>
        <pt x="255" y="577" on="1"/>
        <pt x="332" y="577" on="1"/>
        <pt x="570" y="5" on="1"/>
        <pt x="570" y="0" on="1"/>
        <pt x="519" y="0" on="1"/>
        <pt x="443" y="181" on="1"/>
        <pt x="144" y="181" on="1"/>
        <pt x="68" y="0" on="1"/>
        <pt x="17" y="0" on="1"/>
      </contour>
      <contour>
        <pt x="427" y="224" on="1"/>
        <pt x="335" y="444" on="1"/>
        <pt x="295" y="539" on="1"/>
        <pt x="290" y="539" on="1"/>
        <pt x="252" y="444" on="1"/>
        <pt x="158" y="224" on="1"/>
      </contour>
      <contour>
        <pt x="162" y="680" on="1"/>
        <pt x="294" y="738" on="1"/>
        <pt x="427" y="680" on="1"/>
        <pt x="427" y="636" on="1"/>
        <pt x="294" y="692" on="1"/>
        <pt x="162" y="636" on="1"/>
      </contour>
    </TTGlyph>
    <TTGlyph name="Adblgrave" xMin="10" yMin="0" xMax="643" yMax="925">
      <contour>
        <pt x="10" y="6" on="1"/>
        <pt x="287" y="740" on="1"/>
        <pt x="366" y="740" on="1"/>
        <pt x="643" y="6" on="1"/>
        <pt x="643" y="0" on="1"/>
        <pt x="591" y="0" on="1"/>
        <pt x="500" y="240" on="1"/>
        <pt x="152" y="240" on="1"/>
        <pt x="62" y="0" on="1"/>
        <pt x="10" y="0" on="1"/>
      </contour>
      <contour>
        <pt x="484" y="287" on="1"/>
        <pt x="374" y="577" on="1"/>
        <pt x="329" y="699" on="1"/>
        <pt x="324" y="699" on="1"/>
        <pt x="279" y="577" on="1"/>
        <pt x="169" y="287" on="1"/>
      </contour>
      <contour>
        <pt x="239" y="793" on="1"/>
        <pt x="150" y="925" on="1"/>
        <pt x="203" y="925" on="1"/>
        <pt x="281" y="806" on="1"/>
      </contour>
      <contour>
        <pt x="376" y="793" on="1"/>
        <pt x="287" y="925" on="1"/>
        <pt x="341" y="925" on="1"/>
        <pt x="418" y="806" on="1"/>
      </contour>
    </TTGlyph>
    <TTGlyph name="Adblgrave.sc" xMin="17" yMin="0" xMax="570" yMax="727">
      <contour>
        <pt x="17" y="5" on="1"/>
        <pt x="255" y="577" on="1"/>
        <pt x="332" y="577" on="1"/>
        <pt x="570" y="5" on="1"/>
        <pt x="570" y="0" on="1"/>
        <pt x="519" y="0" on="1"/>
        <pt x="443" y="181" on="1"/>
        <pt x="144" y="181" on="1"/>
        <pt x="68" y="0" on="1"/>
        <pt x="17" y="0" on="1"/>
      </contour>
      <contour>
        <pt x="427" y="224" on="1"/>
        <pt x="335" y="444" on="1"/>
        <pt x="295" y="539" on="1"/>
        <pt x="290" y="539" on="1"/>
        <pt x="252" y="444" on="1"/>
        <pt x="158" y="224" on="1"/>
      </contour>
      <contour>
        <pt x="136" y="727" on="1"/>
        <pt x="188" y="727" on="1"/>
        <pt x="253" y="630" on="1"/>
        <pt x="213" y="619" on="1"/>
      </contour>
      <contour>
        <pt x="257" y="727" on="1"/>
        <pt x="309" y="727" on="1"/>
        <pt x="375" y="630" on="1"/>
        <pt x="335" y="619" on="1"/>
      </contour>
    </TTGlyph>
    <TTGlyph name="Adieresis" xMin="10" yMin="0" xMax="643" yMax="905">
      <contour>
        <pt x="10" y="6" on="1"/>
        <pt x="287" y="740" on="1"/>
        <pt x="366" y="740" on="1"/>
        <pt x="643" y="6" on="1"/>
        <pt x="643" y="0" on="1"/>
        <pt x="591" y="0" on="1"/>
        <pt x="500" y="240" on="1"/>
        <pt x="152" y="240" on="1"/>
        <pt x="62" y="0" on="1"/>
        <pt x="10" y="0" on="1"/>
      </contour>
      <contour>
        <pt x="484" y="287" on="1"/>
        <pt x="374" y="577" on="1"/>
        <pt x="329" y="699" on="1"/>
        <pt x="324" y="699" on="1"/>
        <pt x="279" y="577" on="1"/>
        <pt x="169" y="287" on="1"/>
      </contour>
      <contour>
        <pt x="203" y="826" on="1"/>
        <pt x="185" y="826" on="0"/>
        <pt x="164" y="845" on="0"/>
        <pt x="164" y="865" on="1"/>
        <pt x="164" y="886" on="0"/>
        <pt x="185" y="905" on="0"/>
        <pt x="203" y="905" on="1"/>
        <pt x="220" y="905" on="0"/>
        <pt x="244" y="886" on="0"/>
        <pt x="244" y="865" on="1"/>
        <pt x="244" y="844" on="0"/>
        <pt x="220" y="826" on="0"/>
      </contour>
      <contour>
        <pt x="451" y="826" on="1"/>
        <pt x="411" y="826" on="0"/>
        <pt x="411" y="865" on="1"/>
        <pt x="411" y="905" on="0"/>
        <pt x="451" y="905" on="1"/>
        <pt x="468" y="905" on="0"/>
        <pt x="491" y="886" on="0"/>
        <pt x="491" y="865" on="1"/>
        <pt x="491" y="844" on="0"/>
        <pt x="468" y="826" on="0"/>
      </contour>
    </TTGlyph>
    <TTGlyph name="Adieresis.sc" xMin="17" yMin="0" xMax="570" yMax="714">
      <contour>
        <pt x="185" y="643" on="1"/>
        <pt x="148" y="643" on="0"/>
        <pt x="148" y="679" on="1"/>
        <pt x="148" y="714" on="0"/>
        <pt x="185" y="714" on="1"/>
        <pt x="202" y="714" on="0"/>
        <pt x="223" y="697" on="0"/>
        <pt x="223" y="679" on="1"/>
        <pt x="223" y="660" on="0"/>
        <pt x="202" y="643" on="0"/>
      </contour>
      <contour>
        <pt x="402" y="643" on="1"/>
        <pt x="365" y="643" on="0"/>
        <pt x="365" y="679" on="1"/>
        <pt x="365" y="714" on="0"/>
        <pt x="402" y="714" on="1"/>
        <pt x="419" y="714" on="0"/>
        <pt x="440" y="697" on="0"/>
        <pt x="440" y="679" on="1"/>
        <pt x="440" y="660" on="0"/>
        <pt x="419" y="643" on="0"/>
      </contour>
      <contour>
        <pt x="17" y="5" on="1"/>
        <pt x="255" y="577" on="1"/>
        <pt x="332" y="577" on="1"/>
        <pt x="570" y="5" on="1"/>
        <pt x="570" y="0" on="1"/>
        <pt x="519" y="0" on="1"/>
        <pt x="443" y="181" on="1"/>
        <pt x="144" y="181" on="1"/>
        <pt x="68" y="0" on="1"/>
        <pt x="17" y="0" on="1"/>
      </contour>
      <contour>
        <pt x="427" y="224" on="1"/>
        <pt x="335" y="444" on="1"/>
        <pt x="295" y="539" on="1"/>
        <pt x="290" y="539" on="1"/>
        <pt x="252" y="444" on="1"/>
        <pt x="158" y="224" on="1"/>
      </contour>
    </TTGlyph>
    <TTGlyph name="Agrave" xMin="10" yMin="0" xMax="643" yMax="932">
      <contour>
        <pt x="10" y="6" on="1"/>
        <pt x="287" y="740" on="1"/>
        <pt x="366" y="740" on="1"/>
        <pt x="643" y="6" on="1"/>
        <pt x="643" y="0" on="1"/>
        <pt x="591" y="0" on="1"/>
        <pt x="500" y="240" on="1"/>
        <pt x="152" y="240" on="1"/>
        <pt x="62" y="0" on="1"/>
        <pt x="10" y="0" on="1"/>
      </contour>
      <contour>
        <pt x="484" y="287" on="1"/>
        <pt x="374" y="577" on="1"/>
        <pt x="329" y="699" on="1"/>
        <pt x="324" y="699" on="1"/>
        <pt x="279" y="577" on="1"/>
        <pt x="169" y="287" on="1"/>
      </contour>
      <contour>
        <pt x="306" y="799" on="1"/>
        <pt x="217" y="932" on="1"/>
        <pt x="272" y="932" on="1"/>
        <pt x="350" y="813" on="1"/>
      </contour>
    </TTGlyph>
    <TTGlyph name="Agrave.sc" xMin="17" yMin="0" xMax="570" yMax="732">
      <contour>
        <pt x="17" y="5" on="1"/>
        <pt x="255" y="577" on="1"/>
        <pt x="332" y="577" on="1"/>
        <pt x="570" y="5" on="1"/>
        <pt x="570" y="0" on="1"/>
        <pt x="519" y="0" on="1"/>
        <pt x="443" y="181" on="1"/>
        <pt x="144" y="181" on="1"/>
        <pt x="68" y="0" on="1"/>
        <pt x="17" y="0" on="1"/>
      </contour>
      <contour>
        <pt x="427" y="224" on="1"/>
        <pt x="335" y="444" on="1"/>
        <pt x="295" y="539" on="1"/>
        <pt x="290" y="539" on="1"/>
        <pt x="252" y="444" on="1"/>
        <pt x="158" y="224" on="1"/>
      </contour>
      <contour>
        <pt x="274" y="625" on="1"/>
        <pt x="195" y="732" on="1"/>
        <pt x="249" y="732" on="1"/>
        <pt x="314" y="635" on="1"/>
      </contour>
    </TTGlyph>
    <TTGlyph name="Ainvertedbreve" xMin="10" yMin="0" xMax="643" yMax="956">
      <contour>
        <pt x="10" y="6" on="1"/>
        <pt x="287" y="740" on="1"/>
        <pt x="366" y="740" on="1"/>
        <pt x="643" y="6" on="1"/>
        <pt x="643" y="0" on="1"/>
        <pt x="591" y="0" on="1"/>
        <pt x="500" y="240" on="1"/>
        <pt x="152" y="240" on="1"/>
        <pt x="62" y="0" on="1"/>
        <pt x="10" y="0" on="1"/>
      </contour>
      <contour>
        <pt x="484" y="287" on="1"/>
        <pt x="374" y="577" on="1"/>
        <pt x="329" y="699" on="1"/>
        <pt x="324" y="699" on="1"/>
        <pt x="279" y="577" on="1"/>
        <pt x="169" y="287" on="1"/>
      </contour>
      <contour>
        <pt x="448" y="818" on="1"/>
        <pt x="448" y="864" on="0"/>
        <pt x="385" y="916" on="0"/>
        <pt x="327" y="916" on="1"/>
        <pt x="270" y="916" on="0"/>
        <pt x="206" y="864" on="0"/>
        <pt x="206" y="818" on="1"/>
        <pt x="162" y="818" on="1"/>
        <pt x="162" y="882" on="0"/>
        <pt x="248" y="956" on="0"/>
        <pt x="327" y="956" on="1"/>
        <pt x="406" y="956" on="0"/>
        <pt x="492" y="882" on="0"/>
        <pt x="492" y="818" on="1"/>
      </contour>
    </TTGlyph>
    <TTGlyph name="Ainvertedbreve.sc" xMin="17" yMin="0" xMax="570" yMax="749">
      <contour>
        <pt x="148" y="638" on="1"/>
        <pt x="148" y="689" on="0"/>
        <pt x="223" y="749" on="0"/>
        <pt x="294" y="749" on="1"/>
        <pt x="364" y="749" on="0"/>
        <pt x="439" y="689" on="0"/>
        <pt x="439" y="638" on="1"/>
        <pt x="397" y="638" on="1"/>
        <pt x="397" y="674" on="0"/>
        <pt x="344" y="713" on="0"/>
        <pt x="294" y="713" on="1"/>
        <pt x="243" y="713" on="0"/>
        <pt x="190" y="674" on="0"/>
        <pt x="190" y="638" on="1"/>
      </contour>
      <contour>
        <pt x="17" y="5" on="1"/>
        <pt x="255" y="577" on="1"/>
        <pt x="332" y="577" on="1"/>
        <pt x="570" y="5" on="1"/>
        <pt x="570" y="0" on="1"/>
        <pt x="519" y="0" on="1"/>
        <pt x="443" y="181" on="1"/>
        <pt x="144" y="181" on="1"/>
        <pt x="68" y="0" on="1"/>
        <pt x="17" y="0" on="1"/>
      </contour>
      <contour>
        <pt x="427" y="224" on="1"/>
        <pt x="335" y="444" on="1"/>
        <pt x="295" y="539" on="1"/>
        <pt x="290" y="539" on="1"/>
        <pt x="252" y="444" on="1"/>
        <pt x="158" y="224" on="1"/>
      </contour>
    </TTGlyph>
    <TTGlyph name="Amacron" xMin="10" yMin="0" xMax="643" yMax="886">
      <contour>
        <pt x="10" y="6" on="1"/>
        <pt x="287" y="740" on="1"/>
        <pt x="366" y="740" on="1"/>
        <pt x="643" y="6" on="1"/>
        <pt x="643" y="0" on="1"/>
        <pt x="591" y="0" on="1"/>
        <pt x="500" y="240" on="1"/>
        <pt x="152" y="240" on="1"/>
        <pt x="62" y="0" on="1"/>
        <pt x="10" y="0" on="1"/>
      </contour>
      <contour>
        <pt x="484" y="287" on="1"/>
        <pt x="374" y="577" on="1"/>
        <pt x="329" y="699" on="1"/>
        <pt x="324" y="699" on="1"/>
        <pt x="279" y="577" on="1"/>
        <pt x="169" y="287" on="1"/>
      </contour>
      <contour>
        <pt x="181" y="886" on="1"/>
        <pt x="471" y="886" on="1"/>
        <pt x="471" y="842" on="1"/>
        <pt x="181" y="842" on="1"/>
      </contour>
    </TTGlyph>
    <TTGlyph name="Amacron.sc" xMin="17" yMin="0" xMax="570" yMax="697">
      <contour>
        <pt x="17" y="5" on="1"/>
        <pt x="255" y="577" on="1"/>
        <pt x="332" y="577" on="1"/>
        <pt x="570" y="5" on="1"/>
        <pt x="570" y="0" on="1"/>
        <pt x="519" y="0" on="1"/>
        <pt x="443" y="181" on="1"/>
        <pt x="144" y="181" on="1"/>
        <pt x="68" y="0" on="1"/>
        <pt x="17" y="0" on="1"/>
      </contour>
      <contour>
        <pt x="427" y="224" on="1"/>
        <pt x="335" y="444" on="1"/>
        <pt x="295" y="539" on="1"/>
        <pt x="290" y="539" on="1"/>
        <pt x="252" y="444" on="1"/>
        <pt x="158" y="224" on="1"/>
      </contour>
      <contour>
        <pt x="164" y="697" on="1"/>
        <pt x="421" y="697" on="1"/>
        <pt x="421" y="657" on="1"/>
        <pt x="164" y="657" on="1"/>
      </contour>
    </TTGlyph>
    <TTGlyph name="Aogonek" xMin="10" yMin="-220" xMax="643" yMax="740">
      <contour>
        <pt x="574" y="-220" on="1"/>
        <pt x="485" y="-220" on="0"/>
        <pt x="485" y="-142" on="1"/>
        <pt x="485" y="-102" on="0"/>
        <pt x="536" y="-38" on="0"/>
        <pt x="601" y="0" on="1"/>
        <pt x="591" y="0" on="1"/>
        <pt x="500" y="240" on="1"/>
        <pt x="152" y="240" on="1"/>
        <pt x="62" y="0" on="1"/>
        <pt x="10" y="0" on="1"/>
        <pt x="10" y="6" on="1"/>
        <pt x="287" y="740" on="1"/>
        <pt x="366" y="740" on="1"/>
        <pt x="643" y="6" on="1"/>
        <pt x="643" y="-21" on="1"/>
        <pt x="582" y="-50" on="0"/>
        <pt x="528" y="-107" on="0"/>
        <pt x="528" y="-140" on="1"/>
        <pt x="528" y="-182" on="0"/>
        <pt x="580" y="-182" on="1"/>
        <pt x="594" y="-182" on="0"/>
        <pt x="626" y="-177" on="0"/>
        <pt x="642" y="-172" on="1"/>
        <pt x="642" y="-208" on="1"/>
        <pt x="628" y="-213" on="0"/>
        <pt x="592" y="-220" on="0"/>
      </contour>
      <contour>
        <pt x="484" y="287" on="1"/>
        <pt x="374" y="577" on="1"/>
        <pt x="329" y="699" on="1"/>
        <pt x="324" y="699" on="1"/>
        <pt x="279" y="577" on="1"/>
        <pt x="169" y="287" on="1"/>
      </contour>
    </TTGlyph>
    <TTGlyph name="Aogonek.sc" xMin="16" yMin="-169" xMax="569" yMax="577">
      <contour>
        <pt x="507" y="-169" on="1"/>
        <pt x="429" y="-169" on="0"/>
        <pt x="429" y="-107" on="1"/>
        <pt x="429" y="-77" on="0"/>
        <pt x="469" y="-30" on="0"/>
        <pt x="521" y="0" on="1"/>
        <pt x="517" y="0" on="1"/>
        <pt x="442" y="181" on="1"/>
        <pt x="143" y="181" on="1"/>
        <pt x="67" y="0" on="1"/>
        <pt x="16" y="0" on="1"/>
        <pt x="16" y="5" on="1"/>
        <pt x="254" y="577" on="1"/>
        <pt x="331" y="577" on="1"/>
        <pt x="569" y="5" on="1"/>
        <pt x="569" y="-13" on="1"/>
        <pt x="521" y="-33" on="0"/>
        <pt x="469" y="-76" on="0"/>
        <pt x="469" y="-103" on="1"/>
        <pt x="469" y="-121" on="0"/>
        <pt x="492" y="-135" on="0"/>
        <pt x="512" y="-135" on="1"/>
        <pt x="526" y="-135" on="0"/>
        <pt x="555" y="-131" on="0"/>
        <pt x="568" y="-126" on="1"/>
        <pt x="568" y="-159" on="1"/>
        <pt x="540" y="-169" on="0"/>
      </contour>
      <contour>
        <pt x="426" y="224" on="1"/>
        <pt x="334" y="448" on="1"/>
        <pt x="294" y="539" on="1"/>
        <pt x="289" y="539" on="1"/>
        <pt x="251" y="448" on="1"/>
        <pt x="157" y="224" on="1"/>
      </contour>
    </TTGlyph>
    <TTGlyph name="Aring" xMin="10" yMin="0" xMax="643" yMax="992">
      <contour>
        <pt x="10" y="6" on="1"/>
        <pt x="287" y="740" on="1"/>
        <pt x="366" y="740" on="1"/>
        <pt x="643" y="6" on="1"/>
        <pt x="643" y="0" on="1"/>
        <pt x="591" y="0" on="1"/>
        <pt x="500" y="240" on="1"/>
        <pt x="152" y="240" on="1"/>
        <pt x="62" y="0" on="1"/>
        <pt x="10" y="0" on="1"/>
      </contour>
      <contour>
        <pt x="484" y="287" on="1"/>
        <pt x="374" y="577" on="1"/>
        <pt x="329" y="699" on="1"/>
        <pt x="324" y="699" on="1"/>
        <pt x="279" y="577" on="1"/>
        <pt x="169" y="287" on="1"/>
      </contour>
      <contour>
        <pt x="328" y="781" on="1"/>
        <pt x="277" y="781" on="0"/>
        <pt x="214" y="841" on="0"/>
        <pt x="214" y="886" on="1"/>
        <pt x="214" y="908" on="0"/>
        <pt x="231" y="947" on="0"/>
        <pt x="261" y="976" on="0"/>
        <pt x="303" y="992" on="0"/>
        <pt x="328" y="992" on="1"/>
        <pt x="353" y="992" on="0"/>
        <pt x="395" y="976" on="0"/>
        <pt x="425" y="947" on="0"/>
        <pt x="442" y="908" on="0"/>
        <pt x="442" y="886" on="1"/>
        <pt x="442" y="863" on="0"/>
        <pt x="425" y="825" on="0"/>
        <pt x="395" y="797" on="0"/>
        <pt x="353" y="781" on="0"/>
      </contour>
      <contour>
        <pt x="328" y="818" on="1"/>
        <pt x="363" y="818" on="0"/>
        <pt x="403" y="854" on="0"/>
        <pt x="403" y="886" on="1"/>
        <pt x="403" y="918" on="0"/>
        <pt x="363" y="955" on="0"/>
        <pt x="328" y="955" on="1"/>
        <pt x="292" y="955" on="0"/>
        <pt x="253" y="918" on="0"/>
        <pt x="253" y="886" on="1"/>
        <pt x="253" y="854" on="0"/>
        <pt x="293" y="818" on="0"/>
      </contour>
    </TTGlyph>
    <TTGlyph name="Aring.sc" xMin="17" yMin="0" xMax="570" yMax="792">
      <contour>
        <pt x="17" y="5" on="1"/>
        <pt x="255" y="577" on="1"/>
        <pt x="332" y="577" on="1"/>
        <pt x="570" y="5" on="1"/>
        <pt x="570" y="0" on="1"/>
        <pt x="519" y="0" on="1"/>
        <pt x="443" y="181" on="1"/>
        <pt x="144" y="181" on="1"/>
        <pt x="68" y="0" on="1"/>
        <pt x="17" y="0" on="1"/>
      </contour>
      <contour>
        <pt x="427" y="224" on="1"/>
        <pt x="335" y="444" on="1"/>
        <pt x="295" y="539" on="1"/>
        <pt x="290" y="539" on="1"/>
        <pt x="252" y="444" on="1"/>
        <pt x="158" y="224" on="1"/>
      </contour>
      <contour>
        <pt x="295" y="625" on="1"/>
        <pt x="251" y="625" on="0"/>
        <pt x="194" y="672" on="0"/>
        <pt x="194" y="708" on="1"/>
        <pt x="194" y="743" on="0"/>
        <pt x="251" y="792" on="0"/>
        <pt x="295" y="792" on="1"/>
        <pt x="338" y="792" on="0"/>
        <pt x="394" y="743" on="0"/>
        <pt x="394" y="708" on="1"/>
        <pt x="394" y="672" on="0"/>
        <pt x="338" y="625" on="0"/>
      </contour>
      <contour>
        <pt x="295" y="656" on="1"/>
        <pt x="326" y="656" on="0"/>
        <pt x="359" y="684" on="0"/>
        <pt x="359" y="708" on="1"/>
        <pt x="359" y="732" on="0"/>
        <pt x="326" y="761" on="0"/>
        <pt x="295" y="761" on="1"/>
        <pt x="263" y="761" on="0"/>
        <pt x="229" y="732" on="0"/>
        <pt x="229" y="708" on="1"/>
        <pt x="229" y="684" on="0"/>
        <pt x="263" y="656" on="0"/>
      </contour>
    </TTGlyph>
    <TTGlyph name="Aringacute" xMin="11" yMin="0" xMax="643" yMax="955">
      <contour>
        <pt x="11" y="6" on="1"/>
        <pt x="257" y="657" on="1"/>
        <pt x="233" y="671" on="0"/>
        <pt x="205" y="717" on="0"/>
        <pt x="205" y="746" on="1"/>
        <pt x="205" y="789" on="0"/>
        <pt x="260" y="849" on="0"/>
        <pt x="305" y="855" on="1"/>
        <pt x="372" y="955" on="1"/>
        <pt x="427" y="955" on="1"/>
        <pt x="358" y="852" on="1"/>
        <pt x="397" y="843" on="0"/>
        <pt x="445" y="785" on="0"/>
        <pt x="445" y="746" on="1"/>
        <pt x="445" y="718" on="0"/>
        <pt x="420" y="673" on="0"/>
        <pt x="397" y="659" on="1"/>
        <pt x="643" y="6" on="1"/>
        <pt x="643" y="0" on="1"/>
        <pt x="592" y="0" on="1"/>
        <pt x="501" y="240" on="1"/>
        <pt x="153" y="240" on="1"/>
        <pt x="63" y="0" on="1"/>
        <pt x="11" y="0" on="1"/>
      </contour>
      <contour>
        <pt x="326" y="678" on="1"/>
        <pt x="361" y="678" on="0"/>
        <pt x="402" y="715" on="0"/>
        <pt x="402" y="746" on="1"/>
        <pt x="402" y="778" on="0"/>
        <pt x="361" y="817" on="0"/>
        <pt x="326" y="817" on="1"/>
        <pt x="289" y="817" on="0"/>
        <pt x="248" y="778" on="0"/>
        <pt x="248" y="746" on="1"/>
        <pt x="248" y="715" on="0"/>
        <pt x="290" y="678" on="0"/>
      </contour>
      <contour>
        <pt x="484" y="287" on="1"/>
        <pt x="375" y="577" on="1"/>
        <pt x="352" y="639" on="1"/>
        <pt x="302" y="638" on="1"/>
        <pt x="279" y="577" on="1"/>
        <pt x="170" y="287" on="1"/>
      </contour>
    </TTGlyph>
    <TTGlyph name="Aringacute.sc" xMin="18" yMin="0" xMax="570" yMax="751">
      <contour>
        <pt x="18" y="5" on="1"/>
        <pt x="229" y="514" on="1"/>
        <pt x="209" y="526" on="0"/>
        <pt x="185" y="562" on="0"/>
        <pt x="185" y="584" on="1"/>
        <pt x="185" y="619" on="0"/>
        <pt x="233" y="666" on="0"/>
        <pt x="274" y="671" on="1"/>
        <pt x="330" y="751" on="1"/>
        <pt x="383" y="751" on="1"/>
        <pt x="323" y="669" on="1"/>
        <pt x="358" y="661" on="0"/>
        <pt x="400" y="616" on="0"/>
        <pt x="400" y="584" on="1"/>
        <pt x="400" y="562" on="0"/>
        <pt x="378" y="527" on="0"/>
        <pt x="358" y="516" on="1"/>
        <pt x="570" y="5" on="1"/>
        <pt x="570" y="0" on="1"/>
        <pt x="520" y="0" on="1"/>
        <pt x="443" y="181" on="1"/>
        <pt x="144" y="181" on="1"/>
        <pt x="68" y="0" on="1"/>
        <pt x="18" y="0" on="1"/>
      </contour>
      <contour>
        <pt x="293" y="531" on="1"/>
        <pt x="324" y="531" on="0"/>
        <pt x="359" y="560" on="0"/>
        <pt x="359" y="584" on="1"/>
        <pt x="359" y="609" on="0"/>
        <pt x="324" y="638" on="0"/>
        <pt x="293" y="638" on="1"/>
        <pt x="261" y="638" on="0"/>
        <pt x="225" y="609" on="0"/>
        <pt x="225" y="584" on="1"/>
        <pt x="225" y="560" on="0"/>
        <pt x="261" y="531" on="0"/>
      </contour>
      <contour>
        <pt x="428" y="224" on="1"/>
        <pt x="335" y="444" on="1"/>
        <pt x="314" y="496" on="1"/>
        <pt x="273" y="496" on="1"/>
        <pt x="253" y="444" on="1"/>
        <pt x="159" y="224" on="1"/>
      </contour>
    </TTGlyph>
    <TTGlyph name="Atilde" xMin="10" yMin="0" xMax="643" yMax="918">
      <contour>
        <pt x="10" y="6" on="1"/>
        <pt x="287" y="740" on="1"/>
        <pt x="366" y="740" on="1"/>
        <pt x="643" y="6" on="1"/>
        <pt x="643" y="0" on="1"/>
        <pt x="591" y="0" on="1"/>
        <pt x="500" y="240" on="1"/>
        <pt x="152" y="240" on="1"/>
        <pt x="62" y="0" on="1"/>
        <pt x="10" y="0" on="1"/>
      </contour>
      <contour>
        <pt x="484" y="287" on="1"/>
        <pt x="374" y="577" on="1"/>
        <pt x="329" y="699" on="1"/>
        <pt x="324" y="699" on="1"/>
        <pt x="279" y="577" on="1"/>
        <pt x="169" y="287" on="1"/>
      </contour>
      <contour>
        <pt x="147" y="863" on="1"/>
        <pt x="173" y="889" on="0"/>
        <pt x="230" y="918" on="0"/>
        <pt x="259" y="918" on="1"/>
        <pt x="282" y="918" on="0"/>
        <pt x="321" y="905" on="0"/>
        <pt x="358" y="889" on="0"/>
        <pt x="395" y="876" on="0"/>
        <pt x="416" y="876" on="1"/>
        <pt x="461" y="876" on="0"/>
        <pt x="502" y="914" on="1"/>
        <pt x="527" y="890" on="1"/>
        <pt x="504" y="864" on="0"/>
        <pt x="442" y="833" on="0"/>
        <pt x="410" y="833" on="1"/>
        <pt x="389" y="833" on="0"/>
        <pt x="350" y="846" on="0"/>
        <pt x="313" y="862" on="0"/>
        <pt x="275" y="875" on="0"/>
        <pt x="256" y="875" on="1"/>
        <pt x="211" y="875" on="0"/>
        <pt x="171" y="838" on="1"/>
      </contour>
    </TTGlyph>
    <TTGlyph name="Atilde.sc" xMin="17" yMin="0" xMax="570" yMax="722">
      <contour>
        <pt x="17" y="5" on="1"/>
        <pt x="255" y="577" on="1"/>
        <pt x="332" y="577" on="1"/>
        <pt x="570" y="5" on="1"/>
        <pt x="570" y="0" on="1"/>
        <pt x="519" y="0" on="1"/>
        <pt x="443" y="181" on="1"/>
        <pt x="144" y="181" on="1"/>
        <pt x="68" y="0" on="1"/>
        <pt x="17" y="0" on="1"/>
      </contour>
      <contour>
        <pt x="427" y="224" on="1"/>
        <pt x="335" y="444" on="1"/>
        <pt x="295" y="539" on="1"/>
        <pt x="290" y="539" on="1"/>
        <pt x="252" y="444" on="1"/>
        <pt x="158" y="224" on="1"/>
      </contour>
      <contour>
        <pt x="136" y="673" on="1"/>
        <pt x="182" y="722" on="0"/>
        <pt x="235" y="722" on="1"/>
        <pt x="255" y="722" on="0"/>
        <pt x="290" y="712" on="0"/>
        <pt x="322" y="699" on="0"/>
        <pt x="354" y="689" on="0"/>
        <pt x="372" y="689" on="1"/>
        <pt x="413" y="689" on="0"/>
        <pt x="449" y="719" on="1"/>
        <pt x="470" y="699" on="1"/>
        <pt x="449" y="676" on="0"/>
        <pt x="395" y="650" on="0"/>
        <pt x="366" y="650" on="1"/>
        <pt x="348" y="650" on="0"/>
        <pt x="314" y="660" on="0"/>
        <pt x="280" y="672" on="0"/>
        <pt x="247" y="682" on="0"/>
        <pt x="231" y="682" on="1"/>
        <pt x="191" y="682" on="0"/>
        <pt x="156" y="653" on="1"/>
      </contour>
    </TTGlyph>
    <TTGlyph name="B" xMin="96" yMin="-10" xMax="589" yMax="749">
      <contour>
        <pt x="312" y="-10" on="1"/>
        <pt x="264" y="-10" on="0"/>
        <pt x="153" y="-3" on="0"/>
        <pt x="96" y="5" on="1"/>
        <pt x="96" y="735" on="1"/>
        <pt x="131" y="739" on="0"/>
        <pt x="189" y="744" on="0"/>
        <pt x="239" y="747" on="0"/>
        <pt x="283" y="749" on="0"/>
        <pt x="305" y="749" on="1"/>
        <pt x="374" y="749" on="0"/>
        <pt x="473" y="727" on="0"/>
        <pt x="535" y="679" on="0"/>
        <pt x="564" y="604" on="0"/>
        <pt x="564" y="552" on="1"/>
        <pt x="564" y="483" on="0"/>
        <pt x="495" y="389" on="0"/>
        <pt x="436" y="378" on="1"/>
        <pt x="436" y="374" on="1"/>
        <pt x="511" y="360" on="0"/>
        <pt x="589" y="267" on="0"/>
        <pt x="589" y="192" on="1"/>
        <pt x="589" y="-10" on="0"/>
      </contour>
      <contour>
        <pt x="312" y="34" on="1"/>
        <pt x="427" y="35" on="0"/>
        <pt x="537" y="112" on="0"/>
        <pt x="537" y="194" on="1"/>
        <pt x="537" y="353" on="0"/>
        <pt x="328" y="353" on="1"/>
        <pt x="147" y="353" on="1"/>
        <pt x="147" y="45" on="1"/>
        <pt x="173" y="40" on="0"/>
        <pt x="260" y="34" on="0"/>
      </contour>
      <contour>
        <pt x="325" y="397" on="1"/>
        <pt x="426" y="397" on="0"/>
        <pt x="513" y="468" on="0"/>
        <pt x="513" y="551" on="1"/>
        <pt x="513" y="592" on="0"/>
        <pt x="490" y="650" on="0"/>
        <pt x="441" y="687" on="0"/>
        <pt x="362" y="704" on="0"/>
        <pt x="306" y="704" on="1"/>
        <pt x="256" y="704" on="0"/>
        <pt x="181" y="700" on="0"/>
        <pt x="147" y="695" on="1"/>
        <pt x="147" y="397" on="1"/>
      </contour>
    </TTGlyph>
    <TTGlyph name="B.sc" xMin="90" yMin="-8" xMax="521" yMax="584">
      <contour>
        <pt x="280" y="-8" on="1"/>
        <pt x="238" y="-8" on="0"/>
        <pt x="141" y="-2" on="0"/>
        <pt x="90" y="4" on="1"/>
        <pt x="90" y="573" on="1"/>
        <pt x="151" y="579" on="0"/>
        <pt x="235" y="584" on="0"/>
        <pt x="273" y="584" on="1"/>
        <pt x="394" y="584" on="0"/>
        <pt x="500" y="512" on="0"/>
        <pt x="500" y="430" on="1"/>
        <pt x="500" y="377" on="0"/>
        <pt x="440" y="304" on="0"/>
        <pt x="389" y="295" on="1"/>
        <pt x="389" y="292" on="1"/>
        <pt x="453" y="281" on="0"/>
        <pt x="521" y="209" on="0"/>
        <pt x="521" y="150" on="1"/>
        <pt x="521" y="-8" on="0"/>
      </contour>
      <contour>
        <pt x="279" y="33" on="1"/>
        <pt x="377" y="33" on="0"/>
        <pt x="470" y="92" on="0"/>
        <pt x="470" y="153" on="1"/>
        <pt x="470" y="214" on="0"/>
        <pt x="385" y="273" on="0"/>
        <pt x="295" y="273" on="1"/>
        <pt x="139" y="273" on="1"/>
        <pt x="139" y="42" on="1"/>
        <pt x="162" y="37" on="0"/>
        <pt x="234" y="33" on="0"/>
      </contour>
      <contour>
        <pt x="292" y="312" on="1"/>
        <pt x="377" y="312" on="0"/>
        <pt x="450" y="365" on="0"/>
        <pt x="450" y="428" on="1"/>
        <pt x="450" y="490" on="0"/>
        <pt x="369" y="543" on="0"/>
        <pt x="274" y="543" on="1"/>
        <pt x="232" y="543" on="0"/>
        <pt x="168" y="540" on="0"/>
        <pt x="139" y="535" on="1"/>
        <pt x="139" y="312" on="1"/>
      </contour>
    </TTGlyph>
    <TTGlyph name="C" xMin="57" yMin="-8" xMax="540" yMax="749">
      <contour>
        <pt x="375" y="-8" on="1"/>
        <pt x="57" y="-8" on="0"/>
        <pt x="57" y="368" on="1"/>
        <pt x="57" y="749" on="0"/>
        <pt x="379" y="749" on="1"/>
        <pt x="412" y="749" on="0"/>
        <pt x="501" y="739" on="0"/>
        <pt x="540" y="731" on="1"/>
        <pt x="540" y="683" on="1"/>
        <pt x="497" y="692" on="0"/>
        <pt x="415" y="702" on="0"/>
        <pt x="383" y="702" on="1"/>
        <pt x="109" y="702" on="0"/>
        <pt x="109" y="369" on="1"/>
        <pt x="109" y="204" on="0"/>
        <pt x="242" y="39" on="0"/>
        <pt x="374" y="39" on="1"/>
        <pt x="390" y="39" on="0"/>
        <pt x="434" y="42" on="0"/>
        <pt x="480" y="48" on="0"/>
        <pt x="524" y="56" on="0"/>
        <pt x="540" y="60" on="1"/>
        <pt x="540" y="14" on="1"/>
        <pt x="523" y="9" on="0"/>
        <pt x="481" y="1" on="0"/>
        <pt x="437" y="-5" on="0"/>
        <pt x="393" y="-8" on="0"/>
      </contour>
    </TTGlyph>
    <TTGlyph name="C.sc" xMin="57" yMin="-7" xMax="477" yMax="584">
      <contour>
        <pt x="332" y="-7" on="1"/>
        <pt x="57" y="-5" on="0"/>
        <pt x="57" y="287" on="1"/>
        <pt x="57" y="584" on="0"/>
        <pt x="335" y="584" on="1"/>
        <pt x="365" y="584" on="0"/>
        <pt x="442" y="577" on="0"/>
        <pt x="477" y="570" on="1"/>
        <pt x="477" y="525" on="1"/>
        <pt x="439" y="532" on="0"/>
        <pt x="367" y="540" on="0"/>
        <pt x="339" y="540" on="1"/>
        <pt x="108" y="540" on="0"/>
        <pt x="108" y="288" on="1"/>
        <pt x="108" y="39" on="0"/>
        <pt x="332" y="39" on="1"/>
        <pt x="346" y="39" on="0"/>
        <pt x="385" y="42" on="0"/>
        <pt x="425" y="46" on="0"/>
        <pt x="463" y="51" on="0"/>
        <pt x="477" y="54" on="1"/>
        <pt x="477" y="11" on="1"/>
        <pt x="462" y="8" on="0"/>
        <pt x="425" y="1" on="0"/>
        <pt x="386" y="-4" on="0"/>
        <pt x="347" y="-7" on="0"/>
      </contour>
    </TTGlyph>
    <TTGlyph name="Cacute" xMin="57" yMin="-8" xMax="540" yMax="932">
      <contour>
        <pt x="375" y="-8" on="1"/>
        <pt x="57" y="-8" on="0"/>
        <pt x="57" y="368" on="1"/>
        <pt x="57" y="749" on="0"/>
        <pt x="379" y="749" on="1"/>
        <pt x="412" y="749" on="0"/>
        <pt x="501" y="739" on="0"/>
        <pt x="540" y="731" on="1"/>
        <pt x="540" y="683" on="1"/>
        <pt x="497" y="692" on="0"/>
        <pt x="415" y="702" on="0"/>
        <pt x="383" y="702" on="1"/>
        <pt x="109" y="702" on="0"/>
        <pt x="109" y="369" on="1"/>
        <pt x="109" y="204" on="0"/>
        <pt x="242" y="39" on="0"/>
        <pt x="374" y="39" on="1"/>
        <pt x="390" y="39" on="0"/>
        <pt x="434" y="42" on="0"/>
        <pt x="480" y="48" on="0"/>
        <pt x="524" y="56" on="0"/>
        <pt x="540" y="60" on="1"/>
        <pt x="540" y="14" on="1"/>
        <pt x="523" y="9" on="0"/>
        <pt x="481" y="1" on="0"/>
        <pt x="437" y="-5" on="0"/>
        <pt x="393" y="-8" on="0"/>
      </contour>
      <contour>
        <pt x="319" y="805" on="1"/>
        <pt x="396" y="932" on="1"/>
        <pt x="451" y="932" on="1"/>
        <pt x="362" y="799" on="1"/>
      </contour>
    </TTGlyph>
    <TTGlyph name="Cacute.sc" xMin="57" yMin="-7" xMax="477" yMax="732">
      <contour>
        <pt x="332" y="-7" on="1"/>
        <pt x="57" y="-5" on="0"/>
        <pt x="57" y="287" on="1"/>
        <pt x="57" y="584" on="0"/>
        <pt x="335" y="584" on="1"/>
        <pt x="364" y="584" on="0"/>
        <pt x="442" y="577" on="0"/>
        <pt x="477" y="570" on="1"/>
        <pt x="477" y="525" on="1"/>
        <pt x="437" y="532" on="0"/>
        <pt x="366" y="540" on="0"/>
        <pt x="339" y="540" on="1"/>
        <pt x="108" y="540" on="0"/>
        <pt x="108" y="288" on="1"/>
        <pt x="108" y="39" on="0"/>
        <pt x="332" y="39" on="1"/>
        <pt x="345" y="39" on="0"/>
        <pt x="384" y="42" on="0"/>
        <pt x="425" y="46" on="0"/>
        <pt x="463" y="51" on="0"/>
        <pt x="477" y="54" on="1"/>
        <pt x="477" y="11" on="1"/>
        <pt x="462" y="8" on="0"/>
        <pt x="424" y="1" on="0"/>
        <pt x="385" y="-4" on="0"/>
        <pt x="347" y="-7" on="0"/>
      </contour>
      <contour>
        <pt x="281" y="629" on="1"/>
        <pt x="347" y="732" on="1"/>
        <pt x="400" y="732" on="1"/>
        <pt x="322" y="625" on="1"/>
      </contour>
    </TTGlyph>
    <TTGlyph name="Ccaron" xMin="57" yMin="-8" xMax="540" yMax="935">
      <contour>
        <pt x="375" y="-8" on="1"/>
        <pt x="57" y="-8" on="0"/>
        <pt x="57" y="368" on="1"/>
        <pt x="57" y="749" on="0"/>
        <pt x="379" y="749" on="1"/>
        <pt x="412" y="749" on="0"/>
        <pt x="501" y="739" on="0"/>
        <pt x="540" y="731" on="1"/>
        <pt x="540" y="683" on="1"/>
        <pt x="497" y="692" on="0"/>
        <pt x="415" y="702" on="0"/>
        <pt x="383" y="702" on="1"/>
        <pt x="109" y="702" on="0"/>
        <pt x="109" y="369" on="1"/>
        <pt x="109" y="204" on="0"/>
        <pt x="242" y="39" on="0"/>
        <pt x="374" y="39" on="1"/>
        <pt x="390" y="39" on="0"/>
        <pt x="434" y="42" on="0"/>
        <pt x="480" y="48" on="0"/>
        <pt x="524" y="56" on="0"/>
        <pt x="540" y="60" on="1"/>
        <pt x="540" y="14" on="1"/>
        <pt x="523" y="9" on="0"/>
        <pt x="481" y="1" on="0"/>
        <pt x="437" y="-5" on="0"/>
        <pt x="393" y="-8" on="0"/>
      </contour>
      <contour>
        <pt x="197" y="935" on="1"/>
        <pt x="348" y="863" on="1"/>
        <pt x="498" y="935" on="1"/>
        <pt x="498" y="885" on="1"/>
        <pt x="347" y="812" on="1"/>
        <pt x="197" y="885" on="1"/>
      </contour>
    </TTGlyph>
    <TTGlyph name="Ccaron.sc" xMin="57" yMin="-7" xMax="477" yMax="735">
      <contour>
        <pt x="332" y="-7" on="1"/>
        <pt x="57" y="-5" on="0"/>
        <pt x="57" y="287" on="1"/>
        <pt x="57" y="584" on="0"/>
        <pt x="335" y="584" on="1"/>
        <pt x="364" y="584" on="0"/>
        <pt x="442" y="577" on="0"/>
        <pt x="477" y="570" on="1"/>
        <pt x="477" y="525" on="1"/>
        <pt x="437" y="532" on="0"/>
        <pt x="366" y="540" on="0"/>
        <pt x="339" y="540" on="1"/>
        <pt x="108" y="540" on="0"/>
        <pt x="108" y="288" on="1"/>
        <pt x="108" y="39" on="0"/>
        <pt x="332" y="39" on="1"/>
        <pt x="345" y="39" on="0"/>
        <pt x="384" y="42" on="0"/>
        <pt x="425" y="46" on="0"/>
        <pt x="463" y="51" on="0"/>
        <pt x="477" y="54" on="1"/>
        <pt x="477" y="11" on="1"/>
        <pt x="462" y="8" on="0"/>
        <pt x="424" y="1" on="0"/>
        <pt x="385" y="-4" on="0"/>
        <pt x="347" y="-7" on="0"/>
      </contour>
      <contour>
        <pt x="176" y="735" on="1"/>
        <pt x="308" y="678" on="1"/>
        <pt x="440" y="735" on="1"/>
        <pt x="440" y="690" on="1"/>
        <pt x="308" y="633" on="1"/>
        <pt x="176" y="690" on="1"/>
      </contour>
    </TTGlyph>
    <TTGlyph name="Ccedilla" xMin="57" yMin="-220" xMax="540" yMax="749">
      <contour>
        <pt x="300" y="-220" on="1"/>
        <pt x="283" y="-220" on="0"/>
        <pt x="241" y="-214" on="0"/>
        <pt x="221" y="-208" on="1"/>
        <pt x="221" y="-166" on="1"/>
        <pt x="241" y="-172" on="0"/>
        <pt x="272" y="-177" on="0"/>
        <pt x="288" y="-177" on="1"/>
        <pt x="333" y="-177" on="0"/>
        <pt x="370" y="-143" on="0"/>
        <pt x="370" y="-105" on="1"/>
        <pt x="370" y="-82" on="0"/>
        <pt x="356" y="-38" on="0"/>
        <pt x="338" y="-6" on="1"/>
        <pt x="197" y="4" on="0"/>
        <pt x="57" y="191" on="0"/>
        <pt x="57" y="368" on="1"/>
        <pt x="57" y="749" on="0"/>
        <pt x="379" y="749" on="1"/>
        <pt x="412" y="749" on="0"/>
        <pt x="501" y="739" on="0"/>
        <pt x="540" y="731" on="1"/>
        <pt x="540" y="683" on="1"/>
        <pt x="497" y="692" on="0"/>
        <pt x="415" y="702" on="0"/>
        <pt x="383" y="702" on="1"/>
        <pt x="109" y="702" on="0"/>
        <pt x="109" y="369" on="1"/>
        <pt x="109" y="204" on="0"/>
        <pt x="242" y="39" on="0"/>
        <pt x="374" y="39" on="1"/>
        <pt x="390" y="39" on="0"/>
        <pt x="434" y="42" on="0"/>
        <pt x="480" y="48" on="0"/>
        <pt x="524" y="56" on="0"/>
        <pt x="540" y="60" on="1"/>
        <pt x="540" y="14" on="1"/>
        <pt x="525" y="10" on="0"/>
        <pt x="486" y="3" on="0"/>
        <pt x="444" y="-3" on="0"/>
        <pt x="403" y="-7" on="0"/>
        <pt x="385" y="-8" on="1"/>
        <pt x="404" y="-43" on="0"/>
        <pt x="417" y="-85" on="0"/>
        <pt x="417" y="-106" on="1"/>
        <pt x="417" y="-161" on="0"/>
        <pt x="357" y="-220" on="0"/>
      </contour>
    </TTGlyph>
    <TTGlyph name="Ccedilla.sc" xMin="57" yMin="-172" xMax="477" yMax="584">
      <contour>
        <pt x="270" y="-172" on="1"/>
        <pt x="255" y="-172" on="0"/>
        <pt x="218" y="-167" on="0"/>
        <pt x="199" y="-162" on="1"/>
        <pt x="199" y="-125" on="1"/>
        <pt x="213" y="-129" on="0"/>
        <pt x="240" y="-133" on="0"/>
        <pt x="257" y="-133" on="1"/>
        <pt x="296" y="-133" on="0"/>
        <pt x="327" y="-106" on="0"/>
        <pt x="327" y="-75" on="1"/>
        <pt x="327" y="-61" on="0"/>
        <pt x="316" y="-32" on="0"/>
        <pt x="301" y="-6" on="1"/>
        <pt x="57" y="9" on="0"/>
        <pt x="57" y="287" on="1"/>
        <pt x="57" y="584" on="0"/>
        <pt x="335" y="584" on="1"/>
        <pt x="364" y="584" on="0"/>
        <pt x="442" y="577" on="0"/>
        <pt x="477" y="570" on="1"/>
        <pt x="477" y="525" on="1"/>
        <pt x="437" y="532" on="0"/>
        <pt x="366" y="540" on="0"/>
        <pt x="339" y="540" on="1"/>
        <pt x="108" y="540" on="0"/>
        <pt x="108" y="288" on="1"/>
        <pt x="108" y="39" on="0"/>
        <pt x="332" y="39" on="1"/>
        <pt x="346" y="39" on="0"/>
        <pt x="385" y="42" on="0"/>
        <pt x="425" y="46" on="0"/>
        <pt x="463" y="51" on="0"/>
        <pt x="477" y="54" on="1"/>
        <pt x="477" y="11" on="1"/>
        <pt x="450" y="4" on="0"/>
        <pt x="374" y="-5" on="0"/>
        <pt x="344" y="-6" on="1"/>
        <pt x="358" y="-33" on="0"/>
        <pt x="370" y="-66" on="0"/>
        <pt x="370" y="-82" on="1"/>
        <pt x="370" y="-126" on="0"/>
        <pt x="319" y="-172" on="0"/>
      </contour>
    </TTGlyph>
    <TTGlyph name="Ccircumflex" xMin="57" yMin="-8" xMax="540" yMax="940">
      <contour>
        <pt x="375" y="-8" on="1"/>
        <pt x="57" y="-8" on="0"/>
        <pt x="57" y="368" on="1"/>
        <pt x="57" y="749" on="0"/>
        <pt x="379" y="749" on="1"/>
        <pt x="412" y="749" on="0"/>
        <pt x="501" y="739" on="0"/>
        <pt x="540" y="731" on="1"/>
        <pt x="540" y="683" on="1"/>
        <pt x="497" y="692" on="0"/>
        <pt x="415" y="702" on="0"/>
        <pt x="383" y="702" on="1"/>
        <pt x="109" y="702" on="0"/>
        <pt x="109" y="369" on="1"/>
        <pt x="109" y="204" on="0"/>
        <pt x="242" y="39" on="0"/>
        <pt x="374" y="39" on="1"/>
        <pt x="390" y="39" on="0"/>
        <pt x="434" y="42" on="0"/>
        <pt x="480" y="48" on="0"/>
        <pt x="524" y="56" on="0"/>
        <pt x="540" y="60" on="1"/>
        <pt x="540" y="14" on="1"/>
        <pt x="523" y="9" on="0"/>
        <pt x="481" y="1" on="0"/>
        <pt x="437" y="-5" on="0"/>
        <pt x="393" y="-8" on="0"/>
      </contour>
      <contour>
        <pt x="196" y="867" on="1"/>
        <pt x="347" y="940" on="1"/>
        <pt x="497" y="867" on="1"/>
        <pt x="497" y="817" on="1"/>
        <pt x="347" y="889" on="1"/>
        <pt x="196" y="817" on="1"/>
      </contour>
    </TTGlyph>
    <TTGlyph name="Ccircumflex.sc" xMin="57" yMin="-7" xMax="477" yMax="738">
      <contour>
        <pt x="332" y="-7" on="1"/>
        <pt x="57" y="-5" on="0"/>
        <pt x="57" y="287" on="1"/>
        <pt x="57" y="584" on="0"/>
        <pt x="335" y="584" on="1"/>
        <pt x="364" y="584" on="0"/>
        <pt x="442" y="577" on="0"/>
        <pt x="477" y="570" on="1"/>
        <pt x="477" y="525" on="1"/>
        <pt x="437" y="532" on="0"/>
        <pt x="366" y="540" on="0"/>
        <pt x="339" y="540" on="1"/>
        <pt x="108" y="540" on="0"/>
        <pt x="108" y="288" on="1"/>
        <pt x="108" y="39" on="0"/>
        <pt x="332" y="39" on="1"/>
        <pt x="345" y="39" on="0"/>
        <pt x="384" y="42" on="0"/>
        <pt x="425" y="46" on="0"/>
        <pt x="463" y="51" on="0"/>
        <pt x="477" y="54" on="1"/>
        <pt x="477" y="11" on="1"/>
        <pt x="462" y="8" on="0"/>
        <pt x="424" y="1" on="0"/>
        <pt x="385" y="-4" on="0"/>
        <pt x="347" y="-7" on="0"/>
      </contour>
      <contour>
        <pt x="174" y="680" on="1"/>
        <pt x="307" y="738" on="1"/>
        <pt x="440" y="680" on="1"/>
        <pt x="440" y="636" on="1"/>
        <pt x="307" y="692" on="1"/>
        <pt x="174" y="636" on="1"/>
      </contour>
    </TTGlyph>
    <TTGlyph name="Cdotaccent" xMin="57" yMin="-8" xMax="540" yMax="898">
      <contour>
        <pt x="348" y="818" on="1"/>
        <pt x="330" y="818" on="0"/>
        <pt x="309" y="837" on="0"/>
        <pt x="309" y="858" on="1"/>
        <pt x="309" y="878" on="0"/>
        <pt x="330" y="898" on="0"/>
        <pt x="348" y="898" on="1"/>
        <pt x="365" y="898" on="0"/>
        <pt x="389" y="879" on="0"/>
        <pt x="389" y="858" on="1"/>
        <pt x="389" y="837" on="0"/>
        <pt x="365" y="818" on="0"/>
      </contour>
      <contour>
        <pt x="375" y="-8" on="1"/>
        <pt x="57" y="-8" on="0"/>
        <pt x="57" y="368" on="1"/>
        <pt x="57" y="749" on="0"/>
        <pt x="379" y="749" on="1"/>
        <pt x="412" y="749" on="0"/>
        <pt x="501" y="739" on="0"/>
        <pt x="540" y="731" on="1"/>
        <pt x="540" y="683" on="1"/>
        <pt x="497" y="692" on="0"/>
        <pt x="415" y="702" on="0"/>
        <pt x="383" y="702" on="1"/>
        <pt x="109" y="702" on="0"/>
        <pt x="109" y="369" on="1"/>
        <pt x="109" y="204" on="0"/>
        <pt x="242" y="39" on="0"/>
        <pt x="374" y="39" on="1"/>
        <pt x="390" y="39" on="0"/>
        <pt x="434" y="42" on="0"/>
        <pt x="480" y="48" on="0"/>
        <pt x="524" y="56" on="0"/>
        <pt x="540" y="60" on="1"/>
        <pt x="540" y="14" on="1"/>
        <pt x="523" y="9" on="0"/>
        <pt x="481" y="1" on="0"/>
        <pt x="437" y="-5" on="0"/>
        <pt x="393" y="-8" on="0"/>
      </contour>
    </TTGlyph>
    <TTGlyph name="Cdotaccent.sc" xMin="57" yMin="-7" xMax="477" yMax="709">
      <contour>
        <pt x="332" y="-7" on="1"/>
        <pt x="57" y="-5" on="0"/>
        <pt x="57" y="287" on="1"/>
        <pt x="57" y="584" on="0"/>
        <pt x="335" y="584" on="1"/>
        <pt x="364" y="584" on="0"/>
        <pt x="442" y="577" on="0"/>
        <pt x="477" y="570" on="1"/>
        <pt x="477" y="525" on="1"/>
        <pt x="437" y="532" on="0"/>
        <pt x="366" y="540" on="0"/>
        <pt x="339" y="540" on="1"/>
        <pt x="108" y="540" on="0"/>
        <pt x="108" y="288" on="1"/>
        <pt x="108" y="39" on="0"/>
        <pt x="332" y="39" on="1"/>
        <pt x="345" y="39" on="0"/>
        <pt x="384" y="42" on="0"/>
        <pt x="425" y="46" on="0"/>
        <pt x="463" y="51" on="0"/>
        <pt x="477" y="54" on="1"/>
        <pt x="477" y="11" on="1"/>
        <pt x="462" y="8" on="0"/>
        <pt x="424" y="1" on="0"/>
        <pt x="385" y="-4" on="0"/>
        <pt x="347" y="-7" on="0"/>
      </contour>
      <contour>
        <pt x="310" y="638" on="1"/>
        <pt x="292" y="638" on="0"/>
        <pt x="273" y="654" on="0"/>
        <pt x="273" y="674" on="1"/>
        <pt x="273" y="709" on="0"/>
        <pt x="310" y="709" on="1"/>
        <pt x="327" y="709" on="0"/>
        <pt x="347" y="692" on="0"/>
        <pt x="347" y="674" on="1"/>
        <pt x="347" y="655" on="0"/>
        <pt x="327" y="638" on="0"/>
      </contour>
    </TTGlyph>
    <TTGlyph name="D" xMin="96" yMin="-11" xMax="652" yMax="749">
      <contour>
        <pt x="271" y="-11" on="1"/>
        <pt x="214" y="-11" on="0"/>
        <pt x="119" y="-4" on="0"/>
        <pt x="96" y="4" on="1"/>
        <pt x="96" y="737" on="1"/>
        <pt x="116" y="740" on="0"/>
        <pt x="167" y="744" on="0"/>
        <pt x="219" y="747" on="0"/>
        <pt x="267" y="749" on="0"/>
        <pt x="285" y="749" on="1"/>
        <pt x="474" y="749" on="0"/>
        <pt x="652" y="565" on="0"/>
        <pt x="652" y="370" on="1"/>
        <pt x="652" y="272" on="0"/>
        <pt x="607" y="128" on="0"/>
        <pt x="513" y="34" on="0"/>
        <pt x="370" y="-11" on="0"/>
      </contour>
      <contour>
        <pt x="280" y="36" on="1"/>
        <pt x="443" y="36" on="0"/>
        <pt x="599" y="199" on="0"/>
        <pt x="599" y="370" on="1"/>
        <pt x="599" y="542" on="0"/>
        <pt x="448" y="701" on="0"/>
        <pt x="287" y="701" on="1"/>
        <pt x="273" y="701" on="0"/>
        <pt x="237" y="700" on="0"/>
        <pt x="199" y="697" on="0"/>
        <pt x="163" y="694" on="0"/>
        <pt x="148" y="693" on="1"/>
        <pt x="148" y="45" on="1"/>
        <pt x="188" y="40" on="0"/>
        <pt x="245" y="36" on="0"/>
      </contour>
    </TTGlyph>
    <TTGlyph name="D.sc" xMin="90" yMin="-8" xMax="577" yMax="584">
      <contour>
        <pt x="249" y="-8" on="1"/>
        <pt x="197" y="-8" on="0"/>
        <pt x="111" y="-2" on="0"/>
        <pt x="90" y="4" on="1"/>
        <pt x="90" y="576" on="1"/>
        <pt x="108" y="577" on="0"/>
        <pt x="152" y="580" on="0"/>
        <pt x="198" y="583" on="0"/>
        <pt x="241" y="584" on="0"/>
        <pt x="256" y="584" on="1"/>
        <pt x="422" y="584" on="0"/>
        <pt x="577" y="442" on="0"/>
        <pt x="577" y="289" on="1"/>
        <pt x="577" y="135" on="0"/>
        <pt x="418" y="-8" on="0"/>
      </contour>
      <contour>
        <pt x="256" y="36" on="1"/>
        <pt x="395" y="36" on="0"/>
        <pt x="525" y="158" on="0"/>
        <pt x="525" y="289" on="1"/>
        <pt x="525" y="419" on="0"/>
        <pt x="398" y="539" on="0"/>
        <pt x="259" y="539" on="1"/>
        <pt x="236" y="539" on="0"/>
        <pt x="166" y="535" on="0"/>
        <pt x="140" y="533" on="1"/>
        <pt x="140" y="43" on="1"/>
        <pt x="158" y="41" on="0"/>
        <pt x="186" y="38" on="0"/>
        <pt x="213" y="37" on="0"/>
        <pt x="240" y="36" on="0"/>
      </contour>
    </TTGlyph>
    <TTGlyph name="Dcaron" xMin="96" yMin="-11" xMax="652" yMax="935">
      <contour>
        <pt x="172" y="935" on="1"/>
        <pt x="323" y="863" on="1"/>
        <pt x="473" y="935" on="1"/>
        <pt x="473" y="885" on="1"/>
        <pt x="322" y="812" on="1"/>
        <pt x="172" y="885" on="1"/>
      </contour>
      <contour>
        <pt x="271" y="-11" on="1"/>
        <pt x="214" y="-11" on="0"/>
        <pt x="119" y="-4" on="0"/>
        <pt x="96" y="4" on="1"/>
        <pt x="96" y="737" on="1"/>
        <pt x="116" y="740" on="0"/>
        <pt x="167" y="744" on="0"/>
        <pt x="219" y="747" on="0"/>
        <pt x="267" y="749" on="0"/>
        <pt x="285" y="749" on="1"/>
        <pt x="474" y="749" on="0"/>
        <pt x="652" y="565" on="0"/>
        <pt x="652" y="370" on="1"/>
        <pt x="652" y="272" on="0"/>
        <pt x="607" y="128" on="0"/>
        <pt x="513" y="34" on="0"/>
        <pt x="370" y="-11" on="0"/>
      </contour>
      <contour>
        <pt x="280" y="36" on="1"/>
        <pt x="443" y="36" on="0"/>
        <pt x="599" y="199" on="0"/>
        <pt x="599" y="370" on="1"/>
        <pt x="599" y="542" on="0"/>
        <pt x="448" y="701" on="0"/>
        <pt x="287" y="701" on="1"/>
        <pt x="273" y="701" on="0"/>
        <pt x="237" y="700" on="0"/>
        <pt x="199" y="697" on="0"/>
        <pt x="163" y="694" on="0"/>
        <pt x="148" y="693" on="1"/>
        <pt x="148" y="45" on="1"/>
        <pt x="188" y="40" on="0"/>
        <pt x="245" y="36" on="0"/>
      </contour>
    </TTGlyph>
    <TTGlyph name="Dcaron.sc" xMin="90" yMin="-8" xMax="577" yMax="735">
      <contour>
        <pt x="249" y="-8" on="1"/>
        <pt x="197" y="-8" on="0"/>
        <pt x="111" y="-2" on="0"/>
        <pt x="90" y="4" on="1"/>
        <pt x="90" y="576" on="1"/>
        <pt x="108" y="577" on="0"/>
        <pt x="152" y="580" on="0"/>
        <pt x="198" y="583" on="0"/>
        <pt x="241" y="584" on="0"/>
        <pt x="256" y="584" on="1"/>
        <pt x="422" y="584" on="0"/>
        <pt x="577" y="442" on="0"/>
        <pt x="577" y="289" on="1"/>
        <pt x="577" y="135" on="0"/>
        <pt x="418" y="-8" on="0"/>
      </contour>
      <contour>
        <pt x="256" y="36" on="1"/>
        <pt x="395" y="36" on="0"/>
        <pt x="525" y="158" on="0"/>
        <pt x="525" y="289" on="1"/>
        <pt x="525" y="419" on="0"/>
        <pt x="398" y="539" on="0"/>
        <pt x="259" y="539" on="1"/>
        <pt x="236" y="539" on="0"/>
        <pt x="166" y="535" on="0"/>
        <pt x="140" y="533" on="1"/>
        <pt x="140" y="43" on="1"/>
        <pt x="158" y="41" on="0"/>
        <pt x="186" y="38" on="0"/>
        <pt x="213" y="37" on="0"/>
        <pt x="240" y="36" on="0"/>
      </contour>
      <contour>
        <pt x="158" y="690" on="1"/>
        <pt x="158" y="735" on="1"/>
        <pt x="290" y="678" on="1"/>
        <pt x="423" y="735" on="1"/>
        <pt x="423" y="690" on="1"/>
        <pt x="290" y="633" on="1"/>
      </contour>
    </TTGlyph>
    <TTGlyph name="Dcroat" xMin="5" yMin="-11" xMax="659" yMax="749">
      <contour>
        <pt x="5" y="392" on="1"/>
        <pt x="103" y="392" on="1"/>
        <pt x="103" y="737" on="1"/>
        <pt x="123" y="740" on="0"/>
        <pt x="174" y="744" on="0"/>
        <pt x="226" y="747" on="0"/>
        <pt x="274" y="749" on="0"/>
        <pt x="292" y="749" on="1"/>
        <pt x="481" y="749" on="0"/>
        <pt x="659" y="565" on="0"/>
        <pt x="659" y="370" on="1"/>
        <pt x="659" y="272" on="0"/>
        <pt x="614" y="128" on="0"/>
        <pt x="520" y="34" on="0"/>
        <pt x="377" y="-11" on="0"/>
        <pt x="278" y="-11" on="1"/>
        <pt x="221" y="-11" on="0"/>
        <pt x="126" y="-4" on="0"/>
        <pt x="103" y="4" on="1"/>
        <pt x="103" y="346" on="1"/>
        <pt x="5" y="346" on="1"/>
      </contour>
      <contour>
        <pt x="287" y="36" on="1"/>
        <pt x="450" y="36" on="0"/>
        <pt x="606" y="199" on="0"/>
        <pt x="606" y="370" on="1"/>
        <pt x="606" y="542" on="0"/>
        <pt x="455" y="701" on="0"/>
        <pt x="294" y="701" on="1"/>
        <pt x="280" y="701" on="0"/>
        <pt x="244" y="700" on="0"/>
        <pt x="206" y="697" on="0"/>
        <pt x="170" y="694" on="0"/>
        <pt x="155" y="693" on="1"/>
        <pt x="155" y="392" on="1"/>
        <pt x="360" y="392" on="1"/>
        <pt x="360" y="346" on="1"/>
        <pt x="155" y="346" on="1"/>
        <pt x="155" y="45" on="1"/>
        <pt x="195" y="40" on="0"/>
        <pt x="252" y="36" on="0"/>
      </contour>
    </TTGlyph>
    <TTGlyph name="Dcroat.sc" xMin="13" yMin="-8" xMax="584" yMax="584">
      <contour>
        <pt x="13" y="309" on="1"/>
        <pt x="98" y="309" on="1"/>
        <pt x="98" y="576" on="1"/>
        <pt x="116" y="577" on="0"/>
        <pt x="160" y="580" on="0"/>
        <pt x="206" y="583" on="0"/>
        <pt x="249" y="584" on="0"/>
        <pt x="264" y="584" on="1"/>
        <pt x="429" y="584" on="0"/>
        <pt x="584" y="441" on="0"/>
        <pt x="584" y="289" on="1"/>
        <pt x="584" y="212" on="0"/>
        <pt x="545" y="100" on="0"/>
        <pt x="464" y="27" on="0"/>
        <pt x="338" y="-8" on="0"/>
        <pt x="252" y="-8" on="1"/>
        <pt x="201" y="-8" on="0"/>
        <pt x="118" y="-2" on="0"/>
        <pt x="98" y="4" on="1"/>
        <pt x="98" y="266" on="1"/>
        <pt x="13" y="266" on="1"/>
      </contour>
      <contour>
        <pt x="263" y="36" on="1"/>
        <pt x="402" y="36" on="0"/>
        <pt x="532" y="158" on="0"/>
        <pt x="532" y="289" on="1"/>
        <pt x="532" y="419" on="0"/>
        <pt x="405" y="539" on="0"/>
        <pt x="267" y="539" on="1"/>
        <pt x="243" y="539" on="0"/>
        <pt x="174" y="535" on="0"/>
        <pt x="148" y="533" on="1"/>
        <pt x="148" y="309" on="1"/>
        <pt x="322" y="309" on="1"/>
        <pt x="322" y="266" on="1"/>
        <pt x="148" y="266" on="1"/>
        <pt x="148" y="43" on="1"/>
        <pt x="183" y="39" on="0"/>
        <pt x="232" y="36" on="0"/>
      </contour>
    </TTGlyph>
    <TTGlyph name="Ddotbelow" xMin="96" yMin="-172" xMax="652" yMax="749">
      <contour>
        <pt x="333" y="-172" on="1"/>
        <pt x="314" y="-172" on="0"/>
        <pt x="292" y="-154" on="0"/>
        <pt x="292" y="-131" on="1"/>
        <pt x="292" y="-109" on="0"/>
        <pt x="314" y="-90" on="0"/>
        <pt x="333" y="-90" on="1"/>
        <pt x="352" y="-90" on="0"/>
        <pt x="375" y="-108" on="0"/>
        <pt x="375" y="-131" on="1"/>
        <pt x="375" y="-154" on="0"/>
        <pt x="352" y="-172" on="0"/>
      </contour>
      <contour>
        <pt x="271" y="-11" on="1"/>
        <pt x="214" y="-11" on="0"/>
        <pt x="119" y="-4" on="0"/>
        <pt x="96" y="4" on="1"/>
        <pt x="96" y="737" on="1"/>
        <pt x="116" y="740" on="0"/>
        <pt x="167" y="744" on="0"/>
        <pt x="219" y="747" on="0"/>
        <pt x="267" y="749" on="0"/>
        <pt x="285" y="749" on="1"/>
        <pt x="474" y="749" on="0"/>
        <pt x="652" y="565" on="0"/>
        <pt x="652" y="370" on="1"/>
        <pt x="652" y="272" on="0"/>
        <pt x="607" y="128" on="0"/>
        <pt x="513" y="34" on="0"/>
        <pt x="370" y="-11" on="0"/>
      </contour>
      <contour>
        <pt x="280" y="36" on="1"/>
        <pt x="443" y="36" on="0"/>
        <pt x="599" y="199" on="0"/>
        <pt x="599" y="370" on="1"/>
        <pt x="599" y="542" on="0"/>
        <pt x="448" y="701" on="0"/>
        <pt x="287" y="701" on="1"/>
        <pt x="273" y="701" on="0"/>
        <pt x="237" y="700" on="0"/>
        <pt x="199" y="697" on="0"/>
        <pt x="163" y="694" on="0"/>
        <pt x="148" y="693" on="1"/>
        <pt x="148" y="45" on="1"/>
        <pt x="188" y="40" on="0"/>
        <pt x="245" y="36" on="0"/>
      </contour>
    </TTGlyph>
    <TTGlyph name="Ddotbelow.sc" xMin="90" yMin="-138" xMax="577" yMax="584">
      <contour>
        <pt x="249" y="-8" on="1"/>
        <pt x="197" y="-8" on="0"/>
        <pt x="111" y="-2" on="0"/>
        <pt x="90" y="4" on="1"/>
        <pt x="90" y="576" on="1"/>
        <pt x="108" y="577" on="0"/>
        <pt x="152" y="580" on="0"/>
        <pt x="198" y="583" on="0"/>
        <pt x="241" y="584" on="0"/>
        <pt x="256" y="584" on="1"/>
        <pt x="422" y="584" on="0"/>
        <pt x="577" y="442" on="0"/>
        <pt x="577" y="289" on="1"/>
        <pt x="577" y="135" on="0"/>
        <pt x="418" y="-8" on="0"/>
      </contour>
      <contour>
        <pt x="256" y="36" on="1"/>
        <pt x="395" y="36" on="0"/>
        <pt x="525" y="158" on="0"/>
        <pt x="525" y="289" on="1"/>
        <pt x="525" y="419" on="0"/>
        <pt x="398" y="539" on="0"/>
        <pt x="259" y="539" on="1"/>
        <pt x="236" y="539" on="0"/>
        <pt x="166" y="535" on="0"/>
        <pt x="140" y="533" on="1"/>
        <pt x="140" y="43" on="1"/>
        <pt x="158" y="41" on="0"/>
        <pt x="186" y="38" on="0"/>
        <pt x="213" y="37" on="0"/>
        <pt x="240" y="36" on="0"/>
      </contour>
      <contour>
        <pt x="300" y="-138" on="1"/>
        <pt x="262" y="-138" on="0"/>
        <pt x="262" y="-103" on="1"/>
        <pt x="262" y="-68" on="0"/>
        <pt x="300" y="-68" on="1"/>
        <pt x="317" y="-68" on="0"/>
        <pt x="337" y="-84" on="0"/>
        <pt x="337" y="-103" on="1"/>
        <pt x="337" y="-122" on="0"/>
        <pt x="317" y="-138" on="0"/>
      </contour>
    </TTGlyph>
    <TTGlyph name="Delta" xMin="26" yMin="0" xMax="682" yMax="740">
      <contour>
        <pt x="322" y="740" on="1"/>
        <pt x="386" y="740" on="1"/>
        <pt x="682" y="0" on="1"/>
        <pt x="26" y="0" on="1"/>
      </contour>
      <contour>
        <pt x="612" y="46" on="1"/>
        <pt x="354" y="691" on="1"/>
        <pt x="95" y="46" on="1"/>
      </contour>
    </TTGlyph>
    <TTGlyph name="E" xMin="96" yMin="0" xMax="544" yMax="740">
      <contour>
        <pt x="96" y="740" on="1"/>
        <pt x="536" y="740" on="1"/>
        <pt x="536" y="693" on="1"/>
        <pt x="148" y="693" on="1"/>
        <pt x="148" y="400" on="1"/>
        <pt x="513" y="400" on="1"/>
        <pt x="513" y="353" on="1"/>
        <pt x="148" y="353" on="1"/>
        <pt x="148" y="47" on="1"/>
        <pt x="544" y="47" on="1"/>
        <pt x="544" y="0" on="1"/>
        <pt x="96" y="0" on="1"/>
      </contour>
    </TTGlyph>
    <TTGlyph name="E.sc" xMin="91" yMin="0" xMax="483" yMax="577">
      <contour>
        <pt x="91" y="577" on="1"/>
        <pt x="476" y="577" on="1"/>
        <pt x="476" y="534" on="1"/>
        <pt x="141" y="534" on="1"/>
        <pt x="141" y="315" on="1"/>
        <pt x="456" y="315" on="1"/>
        <pt x="456" y="273" on="1"/>
        <pt x="141" y="273" on="1"/>
        <pt x="141" y="43" on="1"/>
        <pt x="483" y="43" on="1"/>
        <pt x="483" y="0" on="1"/>
        <pt x="91" y="0" on="1"/>
      </contour>
    </TTGlyph>
    <TTGlyph name="Eacute" xMin="96" yMin="0" xMax="544" yMax="932">
      <contour>
        <pt x="290" y="805" on="1"/>
        <pt x="367" y="932" on="1"/>
        <pt x="422" y="932" on="1"/>
        <pt x="333" y="799" on="1"/>
      </contour>
      <contour>
        <pt x="96" y="740" on="1"/>
        <pt x="536" y="740" on="1"/>
        <pt x="536" y="693" on="1"/>
        <pt x="148" y="693" on="1"/>
        <pt x="148" y="400" on="1"/>
        <pt x="513" y="400" on="1"/>
        <pt x="513" y="353" on="1"/>
        <pt x="148" y="353" on="1"/>
        <pt x="148" y="47" on="1"/>
        <pt x="544" y="47" on="1"/>
        <pt x="544" y="0" on="1"/>
        <pt x="96" y="0" on="1"/>
      </contour>
    </TTGlyph>
    <TTGlyph name="Eacute.sc" xMin="91" yMin="0" xMax="483" yMax="732">
      <contour>
        <pt x="91" y="577" on="1"/>
        <pt x="476" y="577" on="1"/>
        <pt x="476" y="534" on="1"/>
        <pt x="141" y="534" on="1"/>
        <pt x="141" y="315" on="1"/>
        <pt x="456" y="315" on="1"/>
        <pt x="456" y="273" on="1"/>
        <pt x="141" y="273" on="1"/>
        <pt x="141" y="43" on="1"/>
        <pt x="483" y="43" on="1"/>
        <pt x="483" y="0" on="1"/>
        <pt x="91" y="0" on="1"/>
      </contour>
      <contour>
        <pt x="259" y="629" on="1"/>
        <pt x="324" y="732" on="1"/>
        <pt x="378" y="732" on="1"/>
        <pt x="300" y="625" on="1"/>
      </contour>
    </TTGlyph>
    <TTGlyph name="Ebreve" xMin="96" yMin="0" xMax="544" yMax="952">
      <contour>
        <pt x="317" y="815" on="1"/>
        <pt x="238" y="815" on="0"/>
        <pt x="153" y="889" on="0"/>
        <pt x="153" y="952" on="1"/>
        <pt x="197" y="952" on="1"/>
        <pt x="197" y="907" on="0"/>
        <pt x="260" y="855" on="0"/>
        <pt x="317" y="855" on="1"/>
        <pt x="375" y="855" on="0"/>
        <pt x="438" y="907" on="0"/>
        <pt x="438" y="952" on="1"/>
        <pt x="483" y="952" on="1"/>
        <pt x="483" y="889" on="0"/>
        <pt x="396" y="815" on="0"/>
      </contour>
      <contour>
        <pt x="96" y="740" on="1"/>
        <pt x="536" y="740" on="1"/>
        <pt x="536" y="693" on="1"/>
        <pt x="148" y="693" on="1"/>
        <pt x="148" y="400" on="1"/>
        <pt x="513" y="400" on="1"/>
        <pt x="513" y="353" on="1"/>
        <pt x="148" y="353" on="1"/>
        <pt x="148" y="47" on="1"/>
        <pt x="544" y="47" on="1"/>
        <pt x="544" y="0" on="1"/>
        <pt x="96" y="0" on="1"/>
      </contour>
    </TTGlyph>
    <TTGlyph name="Ebreve.sc" xMin="91" yMin="0" xMax="483" yMax="746">
      <contour>
        <pt x="284" y="635" on="1"/>
        <pt x="214" y="635" on="0"/>
        <pt x="139" y="695" on="0"/>
        <pt x="139" y="746" on="1"/>
        <pt x="181" y="746" on="1"/>
        <pt x="181" y="710" on="0"/>
        <pt x="234" y="670" on="0"/>
        <pt x="284" y="670" on="1"/>
        <pt x="334" y="670" on="0"/>
        <pt x="388" y="710" on="0"/>
        <pt x="388" y="746" on="1"/>
        <pt x="430" y="746" on="1"/>
        <pt x="430" y="695" on="0"/>
        <pt x="355" y="635" on="0"/>
      </contour>
      <contour>
        <pt x="91" y="577" on="1"/>
        <pt x="476" y="577" on="1"/>
        <pt x="476" y="534" on="1"/>
        <pt x="141" y="534" on="1"/>
        <pt x="141" y="315" on="1"/>
        <pt x="456" y="315" on="1"/>
        <pt x="456" y="273" on="1"/>
        <pt x="141" y="273" on="1"/>
        <pt x="141" y="43" on="1"/>
        <pt x="483" y="43" on="1"/>
        <pt x="483" y="0" on="1"/>
        <pt x="91" y="0" on="1"/>
      </contour>
    </TTGlyph>
    <TTGlyph name="Ecaron" xMin="96" yMin="0" xMax="544" yMax="935">
      <contour>
        <pt x="169" y="935" on="1"/>
        <pt x="320" y="863" on="1"/>
        <pt x="470" y="935" on="1"/>
        <pt x="470" y="885" on="1"/>
        <pt x="319" y="812" on="1"/>
        <pt x="169" y="885" on="1"/>
      </contour>
      <contour>
        <pt x="96" y="740" on="1"/>
        <pt x="536" y="740" on="1"/>
        <pt x="536" y="693" on="1"/>
        <pt x="148" y="693" on="1"/>
        <pt x="148" y="400" on="1"/>
        <pt x="513" y="400" on="1"/>
        <pt x="513" y="353" on="1"/>
        <pt x="148" y="353" on="1"/>
        <pt x="148" y="47" on="1"/>
        <pt x="544" y="47" on="1"/>
        <pt x="544" y="0" on="1"/>
        <pt x="96" y="0" on="1"/>
      </contour>
    </TTGlyph>
    <TTGlyph name="Ecaron.sc" xMin="91" yMin="0" xMax="483" yMax="735">
      <contour>
        <pt x="91" y="577" on="1"/>
        <pt x="476" y="577" on="1"/>
        <pt x="476" y="534" on="1"/>
        <pt x="141" y="534" on="1"/>
        <pt x="141" y="315" on="1"/>
        <pt x="456" y="315" on="1"/>
        <pt x="456" y="273" on="1"/>
        <pt x="141" y="273" on="1"/>
        <pt x="141" y="43" on="1"/>
        <pt x="483" y="43" on="1"/>
        <pt x="483" y="0" on="1"/>
        <pt x="91" y="0" on="1"/>
      </contour>
      <contour>
        <pt x="154" y="690" on="1"/>
        <pt x="154" y="735" on="1"/>
        <pt x="286" y="678" on="1"/>
        <pt x="418" y="735" on="1"/>
        <pt x="418" y="690" on="1"/>
        <pt x="286" y="633" on="1"/>
      </contour>
    </TTGlyph>
    <TTGlyph name="Ecircumflex" xMin="96" yMin="0" xMax="544" yMax="940">
      <contour>
        <pt x="96" y="740" on="1"/>
        <pt x="536" y="740" on="1"/>
        <pt x="536" y="693" on="1"/>
        <pt x="148" y="693" on="1"/>
        <pt x="148" y="400" on="1"/>
        <pt x="513" y="400" on="1"/>
        <pt x="513" y="353" on="1"/>
        <pt x="148" y="353" on="1"/>
        <pt x="148" y="47" on="1"/>
        <pt x="544" y="47" on="1"/>
        <pt x="544" y="0" on="1"/>
        <pt x="96" y="0" on="1"/>
      </contour>
      <contour>
        <pt x="169" y="867" on="1"/>
        <pt x="320" y="940" on="1"/>
        <pt x="470" y="867" on="1"/>
        <pt x="470" y="817" on="1"/>
        <pt x="320" y="889" on="1"/>
        <pt x="169" y="817" on="1"/>
      </contour>
    </TTGlyph>
    <TTGlyph name="Ecircumflex.sc" xMin="91" yMin="0" xMax="483" yMax="738">
      <contour>
        <pt x="91" y="577" on="1"/>
        <pt x="476" y="577" on="1"/>
        <pt x="476" y="534" on="1"/>
        <pt x="141" y="534" on="1"/>
        <pt x="141" y="315" on="1"/>
        <pt x="456" y="315" on="1"/>
        <pt x="456" y="273" on="1"/>
        <pt x="141" y="273" on="1"/>
        <pt x="141" y="43" on="1"/>
        <pt x="483" y="43" on="1"/>
        <pt x="483" y="0" on="1"/>
        <pt x="91" y="0" on="1"/>
      </contour>
      <contour>
        <pt x="155" y="680" on="1"/>
        <pt x="287" y="738" on="1"/>
        <pt x="420" y="680" on="1"/>
        <pt x="420" y="636" on="1"/>
        <pt x="287" y="692" on="1"/>
        <pt x="155" y="636" on="1"/>
      </contour>
    </TTGlyph>
    <TTGlyph name="Edblgrave" xMin="96" yMin="0" xMax="544" yMax="925">
      <contour>
        <pt x="96" y="740" on="1"/>
        <pt x="536" y="740" on="1"/>
        <pt x="536" y="693" on="1"/>
        <pt x="148" y="693" on="1"/>
        <pt x="148" y="400" on="1"/>
        <pt x="513" y="400" on="1"/>
        <pt x="513" y="353" on="1"/>
        <pt x="148" y="353" on="1"/>
        <pt x="148" y="47" on="1"/>
        <pt x="544" y="47" on="1"/>
        <pt x="544" y="0" on="1"/>
        <pt x="96" y="0" on="1"/>
      </contour>
      <contour>
        <pt x="230" y="793" on="1"/>
        <pt x="141" y="925" on="1"/>
        <pt x="194" y="925" on="1"/>
        <pt x="272" y="806" on="1"/>
      </contour>
      <contour>
        <pt x="367" y="793" on="1"/>
        <pt x="278" y="925" on="1"/>
        <pt x="332" y="925" on="1"/>
        <pt x="409" y="806" on="1"/>
      </contour>
    </TTGlyph>
    <TTGlyph name="Edblgrave.sc" xMin="91" yMin="0" xMax="483" yMax="727">
      <contour>
        <pt x="91" y="577" on="1"/>
        <pt x="476" y="577" on="1"/>
        <pt x="476" y="534" on="1"/>
        <pt x="141" y="534" on="1"/>
        <pt x="141" y="315" on="1"/>
        <pt x="456" y="315" on="1"/>
        <pt x="456" y="273" on="1"/>
        <pt x="141" y="273" on="1"/>
        <pt x="141" y="43" on="1"/>
        <pt x="483" y="43" on="1"/>
        <pt x="483" y="0" on="1"/>
        <pt x="91" y="0" on="1"/>
      </contour>
      <contour>
        <pt x="128" y="727" on="1"/>
        <pt x="180" y="727" on="1"/>
        <pt x="246" y="630" on="1"/>
        <pt x="205" y="619" on="1"/>
      </contour>
      <contour>
        <pt x="249" y="727" on="1"/>
        <pt x="301" y="727" on="1"/>
        <pt x="367" y="630" on="1"/>
        <pt x="326" y="619" on="1"/>
      </contour>
    </TTGlyph>
    <TTGlyph name="Edieresis" xMin="96" yMin="0" xMax="544" yMax="905">
      <contour>
        <pt x="195" y="826" on="1"/>
        <pt x="177" y="826" on="0"/>
        <pt x="156" y="845" on="0"/>
        <pt x="156" y="865" on="1"/>
        <pt x="156" y="886" on="0"/>
        <pt x="177" y="905" on="0"/>
        <pt x="195" y="905" on="1"/>
        <pt x="212" y="905" on="0"/>
        <pt x="236" y="886" on="0"/>
        <pt x="236" y="865" on="1"/>
        <pt x="236" y="844" on="0"/>
        <pt x="212" y="826" on="0"/>
      </contour>
      <contour>
        <pt x="443" y="826" on="1"/>
        <pt x="403" y="826" on="0"/>
        <pt x="403" y="865" on="1"/>
        <pt x="403" y="905" on="0"/>
        <pt x="443" y="905" on="1"/>
        <pt x="460" y="905" on="0"/>
        <pt x="483" y="886" on="0"/>
        <pt x="483" y="865" on="1"/>
        <pt x="483" y="844" on="0"/>
        <pt x="460" y="826" on="0"/>
      </contour>
      <contour>
        <pt x="96" y="740" on="1"/>
        <pt x="536" y="740" on="1"/>
        <pt x="536" y="693" on="1"/>
        <pt x="148" y="693" on="1"/>
        <pt x="148" y="400" on="1"/>
        <pt x="513" y="400" on="1"/>
        <pt x="513" y="353" on="1"/>
        <pt x="148" y="353" on="1"/>
        <pt x="148" y="47" on="1"/>
        <pt x="544" y="47" on="1"/>
        <pt x="544" y="0" on="1"/>
        <pt x="96" y="0" on="1"/>
      </contour>
    </TTGlyph>
    <TTGlyph name="Edieresis.sc" xMin="91" yMin="0" xMax="483" yMax="714">
      <contour>
        <pt x="178" y="643" on="1"/>
        <pt x="161" y="643" on="0"/>
        <pt x="140" y="660" on="0"/>
        <pt x="140" y="679" on="1"/>
        <pt x="140" y="697" on="0"/>
        <pt x="161" y="714" on="0"/>
        <pt x="178" y="714" on="1"/>
        <pt x="194" y="714" on="0"/>
        <pt x="215" y="697" on="0"/>
        <pt x="215" y="679" on="1"/>
        <pt x="215" y="660" on="0"/>
        <pt x="194" y="643" on="0"/>
      </contour>
      <contour>
        <pt x="395" y="643" on="1"/>
        <pt x="358" y="643" on="0"/>
        <pt x="358" y="679" on="1"/>
        <pt x="358" y="714" on="0"/>
        <pt x="395" y="714" on="1"/>
        <pt x="412" y="714" on="0"/>
        <pt x="432" y="697" on="0"/>
        <pt x="432" y="679" on="1"/>
        <pt x="432" y="660" on="0"/>
        <pt x="412" y="643" on="0"/>
      </contour>
      <contour>
        <pt x="91" y="577" on="1"/>
        <pt x="476" y="577" on="1"/>
        <pt x="476" y="534" on="1"/>
        <pt x="141" y="534" on="1"/>
        <pt x="141" y="315" on="1"/>
        <pt x="456" y="315" on="1"/>
        <pt x="456" y="273" on="1"/>
        <pt x="141" y="273" on="1"/>
        <pt x="141" y="43" on="1"/>
        <pt x="483" y="43" on="1"/>
        <pt x="483" y="0" on="1"/>
        <pt x="91" y="0" on="1"/>
      </contour>
    </TTGlyph>
    <TTGlyph name="Edotaccent" xMin="96" yMin="0" xMax="544" yMax="898">
      <contour>
        <pt x="317" y="818" on="1"/>
        <pt x="299" y="818" on="0"/>
        <pt x="278" y="837" on="0"/>
        <pt x="278" y="858" on="1"/>
        <pt x="278" y="878" on="0"/>
        <pt x="299" y="898" on="0"/>
        <pt x="317" y="898" on="1"/>
        <pt x="334" y="898" on="0"/>
        <pt x="358" y="879" on="0"/>
        <pt x="358" y="858" on="1"/>
        <pt x="358" y="837" on="0"/>
        <pt x="334" y="818" on="0"/>
      </contour>
      <contour>
        <pt x="96" y="740" on="1"/>
        <pt x="536" y="740" on="1"/>
        <pt x="536" y="693" on="1"/>
        <pt x="148" y="693" on="1"/>
        <pt x="148" y="400" on="1"/>
        <pt x="513" y="400" on="1"/>
        <pt x="513" y="353" on="1"/>
        <pt x="148" y="353" on="1"/>
        <pt x="148" y="47" on="1"/>
        <pt x="544" y="47" on="1"/>
        <pt x="544" y="0" on="1"/>
        <pt x="96" y="0" on="1"/>
      </contour>
    </TTGlyph>
    <TTGlyph name="Edotaccent.sc" xMin="91" yMin="0" xMax="483" yMax="709">
      <contour>
        <pt x="285" y="638" on="1"/>
        <pt x="268" y="638" on="0"/>
        <pt x="248" y="654" on="0"/>
        <pt x="248" y="674" on="1"/>
        <pt x="248" y="709" on="0"/>
        <pt x="285" y="709" on="1"/>
        <pt x="301" y="709" on="0"/>
        <pt x="322" y="692" on="0"/>
        <pt x="322" y="674" on="1"/>
        <pt x="322" y="655" on="0"/>
        <pt x="301" y="638" on="0"/>
      </contour>
      <contour>
        <pt x="91" y="577" on="1"/>
        <pt x="476" y="577" on="1"/>
        <pt x="476" y="534" on="1"/>
        <pt x="141" y="534" on="1"/>
        <pt x="141" y="315" on="1"/>
        <pt x="456" y="315" on="1"/>
        <pt x="456" y="273" on="1"/>
        <pt x="141" y="273" on="1"/>
        <pt x="141" y="43" on="1"/>
        <pt x="483" y="43" on="1"/>
        <pt x="483" y="0" on="1"/>
        <pt x="91" y="0" on="1"/>
      </contour>
    </TTGlyph>
    <TTGlyph name="Edotbelow" xMin="96" yMin="-172" xMax="544" yMax="740">
      <contour>
        <pt x="96" y="740" on="1"/>
        <pt x="536" y="740" on="1"/>
        <pt x="536" y="693" on="1"/>
        <pt x="148" y="693" on="1"/>
        <pt x="148" y="400" on="1"/>
        <pt x="513" y="400" on="1"/>
        <pt x="513" y="353" on="1"/>
        <pt x="148" y="353" on="1"/>
        <pt x="148" y="47" on="1"/>
        <pt x="544" y="47" on="1"/>
        <pt x="544" y="0" on="1"/>
        <pt x="96" y="0" on="1"/>
      </contour>
      <contour>
        <pt x="336" y="-172" on="1"/>
        <pt x="317" y="-172" on="0"/>
        <pt x="295" y="-154" on="0"/>
        <pt x="295" y="-131" on="1"/>
        <pt x="295" y="-109" on="0"/>
        <pt x="317" y="-90" on="0"/>
        <pt x="336" y="-90" on="1"/>
        <pt x="355" y="-90" on="0"/>
        <pt x="378" y="-108" on="0"/>
        <pt x="378" y="-131" on="1"/>
        <pt x="378" y="-154" on="0"/>
        <pt x="355" y="-172" on="0"/>
      </contour>
    </TTGlyph>
    <TTGlyph name="Edotbelow.sc" xMin="91" yMin="-138" xMax="483" yMax="577">
      <contour>
        <pt x="301" y="-138" on="1"/>
        <pt x="264" y="-138" on="0"/>
        <pt x="264" y="-103" on="1"/>
        <pt x="264" y="-68" on="0"/>
        <pt x="301" y="-68" on="1"/>
        <pt x="318" y="-68" on="0"/>
        <pt x="339" y="-84" on="0"/>
        <pt x="339" y="-103" on="1"/>
        <pt x="339" y="-122" on="0"/>
        <pt x="318" y="-138" on="0"/>
      </contour>
      <contour>
        <pt x="91" y="577" on="1"/>
        <pt x="476" y="577" on="1"/>
        <pt x="476" y="534" on="1"/>
        <pt x="141" y="534" on="1"/>
        <pt x="141" y="315" on="1"/>
        <pt x="456" y="315" on="1"/>
        <pt x="456" y="273" on="1"/>
        <pt x="141" y="273" on="1"/>
        <pt x="141" y="43" on="1"/>
        <pt x="483" y="43" on="1"/>
        <pt x="483" y="0" on="1"/>
        <pt x="91" y="0" on="1"/>
      </contour>
    </TTGlyph>
    <TTGlyph name="Egrave" xMin="96" yMin="0" xMax="544" yMax="932">
      <contour>
        <pt x="300" y="799" on="1"/>
        <pt x="211" y="932" on="1"/>
        <pt x="266" y="932" on="1"/>
        <pt x="344" y="813" on="1"/>
      </contour>
      <contour>
        <pt x="96" y="740" on="1"/>
        <pt x="536" y="740" on="1"/>
        <pt x="536" y="693" on="1"/>
        <pt x="148" y="693" on="1"/>
        <pt x="148" y="400" on="1"/>
        <pt x="513" y="400" on="1"/>
        <pt x="513" y="353" on="1"/>
        <pt x="148" y="353" on="1"/>
        <pt x="148" y="47" on="1"/>
        <pt x="544" y="47" on="1"/>
        <pt x="544" y="0" on="1"/>
        <pt x="96" y="0" on="1"/>
      </contour>
    </TTGlyph>
    <TTGlyph name="Egrave.sc" xMin="91" yMin="0" xMax="483" yMax="732">
      <contour>
        <pt x="91" y="577" on="1"/>
        <pt x="476" y="577" on="1"/>
        <pt x="476" y="534" on="1"/>
        <pt x="141" y="534" on="1"/>
        <pt x="141" y="315" on="1"/>
        <pt x="456" y="315" on="1"/>
        <pt x="456" y="273" on="1"/>
        <pt x="141" y="273" on="1"/>
        <pt x="141" y="43" on="1"/>
        <pt x="483" y="43" on="1"/>
        <pt x="483" y="0" on="1"/>
        <pt x="91" y="0" on="1"/>
      </contour>
      <contour>
        <pt x="192" y="732" on="1"/>
        <pt x="245" y="732" on="1"/>
        <pt x="311" y="635" on="1"/>
        <pt x="269" y="625" on="1"/>
      </contour>
    </TTGlyph>
    <TTGlyph name="Einvertedbreve" xMin="96" yMin="0" xMax="544" yMax="956">
      <contour>
        <pt x="96" y="740" on="1"/>
        <pt x="536" y="740" on="1"/>
        <pt x="536" y="693" on="1"/>
        <pt x="148" y="693" on="1"/>
        <pt x="148" y="400" on="1"/>
        <pt x="513" y="400" on="1"/>
        <pt x="513" y="353" on="1"/>
        <pt x="148" y="353" on="1"/>
        <pt x="148" y="47" on="1"/>
        <pt x="544" y="47" on="1"/>
        <pt x="544" y="0" on="1"/>
        <pt x="96" y="0" on="1"/>
      </contour>
      <contour>
        <pt x="438" y="818" on="1"/>
        <pt x="438" y="864" on="0"/>
        <pt x="375" y="916" on="0"/>
        <pt x="317" y="916" on="1"/>
        <pt x="260" y="916" on="0"/>
        <pt x="196" y="864" on="0"/>
        <pt x="196" y="818" on="1"/>
        <pt x="152" y="818" on="1"/>
        <pt x="152" y="882" on="0"/>
        <pt x="238" y="956" on="0"/>
        <pt x="317" y="956" on="1"/>
        <pt x="396" y="956" on="0"/>
        <pt x="482" y="882" on="0"/>
        <pt x="482" y="818" on="1"/>
      </contour>
    </TTGlyph>
    <TTGlyph name="Einvertedbreve.sc" xMin="91" yMin="0" xMax="483" yMax="749">
      <contour>
        <pt x="140" y="638" on="1"/>
        <pt x="140" y="689" on="0"/>
        <pt x="214" y="749" on="0"/>
        <pt x="285" y="749" on="1"/>
        <pt x="355" y="749" on="0"/>
        <pt x="430" y="689" on="0"/>
        <pt x="430" y="638" on="1"/>
        <pt x="389" y="638" on="1"/>
        <pt x="389" y="674" on="0"/>
        <pt x="336" y="713" on="0"/>
        <pt x="285" y="713" on="1"/>
        <pt x="234" y="713" on="0"/>
        <pt x="181" y="674" on="0"/>
        <pt x="181" y="638" on="1"/>
      </contour>
      <contour>
        <pt x="91" y="577" on="1"/>
        <pt x="476" y="577" on="1"/>
        <pt x="476" y="534" on="1"/>
        <pt x="141" y="534" on="1"/>
        <pt x="141" y="315" on="1"/>
        <pt x="456" y="315" on="1"/>
        <pt x="456" y="273" on="1"/>
        <pt x="141" y="273" on="1"/>
        <pt x="141" y="43" on="1"/>
        <pt x="483" y="43" on="1"/>
        <pt x="483" y="0" on="1"/>
        <pt x="91" y="0" on="1"/>
      </contour>
    </TTGlyph>
    <TTGlyph name="Emacron" xMin="96" yMin="0" xMax="544" yMax="886">
      <contour>
        <pt x="172" y="886" on="1"/>
        <pt x="462" y="886" on="1"/>
        <pt x="462" y="842" on="1"/>
        <pt x="172" y="842" on="1"/>
      </contour>
      <contour>
        <pt x="96" y="740" on="1"/>
        <pt x="536" y="740" on="1"/>
        <pt x="536" y="693" on="1"/>
        <pt x="148" y="693" on="1"/>
        <pt x="148" y="400" on="1"/>
        <pt x="513" y="400" on="1"/>
        <pt x="513" y="353" on="1"/>
        <pt x="148" y="353" on="1"/>
        <pt x="148" y="47" on="1"/>
        <pt x="544" y="47" on="1"/>
        <pt x="544" y="0" on="1"/>
        <pt x="96" y="0" on="1"/>
      </contour>
    </TTGlyph>
    <TTGlyph name="Emacron.sc" xMin="91" yMin="0" xMax="483" yMax="697">
      <contour>
        <pt x="91" y="577" on="1"/>
        <pt x="476" y="577" on="1"/>
        <pt x="476" y="534" on="1"/>
        <pt x="141" y="534" on="1"/>
        <pt x="141" y="315" on="1"/>
        <pt x="456" y="315" on="1"/>
        <pt x="456" y="273" on="1"/>
        <pt x="141" y="273" on="1"/>
        <pt x="141" y="43" on="1"/>
        <pt x="483" y="43" on="1"/>
        <pt x="483" y="0" on="1"/>
        <pt x="91" y="0" on="1"/>
      </contour>
      <contour>
        <pt x="156" y="697" on="1"/>
        <pt x="413" y="697" on="1"/>
        <pt x="413" y="657" on="1"/>
        <pt x="156" y="657" on="1"/>
      </contour>
    </TTGlyph>
    <TTGlyph name="Eng" xMin="96" yMin="-184" xMax="669" yMax="740">
      <contour>
        <pt x="542" y="-173" on="1"/>
        <pt x="554" y="-151" on="0"/>
        <pt x="576" y="-101" on="0"/>
        <pt x="594" y="-51" on="0"/>
        <pt x="607" y="-5" on="0"/>
        <pt x="610" y="14" on="1"/>
        <pt x="207" y="572" on="1"/>
        <pt x="150" y="657" on="1"/>
        <pt x="145" y="657" on="1"/>
        <pt x="145" y="0" on="1"/>
        <pt x="96" y="0" on="1"/>
        <pt x="96" y="740" on="1"/>
        <pt x="144" y="740" on="1"/>
        <pt x="555" y="171" on="1"/>
        <pt x="615" y="82" on="1"/>
        <pt x="620" y="82" on="1"/>
        <pt x="620" y="740" on="1"/>
        <pt x="669" y="740" on="1"/>
        <pt x="669" y="72" on="1"/>
        <pt x="669" y="44" on="0"/>
        <pt x="656" y="-23" on="0"/>
        <pt x="632" y="-92" on="0"/>
        <pt x="600" y="-158" on="0"/>
        <pt x="582" y="-184" on="1"/>
      </contour>
    </TTGlyph>
    <TTGlyph name="Eng.sc" xMin="91" yMin="-146" xMax="588" yMax="577">
      <contour>
        <pt x="475" y="-135" on="1"/>
        <pt x="496" y="-99" on="0"/>
        <pt x="528" y="-17" on="0"/>
        <pt x="533" y="12" on="1"/>
        <pt x="192" y="432" on="1"/>
        <pt x="143" y="499" on="1"/>
        <pt x="138" y="499" on="1"/>
        <pt x="138" y="0" on="1"/>
        <pt x="91" y="0" on="1"/>
        <pt x="91" y="577" on="1"/>
        <pt x="136" y="577" on="1"/>
        <pt x="484" y="148" on="1"/>
        <pt x="536" y="77" on="1"/>
        <pt x="541" y="78" on="1"/>
        <pt x="541" y="577" on="1"/>
        <pt x="588" y="577" on="1"/>
        <pt x="588" y="61" on="1"/>
        <pt x="588" y="38" on="0"/>
        <pt x="577" y="-16" on="0"/>
        <pt x="557" y="-71" on="0"/>
        <pt x="529" y="-124" on="0"/>
        <pt x="513" y="-146" on="1"/>
      </contour>
    </TTGlyph>
    <TTGlyph name="Eogonek" xMin="96" yMin="-220" xMax="544" yMax="740">
      <contour>
        <pt x="96" y="740" on="1"/>
        <pt x="536" y="740" on="1"/>
        <pt x="536" y="693" on="1"/>
        <pt x="148" y="693" on="1"/>
        <pt x="148" y="400" on="1"/>
        <pt x="513" y="400" on="1"/>
        <pt x="513" y="353" on="1"/>
        <pt x="148" y="353" on="1"/>
        <pt x="148" y="47" on="1"/>
        <pt x="544" y="47" on="1"/>
        <pt x="544" y="-21" on="1"/>
        <pt x="483" y="-50" on="0"/>
        <pt x="429" y="-107" on="0"/>
        <pt x="429" y="-140" on="1"/>
        <pt x="429" y="-182" on="0"/>
        <pt x="481" y="-182" on="1"/>
        <pt x="495" y="-182" on="0"/>
        <pt x="527" y="-177" on="0"/>
        <pt x="543" y="-172" on="1"/>
        <pt x="543" y="-208" on="1"/>
        <pt x="529" y="-213" on="0"/>
        <pt x="493" y="-220" on="0"/>
        <pt x="475" y="-220" on="1"/>
        <pt x="386" y="-220" on="0"/>
        <pt x="386" y="-142" on="1"/>
        <pt x="386" y="-102" on="0"/>
        <pt x="437" y="-38" on="0"/>
        <pt x="502" y="0" on="1"/>
        <pt x="96" y="0" on="1"/>
      </contour>
    </TTGlyph>
    <TTGlyph name="Eogonek.sc" xMin="91" yMin="-172" xMax="483" yMax="577">
      <contour>
        <pt x="422" y="-172" on="1"/>
        <pt x="343" y="-172" on="0"/>
        <pt x="343" y="-109" on="1"/>
        <pt x="343" y="-94" on="0"/>
        <pt x="352" y="-68" on="0"/>
        <pt x="375" y="-42" on="0"/>
        <pt x="412" y="-16" on="0"/>
        <pt x="440" y="0" on="1"/>
        <pt x="91" y="0" on="1"/>
        <pt x="91" y="577" on="1"/>
        <pt x="476" y="577" on="1"/>
        <pt x="476" y="534" on="1"/>
        <pt x="141" y="534" on="1"/>
        <pt x="141" y="315" on="1"/>
        <pt x="456" y="315" on="1"/>
        <pt x="456" y="273" on="1"/>
        <pt x="141" y="273" on="1"/>
        <pt x="141" y="43" on="1"/>
        <pt x="483" y="43" on="1"/>
        <pt x="483" y="-16" on="1"/>
        <pt x="435" y="-36" on="0"/>
        <pt x="383" y="-79" on="0"/>
        <pt x="383" y="-106" on="1"/>
        <pt x="383" y="-124" on="0"/>
        <pt x="406" y="-138" on="0"/>
        <pt x="427" y="-138" on="1"/>
        <pt x="440" y="-138" on="0"/>
        <pt x="469" y="-133" on="0"/>
        <pt x="482" y="-129" on="1"/>
        <pt x="482" y="-162" on="1"/>
        <pt x="470" y="-167" on="0"/>
        <pt x="439" y="-172" on="0"/>
      </contour>
    </TTGlyph>
    <TTGlyph name="Eth" xMin="5" yMin="-11" xMax="659" yMax="749">
      <contour>
        <pt x="5" y="392" on="1"/>
        <pt x="103" y="392" on="1"/>
        <pt x="103" y="737" on="1"/>
        <pt x="123" y="740" on="0"/>
        <pt x="174" y="744" on="0"/>
        <pt x="226" y="747" on="0"/>
        <pt x="274" y="749" on="0"/>
        <pt x="292" y="749" on="1"/>
        <pt x="481" y="749" on="0"/>
        <pt x="659" y="565" on="0"/>
        <pt x="659" y="370" on="1"/>
        <pt x="659" y="272" on="0"/>
        <pt x="614" y="128" on="0"/>
        <pt x="520" y="34" on="0"/>
        <pt x="377" y="-11" on="0"/>
        <pt x="278" y="-11" on="1"/>
        <pt x="221" y="-11" on="0"/>
        <pt x="126" y="-4" on="0"/>
        <pt x="103" y="4" on="1"/>
        <pt x="103" y="346" on="1"/>
        <pt x="5" y="346" on="1"/>
      </contour>
      <contour>
        <pt x="287" y="36" on="1"/>
        <pt x="450" y="36" on="0"/>
        <pt x="606" y="199" on="0"/>
        <pt x="606" y="370" on="1"/>
        <pt x="606" y="542" on="0"/>
        <pt x="455" y="701" on="0"/>
        <pt x="294" y="701" on="1"/>
        <pt x="280" y="701" on="0"/>
        <pt x="244" y="700" on="0"/>
        <pt x="206" y="697" on="0"/>
        <pt x="170" y="694" on="0"/>
        <pt x="155" y="693" on="1"/>
        <pt x="155" y="392" on="1"/>
        <pt x="360" y="392" on="1"/>
        <pt x="360" y="346" on="1"/>
        <pt x="155" y="346" on="1"/>
        <pt x="155" y="45" on="1"/>
        <pt x="195" y="40" on="0"/>
        <pt x="252" y="36" on="0"/>
      </contour>
    </TTGlyph>
    <TTGlyph name="Eth.sc" xMin="13" yMin="-8" xMax="584" yMax="584">
      <contour>
        <pt x="13" y="309" on="1"/>
        <pt x="98" y="309" on="1"/>
        <pt x="98" y="576" on="1"/>
        <pt x="115" y="577" on="0"/>
        <pt x="160" y="580" on="0"/>
        <pt x="206" y="583" on="0"/>
        <pt x="249" y="584" on="0"/>
        <pt x="264" y="584" on="1"/>
        <pt x="429" y="584" on="0"/>
        <pt x="584" y="441" on="0"/>
        <pt x="584" y="289" on="1"/>
        <pt x="584" y="212" on="0"/>
        <pt x="545" y="100" on="0"/>
        <pt x="464" y="27" on="0"/>
        <pt x="338" y="-8" on="0"/>
        <pt x="252" y="-8" on="1"/>
        <pt x="201" y="-8" on="0"/>
        <pt x="118" y="-2" on="0"/>
        <pt x="98" y="4" on="1"/>
        <pt x="98" y="266" on="1"/>
        <pt x="13" y="266" on="1"/>
      </contour>
      <contour>
        <pt x="263" y="36" on="1"/>
        <pt x="402" y="36" on="0"/>
        <pt x="532" y="158" on="0"/>
        <pt x="532" y="289" on="1"/>
        <pt x="532" y="419" on="0"/>
        <pt x="405" y="539" on="0"/>
        <pt x="267" y="539" on="1"/>
        <pt x="242" y="539" on="0"/>
        <pt x="174" y="535" on="0"/>
        <pt x="148" y="533" on="1"/>
        <pt x="148" y="309" on="1"/>
        <pt x="322" y="309" on="1"/>
        <pt x="322" y="266" on="1"/>
        <pt x="148" y="266" on="1"/>
        <pt x="148" y="43" on="1"/>
        <pt x="183" y="39" on="0"/>
        <pt x="231" y="36" on="0"/>
      </contour>
    </TTGlyph>
    <TTGlyph name="Etilde" xMin="96" yMin="0" xMax="544" yMax="918">
      <contour>
        <pt x="138" y="863" on="1"/>
        <pt x="164" y="889" on="0"/>
        <pt x="221" y="918" on="0"/>
        <pt x="250" y="918" on="1"/>
        <pt x="273" y="918" on="0"/>
        <pt x="312" y="905" on="0"/>
        <pt x="349" y="889" on="0"/>
        <pt x="386" y="876" on="0"/>
        <pt x="407" y="876" on="1"/>
        <pt x="452" y="876" on="0"/>
        <pt x="493" y="914" on="1"/>
        <pt x="518" y="890" on="1"/>
        <pt x="495" y="864" on="0"/>
        <pt x="433" y="833" on="0"/>
        <pt x="401" y="833" on="1"/>
        <pt x="380" y="833" on="0"/>
        <pt x="341" y="846" on="0"/>
        <pt x="304" y="862" on="0"/>
        <pt x="266" y="875" on="0"/>
        <pt x="247" y="875" on="1"/>
        <pt x="202" y="875" on="0"/>
        <pt x="162" y="838" on="1"/>
      </contour>
      <contour>
        <pt x="96" y="740" on="1"/>
        <pt x="536" y="740" on="1"/>
        <pt x="536" y="693" on="1"/>
        <pt x="148" y="693" on="1"/>
        <pt x="148" y="400" on="1"/>
        <pt x="513" y="400" on="1"/>
        <pt x="513" y="353" on="1"/>
        <pt x="148" y="353" on="1"/>
        <pt x="148" y="47" on="1"/>
        <pt x="544" y="47" on="1"/>
        <pt x="544" y="0" on="1"/>
        <pt x="96" y="0" on="1"/>
      </contour>
    </TTGlyph>
    <TTGlyph name="Etilde.sc" xMin="91" yMin="0" xMax="483" yMax="722">
      <contour>
        <pt x="127" y="673" on="1"/>
        <pt x="173" y="722" on="0"/>
        <pt x="227" y="722" on="1"/>
        <pt x="247" y="722" on="0"/>
        <pt x="281" y="712" on="0"/>
        <pt x="313" y="699" on="0"/>
        <pt x="346" y="689" on="0"/>
        <pt x="364" y="689" on="1"/>
        <pt x="404" y="689" on="0"/>
        <pt x="440" y="719" on="1"/>
        <pt x="461" y="699" on="1"/>
        <pt x="441" y="676" on="0"/>
        <pt x="386" y="650" on="0"/>
        <pt x="357" y="650" on="1"/>
        <pt x="339" y="650" on="0"/>
        <pt x="305" y="660" on="0"/>
        <pt x="272" y="672" on="0"/>
        <pt x="239" y="682" on="0"/>
        <pt x="222" y="682" on="1"/>
        <pt x="182" y="682" on="0"/>
        <pt x="147" y="653" on="1"/>
      </contour>
      <contour>
        <pt x="91" y="577" on="1"/>
        <pt x="476" y="577" on="1"/>
        <pt x="476" y="534" on="1"/>
        <pt x="141" y="534" on="1"/>
        <pt x="141" y="315" on="1"/>
        <pt x="456" y="315" on="1"/>
        <pt x="456" y="273" on="1"/>
        <pt x="141" y="273" on="1"/>
        <pt x="141" y="43" on="1"/>
        <pt x="483" y="43" on="1"/>
        <pt x="483" y="0" on="1"/>
        <pt x="91" y="0" on="1"/>
      </contour>
    </TTGlyph>
    <TTGlyph name="Euro" xMin="48" yMin="-10" xMax="559" yMax="749">
      <contour>
        <pt x="48" y="474" on="1"/>
        <pt x="139" y="474" on="1"/>
        <pt x="148" y="547" on="0"/>
        <pt x="198" y="651" on="0"/>
        <pt x="282" y="718" on="0"/>
        <pt x="402" y="749" on="0"/>
        <pt x="482" y="749" on="1"/>
        <pt x="508" y="749" on="0"/>
        <pt x="542" y="747" on="0"/>
        <pt x="559" y="745" on="1"/>
        <pt x="538" y="698" on="1"/>
        <pt x="530" y="699" on="0"/>
        <pt x="507" y="701" on="0"/>
        <pt x="490" y="701" on="1"/>
        <pt x="419" y="701" on="0"/>
        <pt x="314" y="676" on="0"/>
        <pt x="242" y="622" on="0"/>
        <pt x="200" y="535" on="0"/>
        <pt x="191" y="474" on="1"/>
        <pt x="472" y="474" on="1"/>
        <pt x="455" y="433" on="1"/>
        <pt x="187" y="433" on="1"/>
        <pt x="185" y="418" on="0"/>
        <pt x="185" y="387" on="0"/>
        <pt x="185" y="370" on="1"/>
        <pt x="185" y="353" on="0"/>
        <pt x="186" y="322" on="0"/>
        <pt x="187" y="307" on="1"/>
        <pt x="434" y="307" on="1"/>
        <pt x="416" y="266" on="1"/>
        <pt x="192" y="266" on="1"/>
        <pt x="210" y="146" on="0"/>
        <pt x="350" y="38" on="0"/>
        <pt x="486" y="38" on="1"/>
        <pt x="494" y="38" on="0"/>
        <pt x="525" y="39" on="0"/>
        <pt x="542" y="41" on="1"/>
        <pt x="542" y="-7" on="1"/>
        <pt x="532" y="-9" on="0"/>
        <pt x="506" y="-10" on="0"/>
        <pt x="485" y="-10" on="1"/>
        <pt x="327" y="-8" on="0"/>
        <pt x="159" y="123" on="0"/>
        <pt x="140" y="266" on="1"/>
        <pt x="48" y="266" on="1"/>
        <pt x="48" y="307" on="1"/>
        <pt x="135" y="307" on="1"/>
        <pt x="134" y="322" on="0"/>
        <pt x="133" y="353" on="0"/>
        <pt x="133" y="370" on="1"/>
        <pt x="133" y="387" on="0"/>
        <pt x="133" y="418" on="0"/>
        <pt x="135" y="433" on="1"/>
        <pt x="48" y="433" on="1"/>
      </contour>
    </TTGlyph>
    <TTGlyph name="Euro.tab" xMin="23" yMin="-10" xMax="518" yMax="749">
      <contour>
        <pt x="23" y="474" on="1"/>
        <pt x="111" y="474" on="1"/>
        <pt x="120" y="547" on="0"/>
        <pt x="168" y="652" on="0"/>
        <pt x="249" y="718" on="0"/>
        <pt x="365" y="749" on="0"/>
        <pt x="442" y="749" on="1"/>
        <pt x="468" y="749" on="0"/>
        <pt x="501" y="747" on="0"/>
        <pt x="518" y="745" on="1"/>
        <pt x="497" y="698" on="1"/>
        <pt x="489" y="699" on="0"/>
        <pt x="467" y="701" on="0"/>
        <pt x="451" y="701" on="1"/>
        <pt x="383" y="701" on="0"/>
        <pt x="283" y="676" on="0"/>
        <pt x="213" y="621" on="0"/>
        <pt x="172" y="535" on="0"/>
        <pt x="164" y="474" on="1"/>
        <pt x="434" y="474" on="1"/>
        <pt x="418" y="433" on="1"/>
        <pt x="159" y="433" on="1"/>
        <pt x="158" y="419" on="0"/>
        <pt x="157" y="387" on="0"/>
        <pt x="157" y="370" on="1"/>
        <pt x="157" y="353" on="0"/>
        <pt x="158" y="321" on="0"/>
        <pt x="159" y="307" on="1"/>
        <pt x="397" y="307" on="1"/>
        <pt x="380" y="266" on="1"/>
        <pt x="164" y="266" on="1"/>
        <pt x="182" y="147" on="0"/>
        <pt x="317" y="38" on="0"/>
        <pt x="447" y="38" on="1"/>
        <pt x="455" y="38" on="0"/>
        <pt x="485" y="39" on="0"/>
        <pt x="502" y="41" on="1"/>
        <pt x="502" y="-7" on="1"/>
        <pt x="492" y="-9" on="0"/>
        <pt x="466" y="-10" on="0"/>
        <pt x="445" y="-10" on="1"/>
        <pt x="292" y="-8" on="0"/>
        <pt x="131" y="123" on="0"/>
        <pt x="112" y="266" on="1"/>
        <pt x="23" y="266" on="1"/>
        <pt x="23" y="307" on="1"/>
        <pt x="107" y="307" on="1"/>
        <pt x="106" y="321" on="0"/>
        <pt x="105" y="353" on="0"/>
        <pt x="105" y="370" on="1"/>
        <pt x="105" y="386" on="0"/>
        <pt x="106" y="419" on="0"/>
        <pt x="107" y="433" on="1"/>
        <pt x="23" y="433" on="1"/>
      </contour>
    </TTGlyph>
    <TTGlyph name="F" xMin="96" yMin="0" xMax="531" yMax="740">
      <contour>
        <pt x="96" y="740" on="1"/>
        <pt x="531" y="740" on="1"/>
        <pt x="531" y="693" on="1"/>
        <pt x="148" y="693" on="1"/>
        <pt x="148" y="398" on="1"/>
        <pt x="499" y="398" on="1"/>
        <pt x="499" y="351" on="1"/>
        <pt x="148" y="351" on="1"/>
        <pt x="148" y="0" on="1"/>
        <pt x="96" y="0" on="1"/>
      </contour>
    </TTGlyph>
    <TTGlyph name="F.sc" xMin="91" yMin="0" xMax="473" yMax="577">
      <contour>
        <pt x="91" y="577" on="1"/>
        <pt x="473" y="577" on="1"/>
        <pt x="473" y="533" on="1"/>
        <pt x="141" y="533" on="1"/>
        <pt x="141" y="311" on="1"/>
        <pt x="444" y="311" on="1"/>
        <pt x="444" y="269" on="1"/>
        <pt x="141" y="269" on="1"/>
        <pt x="141" y="0" on="1"/>
        <pt x="91" y="0" on="1"/>
      </contour>
    </TTGlyph>
    <TTGlyph name="F_B.sc" xMin="91" yMin="-8" xMax="1011" yMax="584">
      <contour>
        <pt x="91" y="577" on="1"/>
        <pt x="473" y="577" on="1"/>
        <pt x="473" y="533" on="1"/>
        <pt x="141" y="533" on="1"/>
        <pt x="141" y="311" on="1"/>
        <pt x="444" y="311" on="1"/>
        <pt x="444" y="269" on="1"/>
        <pt x="141" y="269" on="1"/>
        <pt x="141" y="0" on="1"/>
        <pt x="91" y="0" on="1"/>
      </contour>
      <contour>
        <pt x="770" y="-8" on="1"/>
        <pt x="728" y="-8" on="0"/>
        <pt x="631" y="-2" on="0"/>
        <pt x="580" y="4" on="1"/>
        <pt x="580" y="573" on="1"/>
        <pt x="641" y="579" on="0"/>
        <pt x="725" y="584" on="0"/>
        <pt x="763" y="584" on="1"/>
        <pt x="884" y="584" on="0"/>
        <pt x="990" y="512" on="0"/>
        <pt x="990" y="430" on="1"/>
        <pt x="990" y="377" on="0"/>
        <pt x="930" y="304" on="0"/>
        <pt x="879" y="295" on="1"/>
        <pt x="879" y="292" on="1"/>
        <pt x="943" y="281" on="0"/>
        <pt x="1011" y="209" on="0"/>
        <pt x="1011" y="150" on="1"/>
        <pt x="1011" y="-8" on="0"/>
      </contour>
      <contour>
        <pt x="769" y="33" on="1"/>
        <pt x="867" y="33" on="0"/>
        <pt x="960" y="92" on="0"/>
        <pt x="960" y="153" on="1"/>
        <pt x="960" y="214" on="0"/>
        <pt x="875" y="273" on="0"/>
        <pt x="785" y="273" on="1"/>
        <pt x="629" y="273" on="1"/>
        <pt x="629" y="42" on="1"/>
        <pt x="652" y="37" on="0"/>
        <pt x="724" y="33" on="0"/>
      </contour>
      <contour>
        <pt x="782" y="312" on="1"/>
        <pt x="867" y="312" on="0"/>
        <pt x="940" y="365" on="0"/>
        <pt x="940" y="428" on="1"/>
        <pt x="940" y="490" on="0"/>
        <pt x="859" y="543" on="0"/>
        <pt x="764" y="543" on="1"/>
        <pt x="722" y="543" on="0"/>
        <pt x="658" y="540" on="0"/>
        <pt x="629" y="535" on="1"/>
        <pt x="629" y="312" on="1"/>
      </contour>
    </TTGlyph>
    <TTGlyph name="F_F.sc" xMin="91" yMin="0" xMax="962" yMax="577">
      <contour>
        <pt x="91" y="577" on="1"/>
        <pt x="473" y="577" on="1"/>
        <pt x="473" y="533" on="1"/>
        <pt x="141" y="533" on="1"/>
        <pt x="141" y="311" on="1"/>
        <pt x="444" y="311" on="1"/>
        <pt x="444" y="269" on="1"/>
        <pt x="141" y="269" on="1"/>
        <pt x="141" y="0" on="1"/>
        <pt x="91" y="0" on="1"/>
      </contour>
      <contour>
        <pt x="580" y="577" on="1"/>
        <pt x="962" y="577" on="1"/>
        <pt x="962" y="533" on="1"/>
        <pt x="630" y="533" on="1"/>
        <pt x="630" y="311" on="1"/>
        <pt x="933" y="311" on="1"/>
        <pt x="933" y="269" on="1"/>
        <pt x="630" y="269" on="1"/>
        <pt x="630" y="0" on="1"/>
        <pt x="580" y="0" on="1"/>
      </contour>
    </TTGlyph>
    <TTGlyph name="F_F_B.sc" xMin="91" yMin="-8" xMax="1499" yMax="584">
      <contour>
        <pt x="91" y="577" on="1"/>
        <pt x="473" y="577" on="1"/>
        <pt x="473" y="533" on="1"/>
        <pt x="141" y="533" on="1"/>
        <pt x="141" y="311" on="1"/>
        <pt x="444" y="311" on="1"/>
        <pt x="444" y="269" on="1"/>
        <pt x="141" y="269" on="1"/>
        <pt x="141" y="0" on="1"/>
        <pt x="91" y="0" on="1"/>
      </contour>
      <contour>
        <pt x="580" y="577" on="1"/>
        <pt x="962" y="577" on="1"/>
        <pt x="962" y="533" on="1"/>
        <pt x="630" y="533" on="1"/>
        <pt x="630" y="311" on="1"/>
        <pt x="933" y="311" on="1"/>
        <pt x="933" y="269" on="1"/>
        <pt x="630" y="269" on="1"/>
        <pt x="630" y="0" on="1"/>
        <pt x="580" y="0" on="1"/>
      </contour>
      <contour>
        <pt x="1258" y="-8" on="1"/>
        <pt x="1216" y="-8" on="0"/>
        <pt x="1119" y="-2" on="0"/>
        <pt x="1068" y="4" on="1"/>
        <pt x="1068" y="573" on="1"/>
        <pt x="1129" y="579" on="0"/>
        <pt x="1213" y="584" on="0"/>
        <pt x="1251" y="584" on="1"/>
        <pt x="1372" y="584" on="0"/>
        <pt x="1478" y="512" on="0"/>
        <pt x="1478" y="430" on="1"/>
        <pt x="1478" y="377" on="0"/>
        <pt x="1418" y="304" on="0"/>
        <pt x="1367" y="295" on="1"/>
        <pt x="1367" y="292" on="1"/>
        <pt x="1431" y="281" on="0"/>
        <pt x="1499" y="209" on="0"/>
        <pt x="1499" y="150" on="1"/>
        <pt x="1499" y="-8" on="0"/>
      </contour>
      <contour>
        <pt x="1257" y="33" on="1"/>
        <pt x="1355" y="33" on="0"/>
        <pt x="1448" y="92" on="0"/>
        <pt x="1448" y="153" on="1"/>
        <pt x="1448" y="214" on="0"/>
        <pt x="1363" y="273" on="0"/>
        <pt x="1273" y="273" on="1"/>
        <pt x="1117" y="273" on="1"/>
        <pt x="1117" y="42" on="1"/>
        <pt x="1140" y="37" on="0"/>
        <pt x="1212" y="33" on="0"/>
      </contour>
      <contour>
        <pt x="1270" y="312" on="1"/>
        <pt x="1355" y="312" on="0"/>
        <pt x="1428" y="365" on="0"/>
        <pt x="1428" y="428" on="1"/>
        <pt x="1428" y="490" on="0"/>
        <pt x="1347" y="543" on="0"/>
        <pt x="1252" y="543" on="1"/>
        <pt x="1210" y="543" on="0"/>
        <pt x="1146" y="540" on="0"/>
        <pt x="1117" y="535" on="1"/>
        <pt x="1117" y="312" on="1"/>
      </contour>
    </TTGlyph>
    <TTGlyph name="F_F_H.sc" xMin="91" yMin="0" xMax="1552" yMax="577">
      <contour>
        <pt x="91" y="577" on="1"/>
        <pt x="473" y="577" on="1"/>
        <pt x="473" y="533" on="1"/>
        <pt x="141" y="533" on="1"/>
        <pt x="141" y="311" on="1"/>
        <pt x="444" y="311" on="1"/>
        <pt x="444" y="269" on="1"/>
        <pt x="141" y="269" on="1"/>
        <pt x="141" y="0" on="1"/>
        <pt x="91" y="0" on="1"/>
      </contour>
      <contour>
        <pt x="580" y="577" on="1"/>
        <pt x="962" y="577" on="1"/>
        <pt x="962" y="533" on="1"/>
        <pt x="630" y="533" on="1"/>
        <pt x="630" y="311" on="1"/>
        <pt x="933" y="311" on="1"/>
        <pt x="933" y="269" on="1"/>
        <pt x="630" y="269" on="1"/>
        <pt x="630" y="0" on="1"/>
        <pt x="580" y="0" on="1"/>
      </contour>
      <contour>
        <pt x="1068" y="577" on="1"/>
        <pt x="1118" y="577" on="1"/>
        <pt x="1118" y="318" on="1"/>
        <pt x="1501" y="318" on="1"/>
        <pt x="1501" y="577" on="1"/>
        <pt x="1552" y="577" on="1"/>
        <pt x="1552" y="0" on="1"/>
        <pt x="1501" y="0" on="1"/>
        <pt x="1501" y="274" on="1"/>
        <pt x="1118" y="274" on="1"/>
        <pt x="1118" y="0" on="1"/>
        <pt x="1068" y="0" on="1"/>
      </contour>
    </TTGlyph>
    <TTGlyph name="F_F_I.sc" xMin="91" yMin="0" xMax="1118" yMax="577">
      <contour>
        <pt x="91" y="577" on="1"/>
        <pt x="473" y="577" on="1"/>
        <pt x="473" y="533" on="1"/>
        <pt x="141" y="533" on="1"/>
        <pt x="141" y="311" on="1"/>
        <pt x="444" y="311" on="1"/>
        <pt x="444" y="269" on="1"/>
        <pt x="141" y="269" on="1"/>
        <pt x="141" y="0" on="1"/>
        <pt x="91" y="0" on="1"/>
      </contour>
      <contour>
        <pt x="580" y="577" on="1"/>
        <pt x="962" y="577" on="1"/>
        <pt x="962" y="533" on="1"/>
        <pt x="630" y="533" on="1"/>
        <pt x="630" y="311" on="1"/>
        <pt x="933" y="311" on="1"/>
        <pt x="933" y="269" on="1"/>
        <pt x="630" y="269" on="1"/>
        <pt x="630" y="0" on="1"/>
        <pt x="580" y="0" on="1"/>
      </contour>
      <contour>
        <pt x="1068" y="577" on="1"/>
        <pt x="1118" y="577" on="1"/>
        <pt x="1118" y="0" on="1"/>
        <pt x="1068" y="0" on="1"/>
      </contour>
    </TTGlyph>
    <TTGlyph name="F_F_J.sc" xMin="91" yMin="-143" xMax="1129" yMax="577">
      <contour>
        <pt x="91" y="577" on="1"/>
        <pt x="473" y="577" on="1"/>
        <pt x="473" y="533" on="1"/>
        <pt x="141" y="533" on="1"/>
        <pt x="141" y="311" on="1"/>
        <pt x="444" y="311" on="1"/>
        <pt x="444" y="269" on="1"/>
        <pt x="141" y="269" on="1"/>
        <pt x="141" y="0" on="1"/>
        <pt x="91" y="0" on="1"/>
      </contour>
      <contour>
        <pt x="580" y="577" on="1"/>
        <pt x="962" y="577" on="1"/>
        <pt x="962" y="533" on="1"/>
        <pt x="630" y="533" on="1"/>
        <pt x="630" y="311" on="1"/>
        <pt x="933" y="311" on="1"/>
        <pt x="933" y="269" on="1"/>
        <pt x="630" y="269" on="1"/>
        <pt x="630" y="0" on="1"/>
        <pt x="580" y="0" on="1"/>
      </contour>
      <contour>
        <pt x="1011" y="-125" on="1"/>
        <pt x="1031" y="-88" on="0"/>
        <pt x="1057" y="-24" on="0"/>
        <pt x="1073" y="38" on="0"/>
        <pt x="1079" y="104" on="0"/>
        <pt x="1079" y="143" on="1"/>
        <pt x="1079" y="577" on="1"/>
        <pt x="1129" y="577" on="1"/>
        <pt x="1129" y="141" on="1"/>
        <pt x="1129" y="102" on="0"/>
        <pt x="1121" y="36" on="0"/>
        <pt x="1102" y="-30" on="0"/>
        <pt x="1071" y="-100" on="0"/>
        <pt x="1048" y="-143" on="1"/>
      </contour>
    </TTGlyph>
    <TTGlyph name="F_F_K.sc" xMin="91" yMin="0" xMax="1535" yMax="577">
      <contour>
        <pt x="91" y="577" on="1"/>
        <pt x="473" y="577" on="1"/>
        <pt x="473" y="533" on="1"/>
        <pt x="141" y="533" on="1"/>
        <pt x="141" y="311" on="1"/>
        <pt x="444" y="311" on="1"/>
        <pt x="444" y="269" on="1"/>
        <pt x="141" y="269" on="1"/>
        <pt x="141" y="0" on="1"/>
        <pt x="91" y="0" on="1"/>
      </contour>
      <contour>
        <pt x="580" y="577" on="1"/>
        <pt x="962" y="577" on="1"/>
        <pt x="962" y="533" on="1"/>
        <pt x="630" y="533" on="1"/>
        <pt x="630" y="311" on="1"/>
        <pt x="933" y="311" on="1"/>
        <pt x="933" y="269" on="1"/>
        <pt x="630" y="269" on="1"/>
        <pt x="630" y="0" on="1"/>
        <pt x="580" y="0" on="1"/>
      </contour>
      <contour>
        <pt x="1068" y="577" on="1"/>
        <pt x="1118" y="577" on="1"/>
        <pt x="1118" y="316" on="1"/>
        <pt x="1253" y="316" on="1"/>
        <pt x="1460" y="577" on="1"/>
        <pt x="1520" y="577" on="1"/>
        <pt x="1315" y="318" on="1"/>
        <pt x="1290" y="299" on="1"/>
        <pt x="1290" y="294" on="1"/>
        <pt x="1317" y="275" on="1"/>
        <pt x="1535" y="0" on="1"/>
        <pt x="1476" y="0" on="1"/>
        <pt x="1259" y="272" on="1"/>
        <pt x="1118" y="272" on="1"/>
        <pt x="1118" y="0" on="1"/>
        <pt x="1068" y="0" on="1"/>
      </contour>
    </TTGlyph>
    <TTGlyph name="F_F_L.sc" xMin="91" yMin="0" xMax="1418" yMax="577">
      <contour>
        <pt x="1068" y="577" on="1"/>
        <pt x="1118" y="577" on="1"/>
        <pt x="1118" y="44" on="1"/>
        <pt x="1418" y="44" on="1"/>
        <pt x="1418" y="0" on="1"/>
        <pt x="1068" y="0" on="1"/>
      </contour>
      <contour>
        <pt x="91" y="577" on="1"/>
        <pt x="473" y="577" on="1"/>
        <pt x="473" y="533" on="1"/>
        <pt x="141" y="533" on="1"/>
        <pt x="141" y="311" on="1"/>
        <pt x="444" y="311" on="1"/>
        <pt x="444" y="269" on="1"/>
        <pt x="141" y="269" on="1"/>
        <pt x="141" y="0" on="1"/>
        <pt x="91" y="0" on="1"/>
      </contour>
      <contour>
        <pt x="580" y="577" on="1"/>
        <pt x="962" y="577" on="1"/>
        <pt x="962" y="533" on="1"/>
        <pt x="630" y="533" on="1"/>
        <pt x="630" y="311" on="1"/>
        <pt x="933" y="311" on="1"/>
        <pt x="933" y="269" on="1"/>
        <pt x="630" y="269" on="1"/>
        <pt x="630" y="0" on="1"/>
        <pt x="580" y="0" on="1"/>
      </contour>
    </TTGlyph>
    <TTGlyph name="F_F_T.sc" xMin="91" yMin="0" xMax="1471" yMax="577">
      <contour>
        <pt x="1207" y="533" on="1"/>
        <pt x="992" y="533" on="1"/>
        <pt x="992" y="577" on="1"/>
        <pt x="1471" y="577" on="1"/>
        <pt x="1471" y="533" on="1"/>
        <pt x="1257" y="533" on="1"/>
        <pt x="1257" y="0" on="1"/>
        <pt x="1207" y="0" on="1"/>
      </contour>
      <contour>
        <pt x="91" y="577" on="1"/>
        <pt x="473" y="577" on="1"/>
        <pt x="473" y="533" on="1"/>
        <pt x="141" y="533" on="1"/>
        <pt x="141" y="311" on="1"/>
        <pt x="444" y="311" on="1"/>
        <pt x="444" y="269" on="1"/>
        <pt x="141" y="269" on="1"/>
        <pt x="141" y="0" on="1"/>
        <pt x="91" y="0" on="1"/>
      </contour>
      <contour>
        <pt x="580" y="577" on="1"/>
        <pt x="962" y="577" on="1"/>
        <pt x="962" y="533" on="1"/>
        <pt x="630" y="533" on="1"/>
        <pt x="630" y="311" on="1"/>
        <pt x="933" y="311" on="1"/>
        <pt x="933" y="269" on="1"/>
        <pt x="630" y="269" on="1"/>
        <pt x="630" y="0" on="1"/>
        <pt x="580" y="0" on="1"/>
      </contour>
    </TTGlyph>
    <TTGlyph name="F_H.sc" xMin="91" yMin="0" xMax="1064" yMax="577">
      <contour>
        <pt x="91" y="577" on="1"/>
        <pt x="473" y="577" on="1"/>
        <pt x="473" y="533" on="1"/>
        <pt x="141" y="533" on="1"/>
        <pt x="141" y="311" on="1"/>
        <pt x="444" y="311" on="1"/>
        <pt x="444" y="269" on="1"/>
        <pt x="141" y="269" on="1"/>
        <pt x="141" y="0" on="1"/>
        <pt x="91" y="0" on="1"/>
      </contour>
      <contour>
        <pt x="580" y="577" on="1"/>
        <pt x="630" y="577" on="1"/>
        <pt x="630" y="318" on="1"/>
        <pt x="1013" y="318" on="1"/>
        <pt x="1013" y="577" on="1"/>
        <pt x="1064" y="577" on="1"/>
        <pt x="1064" y="0" on="1"/>
        <pt x="1013" y="0" on="1"/>
        <pt x="1013" y="274" on="1"/>
        <pt x="630" y="274" on="1"/>
        <pt x="630" y="0" on="1"/>
        <pt x="580" y="0" on="1"/>
      </contour>
    </TTGlyph>
    <TTGlyph name="F_I.sc" xMin="91" yMin="0" xMax="630" yMax="577">
      <contour>
        <pt x="91" y="577" on="1"/>
        <pt x="473" y="577" on="1"/>
        <pt x="473" y="533" on="1"/>
        <pt x="141" y="533" on="1"/>
        <pt x="141" y="311" on="1"/>
        <pt x="444" y="311" on="1"/>
        <pt x="444" y="269" on="1"/>
        <pt x="141" y="269" on="1"/>
        <pt x="141" y="0" on="1"/>
        <pt x="91" y="0" on="1"/>
      </contour>
      <contour>
        <pt x="580" y="577" on="1"/>
        <pt x="630" y="577" on="1"/>
        <pt x="630" y="0" on="1"/>
        <pt x="580" y="0" on="1"/>
      </contour>
    </TTGlyph>
    <TTGlyph name="F_J.sc" xMin="91" yMin="-143" xMax="640" yMax="577">
      <contour>
        <pt x="91" y="577" on="1"/>
        <pt x="473" y="577" on="1"/>
        <pt x="473" y="533" on="1"/>
        <pt x="141" y="533" on="1"/>
        <pt x="141" y="311" on="1"/>
        <pt x="444" y="311" on="1"/>
        <pt x="444" y="269" on="1"/>
        <pt x="141" y="269" on="1"/>
        <pt x="141" y="0" on="1"/>
        <pt x="91" y="0" on="1"/>
      </contour>
      <contour>
        <pt x="522" y="-125" on="1"/>
        <pt x="542" y="-88" on="0"/>
        <pt x="568" y="-24" on="0"/>
        <pt x="584" y="38" on="0"/>
        <pt x="590" y="104" on="0"/>
        <pt x="590" y="143" on="1"/>
        <pt x="590" y="577" on="1"/>
        <pt x="640" y="577" on="1"/>
        <pt x="640" y="141" on="1"/>
        <pt x="640" y="102" on="0"/>
        <pt x="632" y="36" on="0"/>
        <pt x="613" y="-30" on="0"/>
        <pt x="582" y="-100" on="0"/>
        <pt x="559" y="-143" on="1"/>
      </contour>
    </TTGlyph>
    <TTGlyph name="F_K.sc" xMin="91" yMin="0" xMax="1047" yMax="577">
      <contour>
        <pt x="91" y="577" on="1"/>
        <pt x="473" y="577" on="1"/>
        <pt x="473" y="533" on="1"/>
        <pt x="141" y="533" on="1"/>
        <pt x="141" y="311" on="1"/>
        <pt x="444" y="311" on="1"/>
        <pt x="444" y="269" on="1"/>
        <pt x="141" y="269" on="1"/>
        <pt x="141" y="0" on="1"/>
        <pt x="91" y="0" on="1"/>
      </contour>
      <contour>
        <pt x="580" y="577" on="1"/>
        <pt x="630" y="577" on="1"/>
        <pt x="630" y="316" on="1"/>
        <pt x="765" y="316" on="1"/>
        <pt x="972" y="577" on="1"/>
        <pt x="1032" y="577" on="1"/>
        <pt x="827" y="318" on="1"/>
        <pt x="802" y="299" on="1"/>
        <pt x="802" y="294" on="1"/>
        <pt x="829" y="275" on="1"/>
        <pt x="1047" y="0" on="1"/>
        <pt x="988" y="0" on="1"/>
        <pt x="771" y="272" on="1"/>
        <pt x="630" y="272" on="1"/>
        <pt x="630" y="0" on="1"/>
        <pt x="580" y="0" on="1"/>
      </contour>
    </TTGlyph>
    <TTGlyph name="F_L.sc" xMin="91" yMin="0" xMax="930" yMax="577">
      <contour>
        <pt x="580" y="577" on="1"/>
        <pt x="630" y="577" on="1"/>
        <pt x="630" y="44" on="1"/>
        <pt x="930" y="44" on="1"/>
        <pt x="930" y="0" on="1"/>
        <pt x="580" y="0" on="1"/>
      </contour>
      <contour>
        <pt x="91" y="577" on="1"/>
        <pt x="473" y="577" on="1"/>
        <pt x="473" y="533" on="1"/>
        <pt x="141" y="533" on="1"/>
        <pt x="141" y="311" on="1"/>
        <pt x="444" y="311" on="1"/>
        <pt x="444" y="269" on="1"/>
        <pt x="141" y="269" on="1"/>
        <pt x="141" y="0" on="1"/>
        <pt x="91" y="0" on="1"/>
      </contour>
    </TTGlyph>
    <TTGlyph name="F_T.sc" xMin="91" yMin="0" xMax="982" yMax="577">
      <contour>
        <pt x="718" y="533" on="1"/>
        <pt x="503" y="533" on="1"/>
        <pt x="503" y="577" on="1"/>
        <pt x="982" y="577" on="1"/>
        <pt x="982" y="533" on="1"/>
        <pt x="768" y="533" on="1"/>
        <pt x="768" y="0" on="1"/>
        <pt x="718" y="0" on="1"/>
      </contour>
      <contour>
        <pt x="91" y="577" on="1"/>
        <pt x="473" y="577" on="1"/>
        <pt x="473" y="533" on="1"/>
        <pt x="141" y="533" on="1"/>
        <pt x="141" y="311" on="1"/>
        <pt x="444" y="311" on="1"/>
        <pt x="444" y="269" on="1"/>
        <pt x="141" y="269" on="1"/>
        <pt x="141" y="0" on="1"/>
        <pt x="91" y="0" on="1"/>
      </contour>
    </TTGlyph>
    <TTGlyph name="G" xMin="57" yMin="-8" xMax="574" yMax="749">
      <contour>
        <pt x="385" y="-8" on="1"/>
        <pt x="57" y="-8" on="0"/>
        <pt x="57" y="368" on="1"/>
        <pt x="57" y="749" on="0"/>
        <pt x="393" y="749" on="1"/>
        <pt x="474" y="749" on="0"/>
        <pt x="570" y="725" on="1"/>
        <pt x="570" y="677" on="1"/>
        <pt x="541" y="684" on="0"/>
        <pt x="494" y="694" on="0"/>
        <pt x="453" y="700" on="0"/>
        <pt x="416" y="702" on="0"/>
        <pt x="396" y="702" on="1"/>
        <pt x="109" y="702" on="0"/>
        <pt x="109" y="369" on="1"/>
        <pt x="109" y="204" on="0"/>
        <pt x="247" y="39" on="0"/>
        <pt x="384" y="39" on="1"/>
        <pt x="397" y="39" on="0"/>
        <pt x="432" y="42" on="0"/>
        <pt x="470" y="46" on="0"/>
        <pt x="508" y="53" on="0"/>
        <pt x="525" y="56" on="1"/>
        <pt x="525" y="376" on="1"/>
        <pt x="574" y="376" on="1"/>
        <pt x="574" y="21" on="1"/>
        <pt x="529" y="7" on="0"/>
        <pt x="425" y="-8" on="0"/>
      </contour>
    </TTGlyph>
    <TTGlyph name="G.sc" xMin="57" yMin="-7" xMax="508" yMax="584">
      <contour>
        <pt x="340" y="-7" on="1"/>
        <pt x="57" y="-5" on="0"/>
        <pt x="57" y="287" on="1"/>
        <pt x="57" y="584" on="0"/>
        <pt x="348" y="584" on="1"/>
        <pt x="383" y="584" on="0"/>
        <pt x="461" y="575" on="0"/>
        <pt x="503" y="565" on="1"/>
        <pt x="503" y="520" on="1"/>
        <pt x="452" y="531" on="0"/>
        <pt x="385" y="540" on="0"/>
        <pt x="351" y="540" on="1"/>
        <pt x="108" y="540" on="0"/>
        <pt x="108" y="288" on="1"/>
        <pt x="108" y="39" on="0"/>
        <pt x="341" y="39" on="1"/>
        <pt x="352" y="39" on="0"/>
        <pt x="382" y="41" on="0"/>
        <pt x="415" y="44" on="0"/>
        <pt x="447" y="49" on="0"/>
        <pt x="460" y="52" on="1"/>
        <pt x="460" y="293" on="1"/>
        <pt x="508" y="293" on="1"/>
        <pt x="508" y="17" on="1"/>
        <pt x="488" y="12" on="0"/>
        <pt x="444" y="3" on="0"/>
        <pt x="400" y="-3" on="0"/>
        <pt x="358" y="-7" on="0"/>
      </contour>
    </TTGlyph>
    <TTGlyph name="Gacute" xMin="57" yMin="-8" xMax="574" yMax="932">
      <contour>
        <pt x="327" y="805" on="1"/>
        <pt x="404" y="932" on="1"/>
        <pt x="459" y="932" on="1"/>
        <pt x="370" y="799" on="1"/>
      </contour>
      <contour>
        <pt x="385" y="-8" on="1"/>
        <pt x="57" y="-8" on="0"/>
        <pt x="57" y="368" on="1"/>
        <pt x="57" y="749" on="0"/>
        <pt x="393" y="749" on="1"/>
        <pt x="474" y="749" on="0"/>
        <pt x="570" y="725" on="1"/>
        <pt x="570" y="677" on="1"/>
        <pt x="541" y="684" on="0"/>
        <pt x="494" y="694" on="0"/>
        <pt x="453" y="700" on="0"/>
        <pt x="416" y="702" on="0"/>
        <pt x="396" y="702" on="1"/>
        <pt x="109" y="702" on="0"/>
        <pt x="109" y="369" on="1"/>
        <pt x="109" y="204" on="0"/>
        <pt x="247" y="39" on="0"/>
        <pt x="384" y="39" on="1"/>
        <pt x="397" y="39" on="0"/>
        <pt x="432" y="42" on="0"/>
        <pt x="470" y="46" on="0"/>
        <pt x="508" y="53" on="0"/>
        <pt x="525" y="56" on="1"/>
        <pt x="525" y="376" on="1"/>
        <pt x="574" y="376" on="1"/>
        <pt x="574" y="21" on="1"/>
        <pt x="529" y="7" on="0"/>
        <pt x="425" y="-8" on="0"/>
      </contour>
    </TTGlyph>
    <TTGlyph name="Gacute.sc" xMin="57" yMin="-7" xMax="508" yMax="732">
      <contour>
        <pt x="340" y="-7" on="1"/>
        <pt x="57" y="-5" on="0"/>
        <pt x="57" y="287" on="1"/>
        <pt x="57" y="584" on="0"/>
        <pt x="348" y="584" on="1"/>
        <pt x="383" y="584" on="0"/>
        <pt x="461" y="575" on="0"/>
        <pt x="503" y="565" on="1"/>
        <pt x="503" y="520" on="1"/>
        <pt x="452" y="531" on="0"/>
        <pt x="385" y="540" on="0"/>
        <pt x="351" y="540" on="1"/>
        <pt x="108" y="540" on="0"/>
        <pt x="108" y="288" on="1"/>
        <pt x="108" y="39" on="0"/>
        <pt x="341" y="39" on="1"/>
        <pt x="352" y="39" on="0"/>
        <pt x="382" y="41" on="0"/>
        <pt x="415" y="44" on="0"/>
        <pt x="447" y="49" on="0"/>
        <pt x="460" y="52" on="1"/>
        <pt x="460" y="293" on="1"/>
        <pt x="508" y="293" on="1"/>
        <pt x="508" y="17" on="1"/>
        <pt x="488" y="12" on="0"/>
        <pt x="444" y="3" on="0"/>
        <pt x="400" y="-3" on="0"/>
        <pt x="358" y="-7" on="0"/>
      </contour>
      <contour>
        <pt x="289" y="629" on="1"/>
        <pt x="354" y="732" on="1"/>
        <pt x="407" y="732" on="1"/>
        <pt x="330" y="625" on="1"/>
      </contour>
    </TTGlyph>
    <TTGlyph name="Gbreve" xMin="57" yMin="-8" xMax="574" yMax="952">
      <contour>
        <pt x="355" y="815" on="1"/>
        <pt x="276" y="815" on="0"/>
        <pt x="191" y="889" on="0"/>
        <pt x="191" y="952" on="1"/>
        <pt x="235" y="952" on="1"/>
        <pt x="235" y="907" on="0"/>
        <pt x="298" y="855" on="0"/>
        <pt x="355" y="855" on="1"/>
        <pt x="413" y="855" on="0"/>
        <pt x="476" y="907" on="0"/>
        <pt x="476" y="952" on="1"/>
        <pt x="521" y="952" on="1"/>
        <pt x="521" y="889" on="0"/>
        <pt x="434" y="815" on="0"/>
      </contour>
      <contour>
        <pt x="385" y="-8" on="1"/>
        <pt x="57" y="-8" on="0"/>
        <pt x="57" y="368" on="1"/>
        <pt x="57" y="749" on="0"/>
        <pt x="393" y="749" on="1"/>
        <pt x="474" y="749" on="0"/>
        <pt x="570" y="725" on="1"/>
        <pt x="570" y="677" on="1"/>
        <pt x="541" y="684" on="0"/>
        <pt x="494" y="694" on="0"/>
        <pt x="453" y="700" on="0"/>
        <pt x="416" y="702" on="0"/>
        <pt x="396" y="702" on="1"/>
        <pt x="109" y="702" on="0"/>
        <pt x="109" y="369" on="1"/>
        <pt x="109" y="204" on="0"/>
        <pt x="247" y="39" on="0"/>
        <pt x="384" y="39" on="1"/>
        <pt x="397" y="39" on="0"/>
        <pt x="432" y="42" on="0"/>
        <pt x="470" y="46" on="0"/>
        <pt x="508" y="53" on="0"/>
        <pt x="525" y="56" on="1"/>
        <pt x="525" y="376" on="1"/>
        <pt x="574" y="376" on="1"/>
        <pt x="574" y="21" on="1"/>
        <pt x="529" y="7" on="0"/>
        <pt x="425" y="-8" on="0"/>
      </contour>
    </TTGlyph>
    <TTGlyph name="Gbreve.sc" xMin="57" yMin="-7" xMax="508" yMax="746">
      <contour>
        <pt x="340" y="-7" on="1"/>
        <pt x="57" y="-5" on="0"/>
        <pt x="57" y="287" on="1"/>
        <pt x="57" y="584" on="0"/>
        <pt x="348" y="584" on="1"/>
        <pt x="383" y="584" on="0"/>
        <pt x="461" y="575" on="0"/>
        <pt x="503" y="565" on="1"/>
        <pt x="503" y="520" on="1"/>
        <pt x="452" y="531" on="0"/>
        <pt x="385" y="540" on="0"/>
        <pt x="351" y="540" on="1"/>
        <pt x="108" y="540" on="0"/>
        <pt x="108" y="288" on="1"/>
        <pt x="108" y="39" on="0"/>
        <pt x="341" y="39" on="1"/>
        <pt x="352" y="39" on="0"/>
        <pt x="382" y="41" on="0"/>
        <pt x="415" y="44" on="0"/>
        <pt x="447" y="49" on="0"/>
        <pt x="460" y="52" on="1"/>
        <pt x="460" y="293" on="1"/>
        <pt x="508" y="293" on="1"/>
        <pt x="508" y="17" on="1"/>
        <pt x="488" y="12" on="0"/>
        <pt x="444" y="3" on="0"/>
        <pt x="400" y="-3" on="0"/>
        <pt x="358" y="-7" on="0"/>
      </contour>
      <contour>
        <pt x="316" y="635" on="1"/>
        <pt x="246" y="635" on="0"/>
        <pt x="171" y="695" on="0"/>
        <pt x="171" y="746" on="1"/>
        <pt x="212" y="746" on="1"/>
        <pt x="212" y="710" on="0"/>
        <pt x="265" y="670" on="0"/>
        <pt x="316" y="670" on="1"/>
        <pt x="366" y="670" on="0"/>
        <pt x="419" y="710" on="0"/>
        <pt x="419" y="746" on="1"/>
        <pt x="461" y="746" on="1"/>
        <pt x="461" y="695" on="0"/>
        <pt x="386" y="635" on="0"/>
      </contour>
    </TTGlyph>
    <TTGlyph name="Gcircumflex" xMin="57" yMin="-8" xMax="574" yMax="940">
      <contour>
        <pt x="385" y="-8" on="1"/>
        <pt x="57" y="-8" on="0"/>
        <pt x="57" y="368" on="1"/>
        <pt x="57" y="749" on="0"/>
        <pt x="393" y="749" on="1"/>
        <pt x="474" y="749" on="0"/>
        <pt x="570" y="725" on="1"/>
        <pt x="570" y="677" on="1"/>
        <pt x="541" y="684" on="0"/>
        <pt x="494" y="694" on="0"/>
        <pt x="453" y="700" on="0"/>
        <pt x="416" y="702" on="0"/>
        <pt x="396" y="702" on="1"/>
        <pt x="109" y="702" on="0"/>
        <pt x="109" y="369" on="1"/>
        <pt x="109" y="204" on="0"/>
        <pt x="247" y="39" on="0"/>
        <pt x="384" y="39" on="1"/>
        <pt x="397" y="39" on="0"/>
        <pt x="432" y="42" on="0"/>
        <pt x="470" y="46" on="0"/>
        <pt x="508" y="53" on="0"/>
        <pt x="525" y="56" on="1"/>
        <pt x="525" y="376" on="1"/>
        <pt x="574" y="376" on="1"/>
        <pt x="574" y="21" on="1"/>
        <pt x="529" y="7" on="0"/>
        <pt x="425" y="-8" on="0"/>
      </contour>
      <contour>
        <pt x="205" y="867" on="1"/>
        <pt x="356" y="940" on="1"/>
        <pt x="506" y="867" on="1"/>
        <pt x="506" y="817" on="1"/>
        <pt x="356" y="889" on="1"/>
        <pt x="205" y="817" on="1"/>
      </contour>
    </TTGlyph>
    <TTGlyph name="Gcircumflex.sc" xMin="57" yMin="-7" xMax="508" yMax="738">
      <contour>
        <pt x="340" y="-7" on="1"/>
        <pt x="57" y="-5" on="0"/>
        <pt x="57" y="287" on="1"/>
        <pt x="57" y="584" on="0"/>
        <pt x="348" y="584" on="1"/>
        <pt x="383" y="584" on="0"/>
        <pt x="461" y="575" on="0"/>
        <pt x="503" y="565" on="1"/>
        <pt x="503" y="520" on="1"/>
        <pt x="452" y="531" on="0"/>
        <pt x="385" y="540" on="0"/>
        <pt x="351" y="540" on="1"/>
        <pt x="108" y="540" on="0"/>
        <pt x="108" y="288" on="1"/>
        <pt x="108" y="39" on="0"/>
        <pt x="341" y="39" on="1"/>
        <pt x="352" y="39" on="0"/>
        <pt x="382" y="41" on="0"/>
        <pt x="415" y="44" on="0"/>
        <pt x="447" y="49" on="0"/>
        <pt x="460" y="52" on="1"/>
        <pt x="460" y="293" on="1"/>
        <pt x="508" y="293" on="1"/>
        <pt x="508" y="17" on="1"/>
        <pt x="488" y="12" on="0"/>
        <pt x="444" y="3" on="0"/>
        <pt x="400" y="-3" on="0"/>
        <pt x="358" y="-7" on="0"/>
      </contour>
      <contour>
        <pt x="182" y="680" on="1"/>
        <pt x="314" y="738" on="1"/>
        <pt x="447" y="680" on="1"/>
        <pt x="447" y="636" on="1"/>
        <pt x="315" y="692" on="1"/>
        <pt x="182" y="636" on="1"/>
      </contour>
    </TTGlyph>
    <TTGlyph name="Gcommaaccent" xMin="57" yMin="-220" xMax="574" yMax="749">
      <contour>
        <pt x="340" y="-69" on="1"/>
        <pt x="394" y="-69" on="1"/>
        <pt x="336" y="-220" on="1"/>
        <pt x="289" y="-220" on="1"/>
      </contour>
      <contour>
        <pt x="385" y="-8" on="1"/>
        <pt x="57" y="-8" on="0"/>
        <pt x="57" y="368" on="1"/>
        <pt x="57" y="749" on="0"/>
        <pt x="393" y="749" on="1"/>
        <pt x="474" y="749" on="0"/>
        <pt x="570" y="725" on="1"/>
        <pt x="570" y="677" on="1"/>
        <pt x="541" y="684" on="0"/>
        <pt x="494" y="694" on="0"/>
        <pt x="453" y="700" on="0"/>
        <pt x="416" y="702" on="0"/>
        <pt x="396" y="702" on="1"/>
        <pt x="109" y="702" on="0"/>
        <pt x="109" y="369" on="1"/>
        <pt x="109" y="204" on="0"/>
        <pt x="247" y="39" on="0"/>
        <pt x="384" y="39" on="1"/>
        <pt x="397" y="39" on="0"/>
        <pt x="432" y="42" on="0"/>
        <pt x="470" y="46" on="0"/>
        <pt x="508" y="53" on="0"/>
        <pt x="525" y="56" on="1"/>
        <pt x="525" y="376" on="1"/>
        <pt x="574" y="376" on="1"/>
        <pt x="574" y="21" on="1"/>
        <pt x="529" y="7" on="0"/>
        <pt x="425" y="-8" on="0"/>
      </contour>
    </TTGlyph>
    <TTGlyph name="Gcommaaccent.sc" xMin="57" yMin="-172" xMax="508" yMax="584">
      <contour>
        <pt x="340" y="-7" on="1"/>
        <pt x="57" y="-5" on="0"/>
        <pt x="57" y="287" on="1"/>
        <pt x="57" y="584" on="0"/>
        <pt x="348" y="584" on="1"/>
        <pt x="383" y="584" on="0"/>
        <pt x="461" y="575" on="0"/>
        <pt x="503" y="565" on="1"/>
        <pt x="503" y="520" on="1"/>
        <pt x="452" y="531" on="0"/>
        <pt x="385" y="540" on="0"/>
        <pt x="351" y="540" on="1"/>
        <pt x="108" y="540" on="0"/>
        <pt x="108" y="288" on="1"/>
        <pt x="108" y="39" on="0"/>
        <pt x="341" y="39" on="1"/>
        <pt x="352" y="39" on="0"/>
        <pt x="382" y="41" on="0"/>
        <pt x="415" y="44" on="0"/>
        <pt x="447" y="49" on="0"/>
        <pt x="460" y="52" on="1"/>
        <pt x="460" y="293" on="1"/>
        <pt x="508" y="293" on="1"/>
        <pt x="508" y="17" on="1"/>
        <pt x="488" y="12" on="0"/>
        <pt x="444" y="3" on="0"/>
        <pt x="400" y="-3" on="0"/>
        <pt x="358" y="-7" on="0"/>
      </contour>
      <contour>
        <pt x="298" y="-54" on="1"/>
        <pt x="351" y="-54" on="1"/>
        <pt x="300" y="-172" on="1"/>
        <pt x="256" y="-172" on="1"/>
      </contour>
    </TTGlyph>
    <TTGlyph name="Gdotaccent" xMin="57" yMin="-8" xMax="574" yMax="898">
      <contour>
        <pt x="356" y="818" on="1"/>
        <pt x="338" y="818" on="0"/>
        <pt x="317" y="837" on="0"/>
        <pt x="317" y="858" on="1"/>
        <pt x="317" y="878" on="0"/>
        <pt x="338" y="898" on="0"/>
        <pt x="356" y="898" on="1"/>
        <pt x="373" y="898" on="0"/>
        <pt x="397" y="879" on="0"/>
        <pt x="397" y="858" on="1"/>
        <pt x="397" y="837" on="0"/>
        <pt x="373" y="818" on="0"/>
      </contour>
      <contour>
        <pt x="385" y="-8" on="1"/>
        <pt x="57" y="-8" on="0"/>
        <pt x="57" y="368" on="1"/>
        <pt x="57" y="749" on="0"/>
        <pt x="393" y="749" on="1"/>
        <pt x="474" y="749" on="0"/>
        <pt x="570" y="725" on="1"/>
        <pt x="570" y="677" on="1"/>
        <pt x="541" y="684" on="0"/>
        <pt x="494" y="694" on="0"/>
        <pt x="453" y="700" on="0"/>
        <pt x="416" y="702" on="0"/>
        <pt x="396" y="702" on="1"/>
        <pt x="109" y="702" on="0"/>
        <pt x="109" y="369" on="1"/>
        <pt x="109" y="204" on="0"/>
        <pt x="247" y="39" on="0"/>
        <pt x="384" y="39" on="1"/>
        <pt x="397" y="39" on="0"/>
        <pt x="432" y="42" on="0"/>
        <pt x="470" y="46" on="0"/>
        <pt x="508" y="53" on="0"/>
        <pt x="525" y="56" on="1"/>
        <pt x="525" y="376" on="1"/>
        <pt x="574" y="376" on="1"/>
        <pt x="574" y="21" on="1"/>
        <pt x="529" y="7" on="0"/>
        <pt x="425" y="-8" on="0"/>
      </contour>
    </TTGlyph>
    <TTGlyph name="Gdotaccent.sc" xMin="57" yMin="-7" xMax="508" yMax="709">
      <contour>
        <pt x="340" y="-7" on="1"/>
        <pt x="57" y="-5" on="0"/>
        <pt x="57" y="287" on="1"/>
        <pt x="57" y="584" on="0"/>
        <pt x="348" y="584" on="1"/>
        <pt x="383" y="584" on="0"/>
        <pt x="461" y="575" on="0"/>
        <pt x="503" y="565" on="1"/>
        <pt x="503" y="520" on="1"/>
        <pt x="452" y="531" on="0"/>
        <pt x="385" y="540" on="0"/>
        <pt x="351" y="540" on="1"/>
        <pt x="108" y="540" on="0"/>
        <pt x="108" y="288" on="1"/>
        <pt x="108" y="39" on="0"/>
        <pt x="341" y="39" on="1"/>
        <pt x="352" y="39" on="0"/>
        <pt x="382" y="41" on="0"/>
        <pt x="415" y="44" on="0"/>
        <pt x="447" y="49" on="0"/>
        <pt x="460" y="52" on="1"/>
        <pt x="460" y="293" on="1"/>
        <pt x="508" y="293" on="1"/>
        <pt x="508" y="17" on="1"/>
        <pt x="488" y="12" on="0"/>
        <pt x="444" y="3" on="0"/>
        <pt x="400" y="-3" on="0"/>
        <pt x="358" y="-7" on="0"/>
      </contour>
      <contour>
        <pt x="317" y="638" on="1"/>
        <pt x="300" y="638" on="0"/>
        <pt x="279" y="654" on="0"/>
        <pt x="279" y="674" on="1"/>
        <pt x="279" y="692" on="0"/>
        <pt x="300" y="709" on="0"/>
        <pt x="317" y="709" on="1"/>
        <pt x="333" y="709" on="0"/>
        <pt x="354" y="692" on="0"/>
        <pt x="354" y="674" on="1"/>
        <pt x="354" y="655" on="0"/>
        <pt x="333" y="638" on="0"/>
      </contour>
    </TTGlyph>
    <TTGlyph name="H" xMin="96" yMin="0" xMax="648" yMax="740">
      <contour>
        <pt x="96" y="740" on="1"/>
        <pt x="148" y="740" on="1"/>
        <pt x="148" y="403" on="1"/>
        <pt x="597" y="403" on="1"/>
        <pt x="597" y="740" on="1"/>
        <pt x="648" y="740" on="1"/>
        <pt x="648" y="0" on="1"/>
        <pt x="597" y="0" on="1"/>
        <pt x="597" y="356" on="1"/>
        <pt x="148" y="356" on="1"/>
        <pt x="148" y="0" on="1"/>
        <pt x="96" y="0" on="1"/>
      </contour>
    </TTGlyph>
    <TTGlyph name="H.sc" xMin="91" yMin="0" xMax="575" yMax="577">
      <contour>
        <pt x="91" y="577" on="1"/>
        <pt x="141" y="577" on="1"/>
        <pt x="141" y="318" on="1"/>
        <pt x="524" y="318" on="1"/>
        <pt x="524" y="577" on="1"/>
        <pt x="575" y="577" on="1"/>
        <pt x="575" y="0" on="1"/>
        <pt x="524" y="0" on="1"/>
        <pt x="524" y="274" on="1"/>
        <pt x="141" y="274" on="1"/>
        <pt x="141" y="0" on="1"/>
        <pt x="91" y="0" on="1"/>
      </contour>
    </TTGlyph>
    <TTGlyph name="Hbar" xMin="7" yMin="0" xMax="754" yMax="740">
      <contour>
        <pt x="7" y="587" on="1"/>
        <pt x="104" y="587" on="1"/>
        <pt x="104" y="740" on="1"/>
        <pt x="156" y="740" on="1"/>
        <pt x="156" y="587" on="1"/>
        <pt x="605" y="587" on="1"/>
        <pt x="605" y="740" on="1"/>
        <pt x="656" y="740" on="1"/>
        <pt x="656" y="587" on="1"/>
        <pt x="754" y="587" on="1"/>
        <pt x="754" y="549" on="1"/>
        <pt x="656" y="549" on="1"/>
        <pt x="656" y="0" on="1"/>
        <pt x="605" y="0" on="1"/>
        <pt x="605" y="356" on="1"/>
        <pt x="156" y="356" on="1"/>
        <pt x="156" y="0" on="1"/>
        <pt x="104" y="0" on="1"/>
        <pt x="104" y="549" on="1"/>
        <pt x="7" y="549" on="1"/>
      </contour>
      <contour>
        <pt x="605" y="403" on="1"/>
        <pt x="605" y="549" on="1"/>
        <pt x="156" y="549" on="1"/>
        <pt x="156" y="403" on="1"/>
      </contour>
    </TTGlyph>
    <TTGlyph name="Hbar.sc" xMin="15" yMin="0" xMax="664" yMax="577">
      <contour>
        <pt x="15" y="461" on="1"/>
        <pt x="97" y="461" on="1"/>
        <pt x="97" y="577" on="1"/>
        <pt x="147" y="577" on="1"/>
        <pt x="147" y="461" on="1"/>
        <pt x="530" y="461" on="1"/>
        <pt x="530" y="577" on="1"/>
        <pt x="581" y="577" on="1"/>
        <pt x="581" y="461" on="1"/>
        <pt x="664" y="461" on="1"/>
        <pt x="664" y="427" on="1"/>
        <pt x="581" y="427" on="1"/>
        <pt x="581" y="0" on="1"/>
        <pt x="530" y="0" on="1"/>
        <pt x="530" y="273" on="1"/>
        <pt x="147" y="273" on="1"/>
        <pt x="147" y="0" on="1"/>
        <pt x="97" y="0" on="1"/>
        <pt x="97" y="427" on="1"/>
        <pt x="15" y="427" on="1"/>
      </contour>
      <contour>
        <pt x="530" y="316" on="1"/>
        <pt x="530" y="427" on="1"/>
        <pt x="147" y="427" on="1"/>
        <pt x="147" y="316" on="1"/>
      </contour>
    </TTGlyph>
    <TTGlyph name="Hcircumflex" xMin="96" yMin="0" xMax="648" yMax="940">
      <contour>
        <pt x="96" y="740" on="1"/>
        <pt x="148" y="740" on="1"/>
        <pt x="148" y="403" on="1"/>
        <pt x="597" y="403" on="1"/>
        <pt x="597" y="740" on="1"/>
        <pt x="648" y="740" on="1"/>
        <pt x="648" y="0" on="1"/>
        <pt x="597" y="0" on="1"/>
        <pt x="597" y="356" on="1"/>
        <pt x="148" y="356" on="1"/>
        <pt x="148" y="0" on="1"/>
        <pt x="96" y="0" on="1"/>
      </contour>
      <contour>
        <pt x="214" y="867" on="1"/>
        <pt x="365" y="940" on="1"/>
        <pt x="515" y="867" on="1"/>
        <pt x="515" y="817" on="1"/>
        <pt x="365" y="889" on="1"/>
        <pt x="214" y="817" on="1"/>
      </contour>
    </TTGlyph>
    <TTGlyph name="Hcircumflex.sc" xMin="91" yMin="0" xMax="575" yMax="738">
      <contour>
        <pt x="91" y="577" on="1"/>
        <pt x="141" y="577" on="1"/>
        <pt x="141" y="318" on="1"/>
        <pt x="524" y="318" on="1"/>
        <pt x="524" y="577" on="1"/>
        <pt x="575" y="577" on="1"/>
        <pt x="575" y="0" on="1"/>
        <pt x="524" y="0" on="1"/>
        <pt x="524" y="274" on="1"/>
        <pt x="141" y="274" on="1"/>
        <pt x="141" y="0" on="1"/>
        <pt x="91" y="0" on="1"/>
      </contour>
      <contour>
        <pt x="194" y="680" on="1"/>
        <pt x="326" y="738" on="1"/>
        <pt x="459" y="680" on="1"/>
        <pt x="459" y="636" on="1"/>
        <pt x="327" y="692" on="1"/>
        <pt x="194" y="636" on="1"/>
      </contour>
    </TTGlyph>
    <TTGlyph name="Hdotbelow" xMin="96" yMin="-172" xMax="648" yMax="740">
      <contour>
        <pt x="96" y="740" on="1"/>
        <pt x="148" y="740" on="1"/>
        <pt x="148" y="403" on="1"/>
        <pt x="597" y="403" on="1"/>
        <pt x="597" y="740" on="1"/>
        <pt x="648" y="740" on="1"/>
        <pt x="648" y="0" on="1"/>
        <pt x="597" y="0" on="1"/>
        <pt x="597" y="356" on="1"/>
        <pt x="148" y="356" on="1"/>
        <pt x="148" y="0" on="1"/>
        <pt x="96" y="0" on="1"/>
      </contour>
      <contour>
        <pt x="382" y="-172" on="1"/>
        <pt x="363" y="-172" on="0"/>
        <pt x="341" y="-154" on="0"/>
        <pt x="341" y="-131" on="1"/>
        <pt x="341" y="-109" on="0"/>
        <pt x="363" y="-90" on="0"/>
        <pt x="382" y="-90" on="1"/>
        <pt x="401" y="-90" on="0"/>
        <pt x="424" y="-108" on="0"/>
        <pt x="424" y="-131" on="1"/>
        <pt x="424" y="-154" on="0"/>
        <pt x="401" y="-172" on="0"/>
      </contour>
    </TTGlyph>
    <TTGlyph name="Hdotbelow.sc" xMin="91" yMin="-138" xMax="575" yMax="577">
      <contour>
        <pt x="91" y="577" on="1"/>
        <pt x="141" y="577" on="1"/>
        <pt x="141" y="318" on="1"/>
        <pt x="524" y="318" on="1"/>
        <pt x="524" y="577" on="1"/>
        <pt x="575" y="577" on="1"/>
        <pt x="575" y="0" on="1"/>
        <pt x="524" y="0" on="1"/>
        <pt x="524" y="274" on="1"/>
        <pt x="141" y="274" on="1"/>
        <pt x="141" y="0" on="1"/>
        <pt x="91" y="0" on="1"/>
      </contour>
      <contour>
        <pt x="341" y="-138" on="1"/>
        <pt x="305" y="-138" on="0"/>
        <pt x="305" y="-103" on="1"/>
        <pt x="305" y="-68" on="0"/>
        <pt x="341" y="-68" on="1"/>
        <pt x="358" y="-68" on="0"/>
        <pt x="379" y="-84" on="0"/>
        <pt x="379" y="-103" on="1"/>
        <pt x="379" y="-122" on="0"/>
        <pt x="358" y="-138" on="0"/>
      </contour>
    </TTGlyph>
    <TTGlyph name="I" xMin="96" yMin="0" xMax="148" yMax="740">
      <contour>
        <pt x="96" y="740" on="1"/>
        <pt x="148" y="740" on="1"/>
        <pt x="148" y="0" on="1"/>
        <pt x="96" y="0" on="1"/>
      </contour>
    </TTGlyph>
    <TTGlyph name="I.sc" xMin="91" yMin="0" xMax="141" yMax="577">
      <contour>
        <pt x="91" y="577" on="1"/>
        <pt x="141" y="577" on="1"/>
        <pt x="141" y="0" on="1"/>
        <pt x="91" y="0" on="1"/>
      </contour>
    </TTGlyph>
    <TTGlyph name="IJ" xMin="96" yMin="-180" xMax="394" yMax="740">
      <contour>
        <pt x="96" y="740" on="1"/>
        <pt x="148" y="740" on="1"/>
        <pt x="148" y="0" on="1"/>
        <pt x="96" y="0" on="1"/>
      </contour>
      <contour>
        <pt x="262" y="-160" on="1"/>
        <pt x="285" y="-112" on="0"/>
        <pt x="316" y="-31" on="0"/>
        <pt x="334" y="48" on="0"/>
        <pt x="342" y="131" on="0"/>
        <pt x="342" y="182" on="1"/>
        <pt x="342" y="740" on="1"/>
        <pt x="394" y="740" on="1"/>
        <pt x="394" y="180" on="1"/>
        <pt x="394" y="131" on="0"/>
        <pt x="385" y="46" on="0"/>
        <pt x="363" y="-37" on="0"/>
        <pt x="327" y="-126" on="0"/>
        <pt x="300" y="-180" on="1"/>
      </contour>
    </TTGlyph>
    <TTGlyph name="Iacute" xMin="96" yMin="0" xMax="228" yMax="932">
      <contour>
        <pt x="96" y="740" on="1"/>
        <pt x="148" y="740" on="1"/>
        <pt x="148" y="0" on="1"/>
        <pt x="96" y="0" on="1"/>
      </contour>
      <contour>
        <pt x="96" y="805" on="1"/>
        <pt x="173" y="932" on="1"/>
        <pt x="228" y="932" on="1"/>
        <pt x="139" y="799" on="1"/>
      </contour>
    </TTGlyph>
    <TTGlyph name="Iacute.sc" xMin="91" yMin="0" xMax="210" yMax="732">
      <contour>
        <pt x="91" y="577" on="1"/>
        <pt x="141" y="577" on="1"/>
        <pt x="141" y="0" on="1"/>
        <pt x="91" y="0" on="1"/>
      </contour>
      <contour>
        <pt x="91" y="629" on="1"/>
        <pt x="157" y="732" on="1"/>
        <pt x="210" y="732" on="1"/>
        <pt x="133" y="625" on="1"/>
      </contour>
    </TTGlyph>
    <TTGlyph name="Ibreve" xMin="-42" yMin="0" xMax="288" yMax="952">
      <contour>
        <pt x="96" y="740" on="1"/>
        <pt x="148" y="740" on="1"/>
        <pt x="148" y="0" on="1"/>
        <pt x="96" y="0" on="1"/>
      </contour>
      <contour>
        <pt x="122" y="815" on="1"/>
        <pt x="43" y="815" on="0"/>
        <pt x="-42" y="889" on="0"/>
        <pt x="-42" y="952" on="1"/>
        <pt x="2" y="952" on="1"/>
        <pt x="2" y="907" on="0"/>
        <pt x="65" y="855" on="0"/>
        <pt x="122" y="855" on="1"/>
        <pt x="180" y="855" on="0"/>
        <pt x="243" y="907" on="0"/>
        <pt x="243" y="952" on="1"/>
        <pt x="288" y="952" on="1"/>
        <pt x="288" y="889" on="0"/>
        <pt x="201" y="815" on="0"/>
      </contour>
    </TTGlyph>
    <TTGlyph name="Ibreve.sc" xMin="-28" yMin="0" xMax="262" yMax="746">
      <contour>
        <pt x="91" y="577" on="1"/>
        <pt x="141" y="577" on="1"/>
        <pt x="141" y="0" on="1"/>
        <pt x="91" y="0" on="1"/>
      </contour>
      <contour>
        <pt x="117" y="635" on="1"/>
        <pt x="46" y="635" on="0"/>
        <pt x="-28" y="695" on="0"/>
        <pt x="-28" y="746" on="1"/>
        <pt x="13" y="746" on="1"/>
        <pt x="13" y="710" on="0"/>
        <pt x="67" y="670" on="0"/>
        <pt x="117" y="670" on="1"/>
        <pt x="167" y="670" on="0"/>
        <pt x="221" y="710" on="0"/>
        <pt x="221" y="746" on="1"/>
        <pt x="262" y="746" on="1"/>
        <pt x="262" y="695" on="0"/>
        <pt x="187" y="635" on="0"/>
      </contour>
    </TTGlyph>
    <TTGlyph name="Icircumflex" xMin="-27" yMin="0" xMax="274" yMax="940">
      <contour>
        <pt x="96" y="740" on="1"/>
        <pt x="148" y="740" on="1"/>
        <pt x="148" y="0" on="1"/>
        <pt x="96" y="0" on="1"/>
      </contour>
      <contour>
        <pt x="-27" y="867" on="1"/>
        <pt x="124" y="940" on="1"/>
        <pt x="274" y="867" on="1"/>
        <pt x="274" y="817" on="1"/>
        <pt x="124" y="889" on="1"/>
        <pt x="-27" y="817" on="1"/>
      </contour>
    </TTGlyph>
    <TTGlyph name="Icircumflex.sc" xMin="-15" yMin="0" xMax="249" yMax="738">
      <contour>
        <pt x="91" y="577" on="1"/>
        <pt x="141" y="577" on="1"/>
        <pt x="141" y="0" on="1"/>
        <pt x="91" y="0" on="1"/>
      </contour>
      <contour>
        <pt x="-15" y="680" on="1"/>
        <pt x="118" y="738" on="1"/>
        <pt x="249" y="680" on="1"/>
        <pt x="249" y="636" on="1"/>
        <pt x="118" y="692" on="1"/>
        <pt x="-15" y="636" on="1"/>
      </contour>
    </TTGlyph>
    <TTGlyph name="Idblgrave" xMin="-52" yMin="0" xMax="216" yMax="925">
      <contour>
        <pt x="96" y="740" on="1"/>
        <pt x="148" y="740" on="1"/>
        <pt x="148" y="0" on="1"/>
        <pt x="96" y="0" on="1"/>
      </contour>
      <contour>
        <pt x="37" y="793" on="1"/>
        <pt x="-52" y="925" on="1"/>
        <pt x="1" y="925" on="1"/>
        <pt x="79" y="806" on="1"/>
      </contour>
      <contour>
        <pt x="174" y="793" on="1"/>
        <pt x="85" y="925" on="1"/>
        <pt x="139" y="925" on="1"/>
        <pt x="216" y="806" on="1"/>
      </contour>
    </TTGlyph>
    <TTGlyph name="Idblgrave.sc" xMin="-38" yMin="0" xMax="201" yMax="727">
      <contour>
        <pt x="91" y="577" on="1"/>
        <pt x="141" y="577" on="1"/>
        <pt x="141" y="0" on="1"/>
        <pt x="91" y="0" on="1"/>
      </contour>
      <contour>
        <pt x="39" y="619" on="1"/>
        <pt x="-38" y="727" on="1"/>
        <pt x="14" y="727" on="1"/>
        <pt x="80" y="630" on="1"/>
      </contour>
      <contour>
        <pt x="161" y="619" on="1"/>
        <pt x="83" y="727" on="1"/>
        <pt x="135" y="727" on="1"/>
        <pt x="201" y="630" on="1"/>
      </contour>
    </TTGlyph>
    <TTGlyph name="Idieresis" xMin="-40" yMin="0" xMax="287" yMax="905">
      <contour>
        <pt x="96" y="740" on="1"/>
        <pt x="148" y="740" on="1"/>
        <pt x="148" y="0" on="1"/>
        <pt x="96" y="0" on="1"/>
      </contour>
      <contour>
        <pt x="-1" y="826" on="1"/>
        <pt x="-19" y="826" on="0"/>
        <pt x="-40" y="845" on="0"/>
        <pt x="-40" y="865" on="1"/>
        <pt x="-40" y="886" on="0"/>
        <pt x="-19" y="905" on="0"/>
        <pt x="-1" y="905" on="1"/>
        <pt x="16" y="905" on="0"/>
        <pt x="40" y="886" on="0"/>
        <pt x="40" y="865" on="1"/>
        <pt x="40" y="844" on="0"/>
        <pt x="16" y="826" on="0"/>
      </contour>
      <contour>
        <pt x="247" y="826" on="1"/>
        <pt x="207" y="826" on="0"/>
        <pt x="207" y="865" on="1"/>
        <pt x="207" y="905" on="0"/>
        <pt x="247" y="905" on="1"/>
        <pt x="264" y="905" on="0"/>
        <pt x="287" y="886" on="0"/>
        <pt x="287" y="865" on="1"/>
        <pt x="287" y="844" on="0"/>
        <pt x="264" y="826" on="0"/>
      </contour>
    </TTGlyph>
    <TTGlyph name="Idieresis.sc" xMin="-28" yMin="0" xMax="263" yMax="714">
      <contour>
        <pt x="91" y="577" on="1"/>
        <pt x="141" y="577" on="1"/>
        <pt x="141" y="0" on="1"/>
        <pt x="91" y="0" on="1"/>
      </contour>
      <contour>
        <pt x="9" y="643" on="1"/>
        <pt x="-28" y="643" on="0"/>
        <pt x="-28" y="679" on="1"/>
        <pt x="-28" y="714" on="0"/>
        <pt x="9" y="714" on="1"/>
        <pt x="26" y="714" on="0"/>
        <pt x="46" y="697" on="0"/>
        <pt x="46" y="679" on="1"/>
        <pt x="46" y="660" on="0"/>
        <pt x="26" y="643" on="0"/>
      </contour>
      <contour>
        <pt x="226" y="643" on="1"/>
        <pt x="189" y="643" on="0"/>
        <pt x="189" y="679" on="1"/>
        <pt x="189" y="714" on="0"/>
        <pt x="226" y="714" on="1"/>
        <pt x="243" y="714" on="0"/>
        <pt x="263" y="697" on="0"/>
        <pt x="263" y="679" on="1"/>
        <pt x="263" y="660" on="0"/>
        <pt x="243" y="643" on="0"/>
      </contour>
    </TTGlyph>
    <TTGlyph name="Idotaccent" xMin="84" yMin="0" xMax="164" yMax="898">
      <contour>
        <pt x="96" y="740" on="1"/>
        <pt x="148" y="740" on="1"/>
        <pt x="148" y="0" on="1"/>
        <pt x="96" y="0" on="1"/>
      </contour>
      <contour>
        <pt x="123" y="818" on="1"/>
        <pt x="105" y="818" on="0"/>
        <pt x="84" y="837" on="0"/>
        <pt x="84" y="858" on="1"/>
        <pt x="84" y="878" on="0"/>
        <pt x="105" y="898" on="0"/>
        <pt x="123" y="898" on="1"/>
        <pt x="140" y="898" on="0"/>
        <pt x="164" y="879" on="0"/>
        <pt x="164" y="858" on="1"/>
        <pt x="164" y="837" on="0"/>
        <pt x="140" y="818" on="0"/>
      </contour>
    </TTGlyph>
    <TTGlyph name="Idotaccent.sc" xMin="80" yMin="0" xMax="155" yMax="709">
      <contour>
        <pt x="91" y="577" on="1"/>
        <pt x="141" y="577" on="1"/>
        <pt x="141" y="0" on="1"/>
        <pt x="91" y="0" on="1"/>
      </contour>
      <contour>
        <pt x="117" y="638" on="1"/>
        <pt x="100" y="638" on="0"/>
        <pt x="80" y="654" on="0"/>
        <pt x="80" y="674" on="1"/>
        <pt x="80" y="709" on="0"/>
        <pt x="117" y="709" on="1"/>
        <pt x="134" y="709" on="0"/>
        <pt x="155" y="692" on="0"/>
        <pt x="155" y="674" on="1"/>
        <pt x="155" y="655" on="0"/>
        <pt x="134" y="638" on="0"/>
      </contour>
    </TTGlyph>
    <TTGlyph name="Idotbelow" xMin="82" yMin="-172" xMax="165" yMax="740">
      <contour>
        <pt x="96" y="740" on="1"/>
        <pt x="148" y="740" on="1"/>
        <pt x="148" y="0" on="1"/>
        <pt x="96" y="0" on="1"/>
      </contour>
      <contour>
        <pt x="123" y="-172" on="1"/>
        <pt x="104" y="-172" on="0"/>
        <pt x="82" y="-154" on="0"/>
        <pt x="82" y="-131" on="1"/>
        <pt x="82" y="-109" on="0"/>
        <pt x="104" y="-90" on="0"/>
        <pt x="123" y="-90" on="1"/>
        <pt x="142" y="-90" on="0"/>
        <pt x="165" y="-108" on="0"/>
        <pt x="165" y="-131" on="1"/>
        <pt x="165" y="-154" on="0"/>
        <pt x="142" y="-172" on="0"/>
      </contour>
    </TTGlyph>
    <TTGlyph name="Idotbelow.sc" xMin="81" yMin="-138" xMax="155" yMax="577">
      <contour>
        <pt x="91" y="577" on="1"/>
        <pt x="141" y="577" on="1"/>
        <pt x="141" y="0" on="1"/>
        <pt x="91" y="0" on="1"/>
      </contour>
      <contour>
        <pt x="117" y="-138" on="1"/>
        <pt x="81" y="-138" on="0"/>
        <pt x="81" y="-103" on="1"/>
        <pt x="81" y="-68" on="0"/>
        <pt x="117" y="-68" on="1"/>
        <pt x="134" y="-68" on="0"/>
        <pt x="155" y="-84" on="0"/>
        <pt x="155" y="-103" on="1"/>
        <pt x="155" y="-122" on="0"/>
        <pt x="134" y="-138" on="0"/>
      </contour>
    </TTGlyph>
    <TTGlyph name="Igrave" xMin="16" yMin="0" xMax="149" yMax="932">
      <contour>
        <pt x="96" y="740" on="1"/>
        <pt x="148" y="740" on="1"/>
        <pt x="148" y="0" on="1"/>
        <pt x="96" y="0" on="1"/>
      </contour>
      <contour>
        <pt x="105" y="799" on="1"/>
        <pt x="16" y="932" on="1"/>
        <pt x="71" y="932" on="1"/>
        <pt x="149" y="813" on="1"/>
      </contour>
    </TTGlyph>
    <TTGlyph name="Igrave.sc" xMin="23" yMin="0" xMax="142" yMax="732">
      <contour>
        <pt x="91" y="577" on="1"/>
        <pt x="142" y="577" on="1"/>
        <pt x="142" y="0" on="1"/>
        <pt x="91" y="0" on="1"/>
      </contour>
      <contour>
        <pt x="100" y="625" on="1"/>
        <pt x="23" y="732" on="1"/>
        <pt x="76" y="732" on="1"/>
        <pt x="141" y="635" on="1"/>
      </contour>
    </TTGlyph>
    <TTGlyph name="Iinvertedbreve" xMin="-42" yMin="0" xMax="288" yMax="956">
      <contour>
        <pt x="96" y="740" on="1"/>
        <pt x="148" y="740" on="1"/>
        <pt x="148" y="0" on="1"/>
        <pt x="96" y="0" on="1"/>
      </contour>
      <contour>
        <pt x="244" y="818" on="1"/>
        <pt x="244" y="864" on="0"/>
        <pt x="181" y="916" on="0"/>
        <pt x="123" y="916" on="1"/>
        <pt x="66" y="916" on="0"/>
        <pt x="2" y="864" on="0"/>
        <pt x="2" y="818" on="1"/>
        <pt x="-42" y="818" on="1"/>
        <pt x="-42" y="882" on="0"/>
        <pt x="44" y="956" on="0"/>
        <pt x="123" y="956" on="1"/>
        <pt x="202" y="956" on="0"/>
        <pt x="288" y="882" on="0"/>
        <pt x="288" y="818" on="1"/>
      </contour>
    </TTGlyph>
    <TTGlyph name="Iinvertedbreve.sc" xMin="-28" yMin="0" xMax="262" yMax="749">
      <contour>
        <pt x="91" y="577" on="1"/>
        <pt x="141" y="577" on="1"/>
        <pt x="141" y="0" on="1"/>
        <pt x="91" y="0" on="1"/>
      </contour>
      <contour>
        <pt x="221" y="638" on="1"/>
        <pt x="221" y="674" on="0"/>
        <pt x="168" y="713" on="0"/>
        <pt x="117" y="713" on="1"/>
        <pt x="67" y="713" on="0"/>
        <pt x="13" y="674" on="0"/>
        <pt x="13" y="638" on="1"/>
        <pt x="-28" y="638" on="1"/>
        <pt x="-28" y="689" on="0"/>
        <pt x="46" y="749" on="0"/>
        <pt x="117" y="749" on="1"/>
        <pt x="188" y="749" on="0"/>
        <pt x="262" y="689" on="0"/>
        <pt x="262" y="638" on="1"/>
      </contour>
    </TTGlyph>
    <TTGlyph name="Imacron" xMin="-23" yMin="0" xMax="267" yMax="886">
      <contour>
        <pt x="96" y="740" on="1"/>
        <pt x="148" y="740" on="1"/>
        <pt x="148" y="0" on="1"/>
        <pt x="96" y="0" on="1"/>
      </contour>
      <contour>
        <pt x="-23" y="886" on="1"/>
        <pt x="267" y="886" on="1"/>
        <pt x="267" y="842" on="1"/>
        <pt x="-23" y="842" on="1"/>
      </contour>
    </TTGlyph>
    <TTGlyph name="Imacron.sc" xMin="-12" yMin="0" xMax="245" yMax="697">
      <contour>
        <pt x="91" y="577" on="1"/>
        <pt x="141" y="577" on="1"/>
        <pt x="141" y="0" on="1"/>
        <pt x="91" y="0" on="1"/>
      </contour>
      <contour>
        <pt x="-12" y="697" on="1"/>
        <pt x="245" y="697" on="1"/>
        <pt x="245" y="657" on="1"/>
        <pt x="-12" y="657" on="1"/>
      </contour>
    </TTGlyph>
    <TTGlyph name="Iogonek" xMin="-10" yMin="-220" xMax="148" yMax="740">
      <contour>
        <pt x="96" y="740" on="1"/>
        <pt x="148" y="740" on="1"/>
        <pt x="148" y="-21" on="1"/>
        <pt x="87" y="-50" on="0"/>
        <pt x="33" y="-107" on="0"/>
        <pt x="33" y="-140" on="1"/>
        <pt x="33" y="-182" on="0"/>
        <pt x="85" y="-182" on="1"/>
        <pt x="99" y="-182" on="0"/>
        <pt x="131" y="-177" on="0"/>
        <pt x="147" y="-172" on="1"/>
        <pt x="147" y="-208" on="1"/>
        <pt x="133" y="-213" on="0"/>
        <pt x="97" y="-220" on="0"/>
        <pt x="79" y="-220" on="1"/>
        <pt x="-10" y="-220" on="0"/>
        <pt x="-10" y="-142" on="1"/>
        <pt x="-10" y="-102" on="0"/>
        <pt x="41" y="-38" on="0"/>
        <pt x="106" y="0" on="1"/>
        <pt x="96" y="0" on="1"/>
      </contour>
    </TTGlyph>
    <TTGlyph name="Iogonek.sc" xMin="1" yMin="-172" xMax="141" yMax="577">
      <contour>
        <pt x="91" y="577" on="1"/>
        <pt x="141" y="577" on="1"/>
        <pt x="141" y="-16" on="1"/>
        <pt x="93" y="-36" on="0"/>
        <pt x="41" y="-79" on="0"/>
        <pt x="41" y="-106" on="1"/>
        <pt x="41" y="-124" on="0"/>
        <pt x="64" y="-138" on="0"/>
        <pt x="85" y="-138" on="1"/>
        <pt x="99" y="-138" on="0"/>
        <pt x="127" y="-133" on="0"/>
        <pt x="140" y="-129" on="1"/>
        <pt x="140" y="-162" on="1"/>
        <pt x="128" y="-167" on="0"/>
        <pt x="97" y="-172" on="0"/>
        <pt x="80" y="-172" on="1"/>
        <pt x="1" y="-172" on="0"/>
        <pt x="1" y="-109" on="1"/>
        <pt x="1" y="-94" on="0"/>
        <pt x="10" y="-68" on="0"/>
        <pt x="33" y="-43" on="0"/>
        <pt x="70" y="-16" on="0"/>
        <pt x="98" y="0" on="1"/>
        <pt x="91" y="0" on="1"/>
      </contour>
    </TTGlyph>
    <TTGlyph name="Itilde" xMin="-57" yMin="0" xMax="323" yMax="918">
      <contour>
        <pt x="96" y="740" on="1"/>
        <pt x="148" y="740" on="1"/>
        <pt x="148" y="0" on="1"/>
        <pt x="96" y="0" on="1"/>
      </contour>
      <contour>
        <pt x="-57" y="863" on="1"/>
        <pt x="-31" y="889" on="0"/>
        <pt x="26" y="918" on="0"/>
        <pt x="55" y="918" on="1"/>
        <pt x="78" y="918" on="0"/>
        <pt x="117" y="905" on="0"/>
        <pt x="154" y="889" on="0"/>
        <pt x="191" y="876" on="0"/>
        <pt x="212" y="876" on="1"/>
        <pt x="257" y="876" on="0"/>
        <pt x="298" y="914" on="1"/>
        <pt x="323" y="890" on="1"/>
        <pt x="300" y="864" on="0"/>
        <pt x="238" y="833" on="0"/>
        <pt x="206" y="833" on="1"/>
        <pt x="185" y="833" on="0"/>
        <pt x="146" y="846" on="0"/>
        <pt x="109" y="862" on="0"/>
        <pt x="71" y="875" on="0"/>
        <pt x="52" y="875" on="1"/>
        <pt x="7" y="875" on="0"/>
        <pt x="-33" y="838" on="1"/>
      </contour>
    </TTGlyph>
    <TTGlyph name="Itilde.sc" xMin="-42" yMin="0" xMax="292" yMax="722">
      <contour>
        <pt x="91" y="577" on="1"/>
        <pt x="141" y="577" on="1"/>
        <pt x="141" y="0" on="1"/>
        <pt x="91" y="0" on="1"/>
      </contour>
      <contour>
        <pt x="-42" y="673" on="1"/>
        <pt x="5" y="722" on="0"/>
        <pt x="58" y="722" on="1"/>
        <pt x="78" y="722" on="0"/>
        <pt x="112" y="712" on="0"/>
        <pt x="144" y="699" on="0"/>
        <pt x="177" y="689" on="0"/>
        <pt x="195" y="689" on="1"/>
        <pt x="234" y="689" on="0"/>
        <pt x="272" y="719" on="1"/>
        <pt x="292" y="699" on="1"/>
        <pt x="272" y="676" on="0"/>
        <pt x="217" y="650" on="0"/>
        <pt x="189" y="650" on="1"/>
        <pt x="171" y="650" on="0"/>
        <pt x="137" y="660" on="0"/>
        <pt x="103" y="672" on="0"/>
        <pt x="70" y="682" on="0"/>
        <pt x="53" y="682" on="1"/>
        <pt x="14" y="682" on="0"/>
        <pt x="-22" y="653" on="1"/>
      </contour>
    </TTGlyph>
    <TTGlyph name="J" xMin="18" yMin="-180" xMax="150" yMax="740">
      <contour>
        <pt x="18" y="-160" on="1"/>
        <pt x="41" y="-112" on="0"/>
        <pt x="72" y="-31" on="0"/>
        <pt x="90" y="48" on="0"/>
        <pt x="98" y="131" on="0"/>
        <pt x="98" y="182" on="1"/>
        <pt x="98" y="740" on="1"/>
        <pt x="150" y="740" on="1"/>
        <pt x="150" y="180" on="1"/>
        <pt x="150" y="131" on="0"/>
        <pt x="141" y="46" on="0"/>
        <pt x="119" y="-37" on="0"/>
        <pt x="83" y="-126" on="0"/>
        <pt x="56" y="-180" on="1"/>
      </contour>
    </TTGlyph>
    <TTGlyph name="J.sc" xMin="25" yMin="-143" xMax="143" yMax="577">
      <contour>
        <pt x="25" y="-125" on="1"/>
        <pt x="45" y="-88" on="0"/>
        <pt x="71" y="-24" on="0"/>
        <pt x="87" y="38" on="0"/>
        <pt x="93" y="104" on="0"/>
        <pt x="93" y="143" on="1"/>
        <pt x="93" y="577" on="1"/>
        <pt x="143" y="577" on="1"/>
        <pt x="143" y="141" on="1"/>
        <pt x="143" y="102" on="0"/>
        <pt x="135" y="36" on="0"/>
        <pt x="116" y="-30" on="0"/>
        <pt x="85" y="-100" on="0"/>
        <pt x="62" y="-143" on="1"/>
      </contour>
    </TTGlyph>
    <TTGlyph name="Jcircumflex" xMin="-26" yMin="-180" xMax="275" yMax="940">
      <contour>
        <pt x="18" y="-160" on="1"/>
        <pt x="41" y="-112" on="0"/>
        <pt x="72" y="-31" on="0"/>
        <pt x="90" y="48" on="0"/>
        <pt x="98" y="131" on="0"/>
        <pt x="98" y="182" on="1"/>
        <pt x="98" y="740" on="1"/>
        <pt x="150" y="740" on="1"/>
        <pt x="150" y="180" on="1"/>
        <pt x="150" y="131" on="0"/>
        <pt x="141" y="46" on="0"/>
        <pt x="119" y="-37" on="0"/>
        <pt x="83" y="-126" on="0"/>
        <pt x="56" y="-180" on="1"/>
      </contour>
      <contour>
        <pt x="-26" y="867" on="1"/>
        <pt x="125" y="940" on="1"/>
        <pt x="275" y="867" on="1"/>
        <pt x="275" y="817" on="1"/>
        <pt x="125" y="889" on="1"/>
        <pt x="-26" y="817" on="1"/>
      </contour>
    </TTGlyph>
    <TTGlyph name="Jcircumflex.sc" xMin="-14" yMin="-143" xMax="251" yMax="738">
      <contour>
        <pt x="24" y="-125" on="1"/>
        <pt x="44" y="-88" on="0"/>
        <pt x="70" y="-24" on="0"/>
        <pt x="86" y="38" on="0"/>
        <pt x="92" y="104" on="0"/>
        <pt x="92" y="143" on="1"/>
        <pt x="92" y="577" on="1"/>
        <pt x="143" y="577" on="1"/>
        <pt x="143" y="141" on="1"/>
        <pt x="143" y="102" on="0"/>
        <pt x="135" y="36" on="0"/>
        <pt x="116" y="-30" on="0"/>
        <pt x="84" y="-100" on="0"/>
        <pt x="61" y="-143" on="1"/>
      </contour>
      <contour>
        <pt x="-14" y="680" on="1"/>
        <pt x="119" y="738" on="1"/>
        <pt x="251" y="680" on="1"/>
        <pt x="251" y="636" on="1"/>
        <pt x="119" y="692" on="1"/>
        <pt x="-14" y="636" on="1"/>
      </contour>
    </TTGlyph>
    <TTGlyph name="K" xMin="96" yMin="0" xMax="630" yMax="740">
      <contour>
        <pt x="96" y="740" on="1"/>
        <pt x="148" y="740" on="1"/>
        <pt x="148" y="401" on="1"/>
        <pt x="305" y="401" on="1"/>
        <pt x="551" y="740" on="1"/>
        <pt x="613" y="740" on="1"/>
        <pt x="370" y="407" on="1"/>
        <pt x="343" y="382" on="1"/>
        <pt x="343" y="377" on="1"/>
        <pt x="372" y="353" on="1"/>
        <pt x="630" y="0" on="1"/>
        <pt x="569" y="0" on="1"/>
        <pt x="311" y="354" on="1"/>
        <pt x="148" y="354" on="1"/>
        <pt x="148" y="0" on="1"/>
        <pt x="96" y="0" on="1"/>
      </contour>
    </TTGlyph>
    <TTGlyph name="K.sc" xMin="91" yMin="0" xMax="558" yMax="577">
      <contour>
        <pt x="91" y="577" on="1"/>
        <pt x="141" y="577" on="1"/>
        <pt x="141" y="316" on="1"/>
        <pt x="276" y="316" on="1"/>
        <pt x="483" y="577" on="1"/>
        <pt x="543" y="577" on="1"/>
        <pt x="338" y="318" on="1"/>
        <pt x="313" y="299" on="1"/>
        <pt x="313" y="294" on="1"/>
        <pt x="340" y="275" on="1"/>
        <pt x="558" y="0" on="1"/>
        <pt x="499" y="0" on="1"/>
        <pt x="282" y="272" on="1"/>
        <pt x="141" y="272" on="1"/>
        <pt x="141" y="0" on="1"/>
        <pt x="91" y="0" on="1"/>
      </contour>
    </TTGlyph>
    <TTGlyph name="Kcommaaccent" xMin="96" yMin="-220" xMax="630" yMax="740">
      <contour>
        <pt x="314" y="-69" on="1"/>
        <pt x="368" y="-69" on="1"/>
        <pt x="310" y="-220" on="1"/>
        <pt x="263" y="-220" on="1"/>
      </contour>
      <contour>
        <pt x="96" y="740" on="1"/>
        <pt x="148" y="740" on="1"/>
        <pt x="148" y="401" on="1"/>
        <pt x="305" y="401" on="1"/>
        <pt x="551" y="740" on="1"/>
        <pt x="613" y="740" on="1"/>
        <pt x="370" y="407" on="1"/>
        <pt x="343" y="382" on="1"/>
        <pt x="343" y="377" on="1"/>
        <pt x="372" y="353" on="1"/>
        <pt x="630" y="0" on="1"/>
        <pt x="569" y="0" on="1"/>
        <pt x="311" y="354" on="1"/>
        <pt x="148" y="354" on="1"/>
        <pt x="148" y="0" on="1"/>
        <pt x="96" y="0" on="1"/>
      </contour>
    </TTGlyph>
    <TTGlyph name="Kcommaaccent.sc" xMin="91" yMin="-172" xMax="558" yMax="577">
      <contour>
        <pt x="91" y="577" on="1"/>
        <pt x="141" y="577" on="1"/>
        <pt x="141" y="316" on="1"/>
        <pt x="276" y="316" on="1"/>
        <pt x="483" y="577" on="1"/>
        <pt x="543" y="577" on="1"/>
        <pt x="338" y="318" on="1"/>
        <pt x="313" y="299" on="1"/>
        <pt x="313" y="294" on="1"/>
        <pt x="340" y="275" on="1"/>
        <pt x="558" y="0" on="1"/>
        <pt x="499" y="0" on="1"/>
        <pt x="282" y="272" on="1"/>
        <pt x="141" y="272" on="1"/>
        <pt x="141" y="0" on="1"/>
        <pt x="91" y="0" on="1"/>
      </contour>
      <contour>
        <pt x="281" y="-54" on="1"/>
        <pt x="334" y="-54" on="1"/>
        <pt x="283" y="-172" on="1"/>
        <pt x="239" y="-172" on="1"/>
      </contour>
    </TTGlyph>
    <TTGlyph name="L" xMin="96" yMin="0" xMax="495" yMax="740">
      <contour>
        <pt x="96" y="740" on="1"/>
        <pt x="148" y="740" on="1"/>
        <pt x="148" y="46" on="1"/>
        <pt x="495" y="46" on="1"/>
        <pt x="495" y="0" on="1"/>
        <pt x="96" y="0" on="1"/>
      </contour>
    </TTGlyph>
    <TTGlyph name="L.sc" xMin="91" yMin="0" xMax="441" yMax="577">
      <contour>
        <pt x="91" y="577" on="1"/>
        <pt x="141" y="577" on="1"/>
        <pt x="141" y="44" on="1"/>
        <pt x="441" y="44" on="1"/>
        <pt x="441" y="0" on="1"/>
        <pt x="91" y="0" on="1"/>
      </contour>
    </TTGlyph>
    <TTGlyph name="Lacute" xMin="96" yMin="0" xMax="495" yMax="932">
      <contour>
        <pt x="101" y="805" on="1"/>
        <pt x="178" y="932" on="1"/>
        <pt x="233" y="932" on="1"/>
        <pt x="144" y="799" on="1"/>
      </contour>
      <contour>
        <pt x="96" y="740" on="1"/>
        <pt x="148" y="740" on="1"/>
        <pt x="148" y="46" on="1"/>
        <pt x="495" y="46" on="1"/>
        <pt x="495" y="0" on="1"/>
        <pt x="96" y="0" on="1"/>
      </contour>
    </TTGlyph>
    <TTGlyph name="Lacute.sc" xMin="91" yMin="0" xMax="442" yMax="732">
      <contour>
        <pt x="91" y="577" on="1"/>
        <pt x="141" y="577" on="1"/>
        <pt x="141" y="44" on="1"/>
        <pt x="442" y="44" on="1"/>
        <pt x="442" y="0" on="1"/>
        <pt x="91" y="0" on="1"/>
      </contour>
      <contour>
        <pt x="96" y="629" on="1"/>
        <pt x="161" y="732" on="1"/>
        <pt x="215" y="732" on="1"/>
        <pt x="137" y="625" on="1"/>
      </contour>
    </TTGlyph>
    <TTGlyph name="Lcaron" xMin="96" yMin="0" xMax="495" yMax="746">
      <contour>
        <pt x="388" y="746" on="1"/>
        <pt x="434" y="746" on="1"/>
        <pt x="411" y="518" on="1"/>
        <pt x="388" y="518" on="1"/>
      </contour>
      <contour>
        <pt x="96" y="740" on="1"/>
        <pt x="148" y="740" on="1"/>
        <pt x="148" y="46" on="1"/>
        <pt x="495" y="46" on="1"/>
        <pt x="495" y="0" on="1"/>
        <pt x="96" y="0" on="1"/>
      </contour>
    </TTGlyph>
    <TTGlyph name="Lcaron.sc" xMin="91" yMin="0" xMax="441" yMax="586">
      <contour>
        <pt x="91" y="577" on="1"/>
        <pt x="141" y="577" on="1"/>
        <pt x="141" y="44" on="1"/>
        <pt x="441" y="44" on="1"/>
        <pt x="441" y="0" on="1"/>
        <pt x="91" y="0" on="1"/>
      </contour>
      <contour>
        <pt x="346" y="586" on="1"/>
        <pt x="390" y="586" on="1"/>
        <pt x="370" y="408" on="1"/>
        <pt x="346" y="408" on="1"/>
      </contour>
    </TTGlyph>
    <TTGlyph name="Lcommaaccent" xMin="96" yMin="-220" xMax="495" yMax="740">
      <contour>
        <pt x="279" y="-69" on="1"/>
        <pt x="333" y="-69" on="1"/>
        <pt x="275" y="-220" on="1"/>
        <pt x="228" y="-220" on="1"/>
      </contour>
      <contour>
        <pt x="96" y="740" on="1"/>
        <pt x="148" y="740" on="1"/>
        <pt x="148" y="46" on="1"/>
        <pt x="495" y="46" on="1"/>
        <pt x="495" y="0" on="1"/>
        <pt x="96" y="0" on="1"/>
      </contour>
    </TTGlyph>
    <TTGlyph name="Lcommaaccent.sc" xMin="91" yMin="-172" xMax="441" yMax="577">
      <contour>
        <pt x="91" y="577" on="1"/>
        <pt x="141" y="577" on="1"/>
        <pt x="141" y="44" on="1"/>
        <pt x="441" y="44" on="1"/>
        <pt x="441" y="0" on="1"/>
        <pt x="91" y="0" on="1"/>
      </contour>
      <contour>
        <pt x="247" y="-54" on="1"/>
        <pt x="300" y="-54" on="1"/>
        <pt x="249" y="-172" on="1"/>
        <pt x="205" y="-172" on="1"/>
      </contour>
    </TTGlyph>
    <TTGlyph name="Ldot" xMin="96" yMin="0" xMax="495" yMax="740">
      <contour>
        <pt x="96" y="740" on="1"/>
        <pt x="148" y="740" on="1"/>
        <pt x="148" y="46" on="1"/>
        <pt x="495" y="46" on="1"/>
        <pt x="495" y="0" on="1"/>
        <pt x="96" y="0" on="1"/>
      </contour>
      <contour>
        <pt x="414" y="332" on="1"/>
        <pt x="396" y="332" on="0"/>
        <pt x="375" y="351" on="0"/>
        <pt x="375" y="372" on="1"/>
        <pt x="375" y="393" on="0"/>
        <pt x="396" y="412" on="0"/>
        <pt x="414" y="412" on="1"/>
        <pt x="431" y="412" on="0"/>
        <pt x="455" y="393" on="0"/>
        <pt x="455" y="372" on="1"/>
        <pt x="455" y="351" on="0"/>
        <pt x="431" y="332" on="0"/>
      </contour>
    </TTGlyph>
    <TTGlyph name="Ldot.sc" xMin="91" yMin="0" xMax="441" yMax="577">
      <contour>
        <pt x="91" y="577" on="1"/>
        <pt x="141" y="577" on="1"/>
        <pt x="141" y="44" on="1"/>
        <pt x="441" y="44" on="1"/>
        <pt x="441" y="0" on="1"/>
        <pt x="91" y="0" on="1"/>
      </contour>
      <contour>
        <pt x="373" y="257" on="1"/>
        <pt x="336" y="257" on="0"/>
        <pt x="336" y="292" on="1"/>
        <pt x="336" y="327" on="0"/>
        <pt x="373" y="327" on="1"/>
        <pt x="390" y="327" on="0"/>
        <pt x="411" y="311" on="0"/>
        <pt x="411" y="292" on="1"/>
        <pt x="411" y="273" on="0"/>
        <pt x="390" y="257" on="0"/>
      </contour>
    </TTGlyph>
    <TTGlyph name="Lslash" xMin="16" yMin="0" xMax="517" yMax="740">
      <contour>
        <pt x="16" y="276" on="1"/>
        <pt x="118" y="345" on="1"/>
        <pt x="118" y="740" on="1"/>
        <pt x="170" y="740" on="1"/>
        <pt x="170" y="380" on="1"/>
        <pt x="339" y="494" on="1"/>
        <pt x="339" y="443" on="1"/>
        <pt x="170" y="328" on="1"/>
        <pt x="170" y="46" on="1"/>
        <pt x="517" y="46" on="1"/>
        <pt x="517" y="0" on="1"/>
        <pt x="118" y="0" on="1"/>
        <pt x="118" y="293" on="1"/>
        <pt x="16" y="224" on="1"/>
      </contour>
    </TTGlyph>
    <TTGlyph name="Lslash.sc" xMin="23" yMin="0" xMax="461" yMax="577">
      <contour>
        <pt x="23" y="222" on="1"/>
        <pt x="110" y="275" on="1"/>
        <pt x="110" y="577" on="1"/>
        <pt x="161" y="577" on="1"/>
        <pt x="161" y="301" on="1"/>
        <pt x="308" y="390" on="1"/>
        <pt x="308" y="344" on="1"/>
        <pt x="161" y="256" on="1"/>
        <pt x="161" y="44" on="1"/>
        <pt x="461" y="44" on="1"/>
        <pt x="461" y="0" on="1"/>
        <pt x="110" y="0" on="1"/>
        <pt x="110" y="229" on="1"/>
        <pt x="23" y="175" on="1"/>
      </contour>
    </TTGlyph>
    <TTGlyph name="M" xMin="96" yMin="0" xMax="804" yMax="740">
      <contour>
        <pt x="96" y="740" on="1"/>
        <pt x="167" y="740" on="1"/>
        <pt x="380" y="246" on="1"/>
        <pt x="447" y="84" on="1"/>
        <pt x="452" y="84" on="1"/>
        <pt x="520" y="246" on="1"/>
        <pt x="733" y="740" on="1"/>
        <pt x="804" y="740" on="1"/>
        <pt x="804" y="0" on="1"/>
        <pt x="755" y="0" on="1"/>
        <pt x="755" y="663" on="1"/>
        <pt x="750" y="663" on="1"/>
        <pt x="660" y="452" on="1"/>
        <pt x="477" y="28" on="1"/>
        <pt x="423" y="28" on="1"/>
        <pt x="240" y="452" on="1"/>
        <pt x="150" y="663" on="1"/>
        <pt x="145" y="663" on="1"/>
        <pt x="145" y="0" on="1"/>
        <pt x="96" y="0" on="1"/>
      </contour>
    </TTGlyph>
    <TTGlyph name="M.sc" xMin="91" yMin="0" xMax="708" yMax="577">
      <contour>
        <pt x="91" y="577" on="1"/>
        <pt x="159" y="577" on="1"/>
        <pt x="339" y="205" on="1"/>
        <pt x="397" y="78" on="1"/>
        <pt x="402" y="78" on="1"/>
        <pt x="461" y="205" on="1"/>
        <pt x="641" y="577" on="1"/>
        <pt x="708" y="577" on="1"/>
        <pt x="708" y="0" on="1"/>
        <pt x="661" y="0" on="1"/>
        <pt x="661" y="509" on="1"/>
        <pt x="657" y="510" on="1"/>
        <pt x="577" y="339" on="1"/>
        <pt x="425" y="23" on="1"/>
        <pt x="374" y="23" on="1"/>
        <pt x="222" y="339" on="1"/>
        <pt x="143" y="510" on="1"/>
        <pt x="139" y="509" on="1"/>
        <pt x="139" y="0" on="1"/>
        <pt x="91" y="0" on="1"/>
      </contour>
    </TTGlyph>
    <TTGlyph name="N" xMin="96" yMin="0" xMax="669" yMax="740">
      <contour>
        <pt x="96" y="740" on="1"/>
        <pt x="145" y="740" on="1"/>
        <pt x="555" y="171" on="1"/>
        <pt x="616" y="82" on="1"/>
        <pt x="620" y="82" on="1"/>
        <pt x="620" y="740" on="1"/>
        <pt x="669" y="740" on="1"/>
        <pt x="669" y="0" on="1"/>
        <pt x="620" y="0" on="1"/>
        <pt x="206" y="572" on="1"/>
        <pt x="150" y="656" on="1"/>
        <pt x="145" y="656" on="1"/>
        <pt x="145" y="0" on="1"/>
        <pt x="96" y="0" on="1"/>
      </contour>
    </TTGlyph>
    <TTGlyph name="N.sc" xMin="91" yMin="0" xMax="588" yMax="577">
      <contour>
        <pt x="91" y="577" on="1"/>
        <pt x="136" y="577" on="1"/>
        <pt x="484" y="147" on="1"/>
        <pt x="536" y="77" on="1"/>
        <pt x="541" y="77" on="1"/>
        <pt x="541" y="577" on="1"/>
        <pt x="588" y="577" on="1"/>
        <pt x="588" y="0" on="1"/>
        <pt x="543" y="0" on="1"/>
        <pt x="192" y="432" on="1"/>
        <pt x="143" y="499" on="1"/>
        <pt x="138" y="499" on="1"/>
        <pt x="138" y="0" on="1"/>
        <pt x="91" y="0" on="1"/>
      </contour>
    </TTGlyph>
    <TTGlyph name="Nacute" xMin="96" yMin="0" xMax="669" yMax="932">
      <contour>
        <pt x="354" y="805" on="1"/>
        <pt x="431" y="932" on="1"/>
        <pt x="486" y="932" on="1"/>
        <pt x="397" y="799" on="1"/>
      </contour>
      <contour>
        <pt x="96" y="740" on="1"/>
        <pt x="145" y="740" on="1"/>
        <pt x="555" y="171" on="1"/>
        <pt x="616" y="82" on="1"/>
        <pt x="620" y="82" on="1"/>
        <pt x="620" y="740" on="1"/>
        <pt x="669" y="740" on="1"/>
        <pt x="669" y="0" on="1"/>
        <pt x="620" y="0" on="1"/>
        <pt x="206" y="572" on="1"/>
        <pt x="150" y="656" on="1"/>
        <pt x="145" y="656" on="1"/>
        <pt x="145" y="0" on="1"/>
        <pt x="96" y="0" on="1"/>
      </contour>
    </TTGlyph>
    <TTGlyph name="Nacute.sc" xMin="91" yMin="0" xMax="588" yMax="732">
      <contour>
        <pt x="91" y="577" on="1"/>
        <pt x="136" y="577" on="1"/>
        <pt x="484" y="147" on="1"/>
        <pt x="536" y="77" on="1"/>
        <pt x="541" y="77" on="1"/>
        <pt x="541" y="577" on="1"/>
        <pt x="588" y="577" on="1"/>
        <pt x="588" y="0" on="1"/>
        <pt x="543" y="0" on="1"/>
        <pt x="192" y="432" on="1"/>
        <pt x="143" y="499" on="1"/>
        <pt x="138" y="499" on="1"/>
        <pt x="138" y="0" on="1"/>
        <pt x="91" y="0" on="1"/>
      </contour>
      <contour>
        <pt x="312" y="629" on="1"/>
        <pt x="377" y="732" on="1"/>
        <pt x="430" y="732" on="1"/>
        <pt x="353" y="625" on="1"/>
      </contour>
    </TTGlyph>
    <TTGlyph name="Ncaron" xMin="96" yMin="0" xMax="669" yMax="935">
      <contour>
        <pt x="234" y="935" on="1"/>
        <pt x="385" y="863" on="1"/>
        <pt x="535" y="935" on="1"/>
        <pt x="535" y="885" on="1"/>
        <pt x="384" y="812" on="1"/>
        <pt x="234" y="885" on="1"/>
      </contour>
      <contour>
        <pt x="96" y="740" on="1"/>
        <pt x="145" y="740" on="1"/>
        <pt x="555" y="171" on="1"/>
        <pt x="616" y="82" on="1"/>
        <pt x="620" y="82" on="1"/>
        <pt x="620" y="740" on="1"/>
        <pt x="669" y="740" on="1"/>
        <pt x="669" y="0" on="1"/>
        <pt x="620" y="0" on="1"/>
        <pt x="206" y="572" on="1"/>
        <pt x="150" y="656" on="1"/>
        <pt x="145" y="656" on="1"/>
        <pt x="145" y="0" on="1"/>
        <pt x="96" y="0" on="1"/>
      </contour>
    </TTGlyph>
    <TTGlyph name="Ncaron.sc" xMin="91" yMin="0" xMax="588" yMax="735">
      <contour>
        <pt x="91" y="577" on="1"/>
        <pt x="136" y="577" on="1"/>
        <pt x="484" y="147" on="1"/>
        <pt x="536" y="77" on="1"/>
        <pt x="541" y="77" on="1"/>
        <pt x="541" y="577" on="1"/>
        <pt x="588" y="577" on="1"/>
        <pt x="588" y="0" on="1"/>
        <pt x="543" y="0" on="1"/>
        <pt x="192" y="432" on="1"/>
        <pt x="143" y="499" on="1"/>
        <pt x="138" y="499" on="1"/>
        <pt x="138" y="0" on="1"/>
        <pt x="91" y="0" on="1"/>
      </contour>
      <contour>
        <pt x="208" y="690" on="1"/>
        <pt x="208" y="735" on="1"/>
        <pt x="341" y="678" on="1"/>
        <pt x="473" y="735" on="1"/>
        <pt x="473" y="690" on="1"/>
        <pt x="341" y="633" on="1"/>
      </contour>
    </TTGlyph>
    <TTGlyph name="Ncommaaccent" xMin="96" yMin="-220" xMax="669" yMax="740">
      <contour>
        <pt x="375" y="-69" on="1"/>
        <pt x="429" y="-69" on="1"/>
        <pt x="371" y="-220" on="1"/>
        <pt x="324" y="-220" on="1"/>
      </contour>
      <contour>
        <pt x="96" y="740" on="1"/>
        <pt x="145" y="740" on="1"/>
        <pt x="555" y="171" on="1"/>
        <pt x="616" y="82" on="1"/>
        <pt x="620" y="82" on="1"/>
        <pt x="620" y="740" on="1"/>
        <pt x="669" y="740" on="1"/>
        <pt x="669" y="0" on="1"/>
        <pt x="620" y="0" on="1"/>
        <pt x="206" y="572" on="1"/>
        <pt x="150" y="656" on="1"/>
        <pt x="145" y="656" on="1"/>
        <pt x="145" y="0" on="1"/>
        <pt x="96" y="0" on="1"/>
      </contour>
    </TTGlyph>
    <TTGlyph name="Ncommaaccent.sc" xMin="91" yMin="-172" xMax="588" yMax="577">
      <contour>
        <pt x="91" y="577" on="1"/>
        <pt x="136" y="577" on="1"/>
        <pt x="484" y="147" on="1"/>
        <pt x="536" y="77" on="1"/>
        <pt x="541" y="77" on="1"/>
        <pt x="541" y="577" on="1"/>
        <pt x="588" y="577" on="1"/>
        <pt x="588" y="0" on="1"/>
        <pt x="543" y="0" on="1"/>
        <pt x="192" y="432" on="1"/>
        <pt x="143" y="499" on="1"/>
        <pt x="138" y="499" on="1"/>
        <pt x="138" y="0" on="1"/>
        <pt x="91" y="0" on="1"/>
      </contour>
      <contour>
        <pt x="329" y="-54" on="1"/>
        <pt x="382" y="-54" on="1"/>
        <pt x="330" y="-172" on="1"/>
        <pt x="286" y="-172" on="1"/>
      </contour>
    </TTGlyph>
    <TTGlyph name="Ndotaccent" xMin="96" yMin="0" xMax="669" yMax="898">
      <contour>
        <pt x="383" y="818" on="1"/>
        <pt x="365" y="818" on="0"/>
        <pt x="344" y="837" on="0"/>
        <pt x="344" y="858" on="1"/>
        <pt x="344" y="878" on="0"/>
        <pt x="365" y="898" on="0"/>
        <pt x="383" y="898" on="1"/>
        <pt x="400" y="898" on="0"/>
        <pt x="424" y="879" on="0"/>
        <pt x="424" y="858" on="1"/>
        <pt x="424" y="837" on="0"/>
        <pt x="400" y="818" on="0"/>
      </contour>
      <contour>
        <pt x="96" y="740" on="1"/>
        <pt x="145" y="740" on="1"/>
        <pt x="555" y="171" on="1"/>
        <pt x="616" y="82" on="1"/>
        <pt x="620" y="82" on="1"/>
        <pt x="620" y="740" on="1"/>
        <pt x="669" y="740" on="1"/>
        <pt x="669" y="0" on="1"/>
        <pt x="620" y="0" on="1"/>
        <pt x="206" y="572" on="1"/>
        <pt x="150" y="656" on="1"/>
        <pt x="145" y="656" on="1"/>
        <pt x="145" y="0" on="1"/>
        <pt x="96" y="0" on="1"/>
      </contour>
    </TTGlyph>
    <TTGlyph name="Ndotaccent.sc" xMin="91" yMin="0" xMax="588" yMax="709">
      <contour>
        <pt x="91" y="577" on="1"/>
        <pt x="136" y="577" on="1"/>
        <pt x="484" y="147" on="1"/>
        <pt x="536" y="77" on="1"/>
        <pt x="541" y="77" on="1"/>
        <pt x="541" y="577" on="1"/>
        <pt x="588" y="577" on="1"/>
        <pt x="588" y="0" on="1"/>
        <pt x="543" y="0" on="1"/>
        <pt x="192" y="432" on="1"/>
        <pt x="143" y="499" on="1"/>
        <pt x="138" y="499" on="1"/>
        <pt x="138" y="0" on="1"/>
        <pt x="91" y="0" on="1"/>
      </contour>
      <contour>
        <pt x="340" y="638" on="1"/>
        <pt x="323" y="638" on="0"/>
        <pt x="303" y="654" on="0"/>
        <pt x="303" y="674" on="1"/>
        <pt x="303" y="709" on="0"/>
        <pt x="340" y="709" on="1"/>
        <pt x="357" y="709" on="0"/>
        <pt x="378" y="692" on="0"/>
        <pt x="378" y="674" on="1"/>
        <pt x="378" y="655" on="0"/>
        <pt x="357" y="638" on="0"/>
      </contour>
    </TTGlyph>
    <TTGlyph name="Ntilde" xMin="96" yMin="0" xMax="669" yMax="918">
      <contour>
        <pt x="203" y="863" on="1"/>
        <pt x="229" y="889" on="0"/>
        <pt x="286" y="918" on="0"/>
        <pt x="315" y="918" on="1"/>
        <pt x="338" y="918" on="0"/>
        <pt x="377" y="905" on="0"/>
        <pt x="414" y="889" on="0"/>
        <pt x="451" y="876" on="0"/>
        <pt x="472" y="876" on="1"/>
        <pt x="517" y="876" on="0"/>
        <pt x="558" y="914" on="1"/>
        <pt x="583" y="890" on="1"/>
        <pt x="560" y="864" on="0"/>
        <pt x="498" y="833" on="0"/>
        <pt x="466" y="833" on="1"/>
        <pt x="445" y="833" on="0"/>
        <pt x="406" y="846" on="0"/>
        <pt x="369" y="862" on="0"/>
        <pt x="331" y="875" on="0"/>
        <pt x="312" y="875" on="1"/>
        <pt x="267" y="875" on="0"/>
        <pt x="227" y="838" on="1"/>
      </contour>
      <contour>
        <pt x="96" y="740" on="1"/>
        <pt x="145" y="740" on="1"/>
        <pt x="555" y="171" on="1"/>
        <pt x="616" y="82" on="1"/>
        <pt x="620" y="82" on="1"/>
        <pt x="620" y="740" on="1"/>
        <pt x="669" y="740" on="1"/>
        <pt x="669" y="0" on="1"/>
        <pt x="620" y="0" on="1"/>
        <pt x="206" y="572" on="1"/>
        <pt x="150" y="656" on="1"/>
        <pt x="145" y="656" on="1"/>
        <pt x="145" y="0" on="1"/>
        <pt x="96" y="0" on="1"/>
      </contour>
    </TTGlyph>
    <TTGlyph name="Ntilde.sc" xMin="91" yMin="0" xMax="588" yMax="722">
      <contour>
        <pt x="182" y="673" on="1"/>
        <pt x="204" y="697" on="0"/>
        <pt x="255" y="722" on="0"/>
        <pt x="281" y="722" on="1"/>
        <pt x="301" y="722" on="0"/>
        <pt x="336" y="712" on="0"/>
        <pt x="368" y="699" on="0"/>
        <pt x="400" y="689" on="0"/>
        <pt x="418" y="689" on="1"/>
        <pt x="457" y="689" on="0"/>
        <pt x="495" y="719" on="1"/>
        <pt x="516" y="699" on="1"/>
        <pt x="495" y="676" on="0"/>
        <pt x="440" y="650" on="0"/>
        <pt x="412" y="650" on="1"/>
        <pt x="394" y="650" on="0"/>
        <pt x="360" y="660" on="0"/>
        <pt x="326" y="672" on="0"/>
        <pt x="293" y="682" on="0"/>
        <pt x="277" y="682" on="1"/>
        <pt x="237" y="682" on="0"/>
        <pt x="202" y="653" on="1"/>
      </contour>
      <contour>
        <pt x="91" y="577" on="1"/>
        <pt x="136" y="577" on="1"/>
        <pt x="484" y="147" on="1"/>
        <pt x="536" y="77" on="1"/>
        <pt x="541" y="77" on="1"/>
        <pt x="541" y="577" on="1"/>
        <pt x="588" y="577" on="1"/>
        <pt x="588" y="0" on="1"/>
        <pt x="543" y="0" on="1"/>
        <pt x="192" y="432" on="1"/>
        <pt x="143" y="499" on="1"/>
        <pt x="138" y="499" on="1"/>
        <pt x="138" y="0" on="1"/>
        <pt x="91" y="0" on="1"/>
      </contour>
    </TTGlyph>
    <TTGlyph name="O" xMin="57" yMin="-10" xMax="669" yMax="750">
      <contour>
        <pt x="363" y="-10" on="1"/>
        <pt x="216" y="-10" on="0"/>
        <pt x="57" y="181" on="0"/>
        <pt x="57" y="369" on="1"/>
        <pt x="57" y="557" on="0"/>
        <pt x="216" y="750" on="0"/>
        <pt x="363" y="750" on="1"/>
        <pt x="510" y="750" on="0"/>
        <pt x="669" y="557" on="0"/>
        <pt x="669" y="369" on="1"/>
        <pt x="669" y="182" on="0"/>
        <pt x="509" y="-10" on="0"/>
      </contour>
      <contour>
        <pt x="363" y="37" on="1"/>
        <pt x="488" y="37" on="0"/>
        <pt x="617" y="206" on="0"/>
        <pt x="617" y="369" on="1"/>
        <pt x="617" y="534" on="0"/>
        <pt x="488" y="703" on="0"/>
        <pt x="363" y="703" on="1"/>
        <pt x="238" y="703" on="0"/>
        <pt x="109" y="534" on="0"/>
        <pt x="109" y="369" on="1"/>
        <pt x="109" y="205" on="0"/>
        <pt x="238" y="37" on="0"/>
      </contour>
    </TTGlyph>
    <TTGlyph name="O.sc" xMin="56" yMin="-8" xMax="591" yMax="585">
      <contour>
        <pt x="324" y="-8" on="1"/>
        <pt x="196" y="-8" on="0"/>
        <pt x="56" y="142" on="0"/>
        <pt x="56" y="288" on="1"/>
        <pt x="56" y="434" on="0"/>
        <pt x="196" y="585" on="0"/>
        <pt x="324" y="585" on="1"/>
        <pt x="452" y="585" on="0"/>
        <pt x="591" y="434" on="0"/>
        <pt x="591" y="288" on="1"/>
        <pt x="591" y="142" on="0"/>
        <pt x="452" y="-8" on="0"/>
      </contour>
      <contour>
        <pt x="324" y="36" on="1"/>
        <pt x="430" y="36" on="0"/>
        <pt x="541" y="164" on="0"/>
        <pt x="541" y="288" on="1"/>
        <pt x="541" y="413" on="0"/>
        <pt x="430" y="541" on="0"/>
        <pt x="324" y="541" on="1"/>
        <pt x="217" y="541" on="0"/>
        <pt x="107" y="413" on="0"/>
        <pt x="107" y="288" on="1"/>
        <pt x="107" y="163" on="0"/>
        <pt x="217" y="36" on="0"/>
      </contour>
    </TTGlyph>
    <TTGlyph name="OE" xMin="56" yMin="-8" xMax="881" yMax="748">
      <contour>
        <pt x="366" y="-8" on="1"/>
        <pt x="217" y="-8" on="0"/>
        <pt x="56" y="183" on="0"/>
        <pt x="56" y="369" on="1"/>
        <pt x="56" y="556" on="0"/>
        <pt x="218" y="748" on="0"/>
        <pt x="366" y="748" on="1"/>
        <pt x="393" y="748" on="0"/>
        <pt x="441" y="745" on="0"/>
        <pt x="464" y="740" on="1"/>
        <pt x="872" y="740" on="1"/>
        <pt x="872" y="693" on="1"/>
        <pt x="514" y="693" on="1"/>
        <pt x="514" y="400" on="1"/>
        <pt x="850" y="400" on="1"/>
        <pt x="850" y="354" on="1"/>
        <pt x="514" y="354" on="1"/>
        <pt x="514" y="47" on="1"/>
        <pt x="881" y="47" on="1"/>
        <pt x="881" y="0" on="1"/>
        <pt x="464" y="0" on="1"/>
        <pt x="443" y="-4" on="0"/>
        <pt x="392" y="-8" on="0"/>
      </contour>
      <contour>
        <pt x="367" y="39" on="1"/>
        <pt x="393" y="39" on="0"/>
        <pt x="442" y="43" on="0"/>
        <pt x="463" y="49" on="1"/>
        <pt x="463" y="691" on="1"/>
        <pt x="441" y="697" on="0"/>
        <pt x="393" y="701" on="0"/>
        <pt x="367" y="701" on="1"/>
        <pt x="239" y="701" on="0"/>
        <pt x="108" y="534" on="0"/>
        <pt x="108" y="369" on="1"/>
        <pt x="108" y="206" on="0"/>
        <pt x="240" y="39" on="0"/>
      </contour>
    </TTGlyph>
    <TTGlyph name="OE.sc" xMin="57" yMin="-7" xMax="779" yMax="584">
      <contour>
        <pt x="327" y="-7" on="1"/>
        <pt x="198" y="-7" on="0"/>
        <pt x="57" y="142" on="0"/>
        <pt x="57" y="288" on="1"/>
        <pt x="57" y="434" on="0"/>
        <pt x="198" y="584" on="0"/>
        <pt x="327" y="584" on="1"/>
        <pt x="375" y="584" on="0"/>
        <pt x="413" y="577" on="1"/>
        <pt x="773" y="577" on="1"/>
        <pt x="773" y="534" on="1"/>
        <pt x="462" y="534" on="1"/>
        <pt x="462" y="315" on="1"/>
        <pt x="754" y="315" on="1"/>
        <pt x="754" y="273" on="1"/>
        <pt x="462" y="273" on="1"/>
        <pt x="462" y="43" on="1"/>
        <pt x="779" y="43" on="1"/>
        <pt x="779" y="0" on="1"/>
        <pt x="413" y="0" on="1"/>
        <pt x="394" y="-3" on="0"/>
        <pt x="350" y="-7" on="0"/>
      </contour>
      <contour>
        <pt x="328" y="38" on="1"/>
        <pt x="351" y="38" on="0"/>
        <pt x="393" y="41" on="0"/>
        <pt x="412" y="46" on="1"/>
        <pt x="412" y="531" on="1"/>
        <pt x="393" y="536" on="0"/>
        <pt x="351" y="539" on="0"/>
        <pt x="328" y="539" on="1"/>
        <pt x="219" y="539" on="0"/>
        <pt x="107" y="413" on="0"/>
        <pt x="107" y="288" on="1"/>
        <pt x="107" y="163" on="0"/>
        <pt x="219" y="38" on="0"/>
      </contour>
    </TTGlyph>
</ttFont>
